<?xml version="1.0" encoding="UTF-8" standalone="no"?>
<!-- Created with Inkscape (http://www.inkscape.org/) -->

<svg
   xmlns:dc="http://purl.org/dc/elements/1.1/"
   xmlns:cc="http://creativecommons.org/ns#"
   xmlns:rdf="http://www.w3.org/1999/02/22-rdf-syntax-ns#"
   xmlns:svg="http://www.w3.org/2000/svg"
   xmlns="http://www.w3.org/2000/svg"
   xmlns:sodipodi="http://sodipodi.sourceforge.net/DTD/sodipodi-0.dtd"
   xmlns:inkscape="http://www.inkscape.org/namespaces/inkscape"
   width="234.87871"
   height="101.48839"
   id="svg3124"
   version="1.1"
   inkscape:version="0.48.3.1 r9886"
   sodipodi:docname="New document 8">
  <sodipodi:namedview
     id="base"
     pagecolor="#ffffff"
     bordercolor="#666666"
     borderopacity="1.0"
     inkscape:pageopacity="0.0"
     inkscape:pageshadow="2"
     inkscape:zoom="2.4306226"
     inkscape:cx="117.43902"
     inkscape:cy="47.883672"
     inkscape:document-units="px"
     inkscape:current-layer="layer1"
     showgrid="false"
     inkscape:window-width="960"
     inkscape:window-height="1148"
     inkscape:window-x="1921"
     inkscape:window-y="24"
     inkscape:window-maximized="0" />
  <defs
     id="defs3126" />
  <metadata
     id="metadata3129">
    <rdf:RDF>
      <cc:Work
         rdf:about="">
        <dc:format>image/svg+xml</dc:format>
        <dc:type
           rdf:resource="http://purl.org/dc/dcmitype/StillImage" />
        <dc:title></dc:title>
      </cc:Work>
    </rdf:RDF>
  </metadata>
  <g
     transform="translate(-262.11444,-724.03319)"
     id="layer1"
     inkscape:groupmode="layer"
     inkscape:label="Layer 1">
    <g
       transform="matrix(0.5,0,0,0.5,112.19535,632.25017)"
       id="g3176">
      <g
         style="font-style:normal;font-variant:normal;font-weight:normal;font-stretch:normal;letter-spacing:normal;word-spacing:normal;text-anchor:start;fill:none;stroke:#000000;stroke-linecap:butt;stroke-linejoin:miter;stroke-miterlimit:10.43299961;stroke-opacity:1;stroke-dasharray:none;stroke-dashoffset:0"
         id="g3178"
         transform="matrix(1.0629921,0,0,-1.0629921,-186.02362,789.27165)"
         xml:space="preserve"
         stroke-miterlimit="10.433"
         font-style="normal"
         font-variant="normal"
         font-weight="normal"
         font-stretch="normal"
         font-size-adjust="none"
         letter-spacing="normal"
         word-spacing="normal"><path
           style="fill:#000000;stroke-width:0"
           inkscape:connector-curvature="0"
           d="m 464.49,410.84 0.24,0.39 0.24,0.38 0.23,0.38 0.21,0.37 0.21,0.37 0.2,0.36 0.18,0.35 0.18,0.35 0.18,0.35 0.16,0.34 0.15,0.33 0.15,0.33 0.14,0.33 0.14,0.32 0.24,0.62 0.23,0.61 0.2,0.6 0.19,0.57 0.16,0.56 0.16,0.54 0.14,0.53 0.13,0.52 0.13,0.5 c 1.73,6.87 3.64,12.86 6.71,16.3 0.61,0.65 1,1.09 2.6,1.09 3.44,0 3.53,-3.44 3.53,-4.12 0,-0.91 -0.25,-1.6 -0.25,-1.85 0,-0.36 0.31,-0.36 0.36,-0.36 0.8,0 2.14,0.55 3.39,1.46 0.89,0.68 1.34,1.18 1.34,3.23 0,2.69 -1.4,4.73 -4.18,4.73 -1.6,0 -5.99,-0.4 -10.86,-5.32 -3.99,-4.1 -6.33,-13.07 -7.28,-16.8 -0.9,-3.44 -1.3,-4.99 -2.79,-7.97 -0.36,-0.59 -1.65,-2.8 -2.34,-3.44 -1.34,-1.25 -1.84,-2.14 -1.84,-2.39 0,-0.09 0.09,-0.29 0.45,-0.29 0.19,0 1.23,0.2 2.53,1.04 0.84,0.5 0.95,0.6 2.09,1.8 2.5,-0.06 4.24,-0.5 7.38,-1.41 2.55,-0.68 5.08,-1.43 7.62,-1.43 4.04,0 8.13,3.03 9.72,5.23 0.99,1.34 1.3,2.58 1.3,2.73 0,0.35 -0.31,0.35 -0.36,0.35 -0.8,0 -1.98,-0.55 -2.84,-1.14 -1.35,-0.85 -1.44,-1.14 -1.74,-2 -0.25,-0.8 -0.54,-1.19 -0.75,-1.49 -0.39,-0.59 -0.45,-0.59 -1.2,-0.59 -2.39,0 -4.88,0.73 -8.16,1.64 -1.4,0.39 -4.14,1.19 -6.64,1.19 -0.64,0 -1.34,-0.05 -1.98,-0.19 z"
           id="path3180" /><path
           style="fill:#000000;stroke-width:0"
           inkscape:connector-curvature="0"
           d="m 507.82,409.87 0,0.71 -0.02,0.68 -0.03,0.66 -0.04,0.64 -0.06,0.62 -0.07,0.6 -0.09,0.57 -0.11,0.56 -0.13,0.55 -0.15,0.53 -0.17,0.51 -0.19,0.5 -0.21,0.49 -0.24,0.48 -0.26,0.47 -0.14,0.23 -0.15,0.23 c -1.08,1.61 -3.23,3 -6.03,3 v -0.98 c 1.89,0 3.7,-1.14 4.33,-3.17 0.56,-1.88 0.59,-4.39 0.59,-7.43 0,-2.57 0,-5.15 -0.45,-7.34 -0.7,-3.17 -3.06,-3.94 -4.47,-3.94 h 0 c -1.59,0 -3.72,0.94 -4.42,3.8 -0.49,2.05 -0.49,4.91 -0.49,7.48 0,2.55 0,5.21 0.52,7.11 0.73,2.75 2.97,3.49 4.39,3.49 v 0.98 c -8.08,0 -8.08,-9.51 -8.08,-12.03 0,-2.5 0,-11.81 8.08,-11.81 8.09,0 8.09,9.31 8.09,11.81 z"
           id="path3182" /></g>    </g>
    <g
       id="g3209"
       transform="matrix(0.5,0,0,0.5,201.44016,563.9572)">
      <g
         word-spacing="normal"
         letter-spacing="normal"
         font-size-adjust="none"
         font-stretch="normal"
         font-weight="normal"
         font-variant="normal"
         font-style="normal"
         stroke-miterlimit="10.433"
         xml:space="preserve"
         transform="matrix(1.0629921,0,0,-1.0629921,-186.02362,789.27165)"
         id="content"
         style="font-style:normal;font-variant:normal;font-weight:normal;font-stretch:normal;letter-spacing:normal;word-spacing:normal;text-anchor:start;fill:none;stroke:#000000;stroke-linecap:butt;stroke-linejoin:miter;stroke-miterlimit:10.43299961;stroke-opacity:1;stroke-dasharray:none;stroke-dashoffset:0"><path
           id="path3212"
           d="m 464.49,410.84 0.24,0.39 0.24,0.38 0.23,0.38 0.21,0.37 0.21,0.37 0.2,0.36 0.18,0.35 0.18,0.35 0.18,0.35 0.16,0.34 0.15,0.33 0.15,0.33 0.14,0.33 0.14,0.32 0.24,0.62 0.23,0.61 0.2,0.6 0.19,0.57 0.16,0.56 0.16,0.54 0.14,0.53 0.13,0.52 0.13,0.5 c 1.73,6.87 3.64,12.86 6.71,16.3 0.61,0.65 1,1.09 2.6,1.09 3.44,0 3.53,-3.44 3.53,-4.12 0,-0.91 -0.25,-1.6 -0.25,-1.85 0,-0.36 0.31,-0.36 0.36,-0.36 0.8,0 2.14,0.55 3.39,1.46 0.89,0.68 1.34,1.18 1.34,3.23 0,2.69 -1.4,4.73 -4.18,4.73 -1.6,0 -5.99,-0.4 -10.86,-5.32 -3.99,-4.1 -6.33,-13.07 -7.28,-16.8 -0.9,-3.44 -1.3,-4.99 -2.79,-7.97 -0.36,-0.59 -1.65,-2.8 -2.34,-3.44 -1.34,-1.25 -1.84,-2.14 -1.84,-2.39 0,-0.09 0.09,-0.29 0.45,-0.29 0.19,0 1.23,0.2 2.53,1.04 0.84,0.5 0.95,0.6 2.09,1.8 2.5,-0.06 4.24,-0.5 7.38,-1.41 2.55,-0.68 5.08,-1.43 7.62,-1.43 4.04,0 8.13,3.03 9.72,5.23 0.99,1.34 1.3,2.58 1.3,2.73 0,0.35 -0.31,0.35 -0.36,0.35 -0.8,0 -1.98,-0.55 -2.84,-1.14 -1.35,-0.85 -1.44,-1.14 -1.74,-2 -0.25,-0.8 -0.54,-1.19 -0.75,-1.49 -0.39,-0.59 -0.45,-0.59 -1.2,-0.59 -2.39,0 -4.88,0.73 -8.16,1.64 -1.4,0.39 -4.14,1.19 -6.64,1.19 -0.64,0 -1.34,-0.05 -1.98,-0.19 z"
           inkscape:connector-curvature="0"
           style="fill:#000000;stroke-width:0" /><path
           id="path3214"
           d="m 501.51,420.92 0,0.04 0,0.04 0,0.05 0,0.04 0,0.03 0,0.04 0,0.04 0,0.03 0,0.04 -0.01,0.03 0,0.03 0,0.03 0,0.03 -0.01,0.03 0,0.03 0,0.02 -0.01,0.03 0,0.02 -0.01,0.03 0,0.02 -0.02,0.04 -0.01,0.04 -0.02,0.03 -0.02,0.03 -0.02,0.03 -0.02,0.03 -0.03,0.02 -0.03,0.02 -0.03,0.02 -0.04,0.01 -0.04,0.01 -0.05,0.02 -0.02,0 -0.02,0 -0.03,0.01 -0.03,0 -0.02,0.01 -0.03,0 -0.03,0 -0.03,0 -0.03,0 -0.04,0.01 -0.03,0 -0.04,0 -0.03,0 -0.04,0 -0.04,0 -0.04,0 -0.04,0 -0.05,0 -0.04,0 -0.05,0 c -2.23,-2.2 -5.39,-2.23 -6.82,-2.23 v -1.25 c 0.84,0 3.14,0 5.04,0.97 v -17.77 c 0,-1.16 0,-1.61 -3.48,-1.61 h -1.31 v -1.25 c 0.62,0.03 4.9,0.14 6.2,0.14 1.08,0 5.47,-0.11 6.23,-0.14 v 1.25 H 505 c -3.49,0 -3.49,0.45 -3.49,1.61 z"
           inkscape:connector-curvature="0"
           style="fill:#000000;stroke-width:0" /></g>    </g>
    <g
       id="g3320"
       transform="matrix(0.5,0,0,0.5,258.53744,635.99722)">
      <g
         word-spacing="normal"
         letter-spacing="normal"
         font-size-adjust="none"
         font-stretch="normal"
         font-weight="normal"
         font-variant="normal"
         font-style="normal"
         stroke-miterlimit="10.433"
         xml:space="preserve"
         transform="matrix(1.0629921,0,0,-1.0629921,-186.02362,789.27165)"
         id="g3322"
         style="font-style:normal;font-variant:normal;font-weight:normal;font-stretch:normal;letter-spacing:normal;word-spacing:normal;text-anchor:start;fill:none;stroke:#000000;stroke-linecap:butt;stroke-linejoin:miter;stroke-miterlimit:10.43299961;stroke-opacity:1;stroke-dasharray:none;stroke-dashoffset:0"><path
           id="path3324"
           d="m 486.91,440.12 0,0.02 0.01,0.02 0.01,0.04 0.01,0.04 0,0.05 0.01,0.04 0.01,0.05 0.01,0.05 0,0.04 0.01,0.05 0.01,0.05 0,0.04 0.01,0.05 0,0.04 0,0.04 0,0.02 0,0.02 0,0.02 0,0.02 c 0,0.1 -0.04,0.5 -0.54,0.5 -0.25,0 -0.3,-0.04 -0.75,-0.59 l -2.24,-2.8 c -1.95,3.35 -5.48,3.39 -6.48,3.39 -6.13,0 -11.55,-6.12 -11.55,-11.86 0,-2.59 1.1,-5.23 3.99,-6.57 0.29,-0.14 1.39,-0.46 2.14,-0.64 l 2.43,-0.71 c 2.6,-0.75 2.99,-0.89 3.83,-1.79 0.56,-0.69 1.11,-1.79 1.11,-3.58 0,-4.53 -3.89,-9.52 -8.33,-9.52 -3.73,0 -7.47,1.78 -7.47,6.97 0,1.14 0.25,2.5 0.4,3.05 0,0.09 0.06,0.19 0.06,0.29 0,0.55 -0.46,0.55 -0.75,0.55 -0.61,0 -0.71,-0.11 -0.91,-0.84 l -2.58,-10.42 c -0.11,-0.35 -0.15,-0.5 -0.15,-0.64 0,-0.3 0.25,-0.5 0.54,-0.5 0.35,0 0.41,0.09 0.8,0.59 0.55,0.59 1.84,2.19 2.34,2.84 1.85,-2.68 5.04,-3.43 7.63,-3.43 6.28,0 11.8,6.67 11.8,12.95 0,1.44 -0.35,3.48 -1.64,5.08 -1.24,1.54 -1.85,1.7 -6.58,3.09 -0.94,0.25 -2.49,0.69 -2.74,0.8 -1.68,0.75 -2.54,2.34 -2.54,4.37 0,4.1 3.84,8.53 8.07,8.53 4.69,0 6.08,-3.39 6.08,-7.07 0,-1.3 -0.04,-1.65 -0.25,-2.74 l -0.04,-0.7 c 0,-0.5 0.5,-0.5 0.75,-0.5 0.54,0 0.68,0.04 0.89,0.89 z"
           inkscape:connector-curvature="0"
           style="fill:#000000;stroke-width:0" /><path
           id="path3326"
           d="m 495.38,417.71 0.15,0.01 0.15,0 0.17,0 0.18,0 0.18,0.01 0.19,0 0.2,0.01 0.21,0.01 0.21,0.01 0.22,0.02 0.23,0.01 0.23,0.02 0.47,0.04 0.49,0.05 0.5,0.07 0.5,0.07 0.51,0.09 0.51,0.11 0.5,0.11 0.24,0.07 0.25,0.07 0.24,0.07 0.23,0.08 0.24,0.08 0.22,0.09 c 3.94,1.59 3.94,4.83 3.94,5.17 0,2.3 -1.84,4.23 -5.03,4.23 v -1.09 c 2,0 3.14,-1.34 3.14,-3.03 0,-5.28 -8.22,-5.28 -9.86,-5.28 h -1.05 c 2.14,8.17 7.27,8.31 7.77,8.31 v 1.09 c -5.24,0 -12.36,-5.03 -12.36,-13.84 0,-4.48 2.4,-8.72 7.12,-8.72 6.39,0 10.52,4.99 10.52,5.74 0,0.25 -0.39,0.79 -0.8,0.79 -0.2,0 -0.25,-0.06 -0.64,-0.54 -3.69,-4.69 -8.12,-4.89 -8.97,-4.89 -3.23,0 -3.78,3.53 -3.78,5.48 0,1.89 0.49,4.13 0.85,5.48 z"
           inkscape:connector-curvature="0"
           style="fill:#000000;stroke-width:0" /><path
           id="path3328"
           d="m 519.35,426.12 h 4.23 c 0.85,0 1.39,0 1.39,0.95 0,0.6 -0.44,0.6 -1.23,0.6 h -3.99 l 1.85,7.37 c 0.18,0.71 0.18,0.8 0.18,1.05 0,1.05 -0.84,1.3 -1.34,1.3 -1.25,0 -1.73,-1.05 -1.94,-1.8 l -1.95,-7.92 h -4.23 c -0.85,0 -1.39,0 -1.39,-0.94 0,-0.61 0.45,-0.61 1.25,-0.61 h 3.98 l -3.59,-14.3 c -0.05,-0.18 -0.25,-0.98 -0.25,-1.68 0,-2.5 1.65,-4.49 4.23,-4.49 5.05,0 7.58,7.42 7.58,7.67 0,0.5 -0.39,0.5 -0.75,0.5 -0.6,0 -0.6,-0.04 -0.98,-0.95 -0.91,-2.39 -2.9,-6.12 -5.74,-6.12 -1.34,0 -1.34,1.25 -1.34,2.04 0,0.35 0,1.14 0.34,2.53 z"
           inkscape:connector-curvature="0"
           style="fill:#000000;stroke-width:0" /><path
           id="path3330"
           d="m 535.27,416.01 0.41,-0.09 0.4,-0.1 0.41,-0.1 0.19,-0.06 0.2,-0.06 0.19,-0.06 0.19,-0.06 0.19,-0.07 0.18,-0.08 0.17,-0.07 0.17,-0.09 0.17,-0.09 0.16,-0.09 0.15,-0.1 0.15,-0.11 0.13,-0.12 0.14,-0.12 0.12,-0.13 0.11,-0.14 0.11,-0.15 0.09,-0.16 0.09,-0.16 0.08,-0.18 0.06,-0.19 0.06,-0.2 0.04,-0.21 0.03,-0.22 0.01,-0.11 0.01,-0.12 0.01,-0.12 0,-0.13 c 0,-1.59 -1.35,-5.57 -6.47,-5.57 -1.1,0 -3.99,0.25 -4.78,2.79 2.53,0.25 2.53,2.33 2.53,2.44 0,0.94 -0.64,1.59 -1.69,1.59 -1.14,0 -2.55,-0.84 -2.55,-3.09 0,-3.03 2.89,-4.83 6.44,-4.83 7.47,0 9.36,6.08 9.36,8.38 0,4.33 -3.89,5.22 -5.92,5.67 -1.41,0.3 -3.19,0.7 -3.19,2.84 0,1.19 1.05,4.58 5.03,4.58 1.35,0 3.19,-0.5 3.74,-2.44 -1.6,-0.2 -2,-1.54 -2,-2.04 0,-0.55 0.29,-1.39 1.5,-1.39 0.84,0 2.14,0.59 2.14,2.73 0,2.3 -2.05,4.23 -5.33,4.23 -5.83,0 -7.88,-4.78 -7.88,-7.37 0,-3.83 3.24,-4.53 4.65,-4.83 z"
           inkscape:connector-curvature="0"
           style="fill:#000000;stroke-width:0" /><path
           id="path3332"
           d="m 550.78,431.34 0.17,0.24 0.17,0.24 0.16,0.24 0.15,0.23 0.15,0.24 0.13,0.23 0.14,0.24 0.13,0.23 0.12,0.23 0.11,0.23 0.11,0.23 0.11,0.23 0.1,0.22 0.1,0.22 0.09,0.22 0.08,0.22 0.09,0.21 0.07,0.21 0.08,0.2 0.07,0.2 0.06,0.2 0.07,0.2 0.06,0.18 0.05,0.19 0.05,0.18 0.05,0.17 0.05,0.17 0.05,0.16 0.04,0.16 0.04,0.15 0.04,0.14 0.03,0.14 c 0.88,3.38 2.52,8.99 5.35,11.67 0.48,0.46 1.17,0.56 1.84,0.56 1.67,0 2.75,-1.26 2.75,-2.96 0,-0.57 -0.11,-0.94 -0.11,-1.05 0,-0.2 0.11,-0.31 0.39,-0.31 0.31,0 1.22,0.25 2.19,0.97 0.73,0.53 1.12,0.9 1.12,2.23 0,1.5 -0.9,3.42 -3.48,3.42 -3,0 -6.25,-1.95 -8.19,-4.15 -3.25,-3.66 -4.61,-8.85 -5.58,-12.65 -1.01,-3.87 -3,-6.09 -3.2,-6.31 -0.28,-0.2 -1.64,-1.36 -1.64,-1.84 0,-0.25 0.34,-0.25 0.41,-0.25 0.25,0 1.57,0.19 3.31,1.92 1.78,0 3.22,-0.25 6.14,-0.97 1.95,-0.5 3.91,-0.95 5.92,-0.95 2.33,0 4.36,1.19 5.47,2.03 2.52,1.84 2.69,3.55 2.69,3.58 0,0.19 -0.11,0.33 -0.39,0.33 -0.52,0 -2.75,-0.85 -3.21,-2.18 -0.48,-1.45 -0.9,-1.45 -1.7,-1.45 -1.89,0 -4.47,0.63 -5.55,0.91 -2.04,0.51 -4.07,1 -6.12,1 -0.42,0 -0.88,0 -1.33,-0.1 z"
           inkscape:connector-curvature="0"
           style="fill:#000000;stroke-width:0" /><path
           id="path3334"
           d="m 586.71,451.2 0,0.23 -0.02,0.23 -0.03,0.23 -0.04,0.22 -0.06,0.22 -0.06,0.21 -0.07,0.21 -0.09,0.21 -0.09,0.2 -0.11,0.2 -0.12,0.18 -0.12,0.19 -0.14,0.18 -0.15,0.17 -0.15,0.16 -0.17,0.16 -0.18,0.15 -0.18,0.14 -0.19,0.14 -0.21,0.13 -0.21,0.11 -0.22,0.11 -0.22,0.1 -0.24,0.1 -0.24,0.08 -0.26,0.07 -0.26,0.06 -0.26,0.05 -0.28,0.04 -0.28,0.03 -0.29,0.02 -0.29,0 -0.05,-0.85 c 1.36,0 2.98,-0.69 2.98,-2.91 0,-0.7 -0.29,-3.02 -1.51,-4.58 -1.16,-1.5 -2.8,-2.09 -4.02,-2.09 h 0 c -1.22,0 -2.98,0.56 -2.98,2.9 0,0.75 0.31,3.19 1.69,4.83 0.95,1.11 2.42,1.85 3.84,1.85 l 0.05,0.85 c -4.16,0 -7.88,-3.39 -7.88,-6.75 0,-2.54 2.06,-4.54 5.24,-4.54 4.15,0 7.87,3.42 7.87,6.76 z"
           inkscape:connector-curvature="0"
           style="fill:#000000;stroke-width:0" /><path
           id="path3336"
           d="m 591.97,441.8 -0.02,-0.06 -0.02,-0.06 -0.01,-0.05 -0.02,-0.05 -0.01,-0.05 -0.01,-0.04 -0.02,-0.05 -0.02,-0.04 -0.01,-0.04 -0.02,-0.03 -0.02,-0.04 -0.02,-0.03 -0.03,-0.03 -0.02,-0.02 -0.03,-0.03 -0.03,-0.02 -0.03,-0.02 -0.04,-0.02 -0.04,-0.02 -0.04,-0.02 -0.05,-0.01 -0.05,-0.01 -0.05,-0.02 -0.03,0 -0.03,-0.01 -0.03,0 -0.03,0 -0.03,-0.01 -0.04,0 -0.04,0 -0.03,-0.01 -0.04,0 -0.04,0 -0.04,0 -0.04,-0.01 -0.05,0 -0.04,0 -0.05,0 -0.05,0 -0.05,0 -0.05,0 c -0.37,0 -0.8,0 -0.8,-0.69 0,-0.28 0.22,-0.42 0.4,-0.42 0.37,0 0.82,0.06 1.22,0.06 0.4,0 0.82,0.03 1.25,0.03 0.5,0 0.96,-0.03 1.46,-0.03 0.42,0 0.96,-0.06 1.38,-0.06 0.33,0 0.62,0.17 0.62,0.69 0,0.42 -0.42,0.42 -0.78,0.42 -0.81,0 -1.36,0 -1.36,0.31 0,0.14 0.39,1.66 1.14,4.63 0.63,-0.85 1.61,-1.5 2.99,-1.5 v 0.86 c -2.07,0 -2.6,2.01 -2.6,2.22 0,0.12 0.07,0.26 0.08,0.39 l 1.08,4.23 c 0.09,0.41 0.12,0.45 0.55,0.95 1,1.1 2.26,1.79 3.45,1.79 1.03,0 2.2,-0.65 2.2,-2.54 0,-1.09 -0.58,-3.48 -1.28,-4.68 -1.05,-1.82 -2.53,-2.36 -3.48,-2.36 v -0.86 c 3.51,0 7,3.44 7,6.95 0,2.5 -1.82,4.34 -4.36,4.34 -1.94,0 -3.46,-1.28 -3.96,-1.75 -0.5,1.35 -2,1.75 -2.92,1.75 -0.84,0 -1.59,-0.4 -2.21,-1.37 -0.65,-1.05 -0.97,-2.34 -0.97,-2.47 0,-0.37 0.37,-0.37 0.53,-0.37 0.42,0 0.47,0.12 0.56,0.53 0.28,0.98 0.8,2.83 1.97,2.83 0.87,0 1.03,-0.82 1.03,-1.32 0,-0.34 -0.03,-0.45 -0.08,-0.64 z"
           inkscape:connector-curvature="0"
           style="fill:#000000;stroke-width:0" /><path
           id="path3338"
           d="m 610.44,441.8 -0.01,-0.06 -0.02,-0.06 -0.01,-0.05 -0.02,-0.05 -0.01,-0.05 -0.02,-0.04 -0.01,-0.05 -0.02,-0.04 -0.02,-0.04 -0.02,-0.03 -0.02,-0.04 -0.02,-0.03 -0.02,-0.03 -0.03,-0.02 -0.02,-0.03 -0.03,-0.02 -0.04,-0.02 -0.03,-0.02 -0.04,-0.02 -0.04,-0.02 -0.05,-0.01 -0.05,-0.01 -0.05,-0.02 -0.03,0 -0.03,-0.01 -0.03,0 -0.04,0 -0.03,-0.01 -0.03,0 -0.04,0 -0.04,-0.01 -0.03,0 -0.04,0 -0.04,0 -0.05,-0.01 -0.04,0 -0.05,0 -0.04,0 -0.05,0 -0.05,0 -0.05,0 c -0.38,0 -0.8,0 -0.8,-0.69 0,-0.28 0.22,-0.42 0.39,-0.42 0.38,0 0.83,0.06 1.22,0.06 0.41,0 0.83,0.03 1.25,0.03 0.5,0 0.97,-0.03 1.47,-0.03 0.42,0 0.95,-0.06 1.37,-0.06 0.33,0 0.63,0.17 0.63,0.69 0,0.42 -0.42,0.42 -0.78,0.42 -0.81,0 -1.36,0 -1.36,0.31 0,0.14 0.39,1.66 1.14,4.63 0.62,-0.85 1.61,-1.5 2.99,-1.5 v 0.86 c -2.07,0 -2.6,2.01 -2.6,2.22 0,0.12 0.06,0.26 0.08,0.39 l 1.08,4.23 c 0.09,0.41 0.12,0.45 0.54,0.95 1,1.1 2.27,1.79 3.46,1.79 1.03,0 2.2,-0.65 2.2,-2.54 0,-1.09 -0.58,-3.48 -1.28,-4.68 -1.05,-1.82 -2.53,-2.36 -3.48,-2.36 v -0.86 c 3.51,0 7,3.44 7,6.95 0,2.5 -1.82,4.34 -4.37,4.34 -1.93,0 -3.45,-1.28 -3.95,-1.75 -0.5,1.35 -2,1.75 -2.92,1.75 -0.84,0 -1.59,-0.4 -2.22,-1.37 -0.64,-1.05 -0.97,-2.34 -0.97,-2.47 0,-0.37 0.38,-0.37 0.53,-0.37 0.43,0 0.47,0.12 0.57,0.53 0.28,0.98 0.79,2.83 1.96,2.83 0.88,0 1.04,-0.82 1.04,-1.32 0,-0.34 -0.04,-0.45 -0.08,-0.64 z"
           inkscape:connector-curvature="0"
           style="fill:#000000;stroke-width:0" /><path
           id="path3340"
           d="m 585.93,425.09 0,0.18 0,0.21 -0.01,0.24 0,0.26 -0.01,0.28 -0.02,0.29 -0.03,0.32 -0.03,0.33 -0.04,0.34 -0.06,0.35 -0.06,0.35 -0.08,0.37 -0.1,0.37 -0.1,0.36 -0.13,0.37 -0.14,0.37 -0.16,0.36 -0.19,0.35 -0.2,0.34 -0.23,0.33 -0.25,0.32 -0.27,0.3 -0.15,0.14 -0.15,0.14 -0.16,0.13 -0.17,0.13 -0.18,0.12 -0.18,0.12 -0.19,0.11 -0.2,0.1 -0.2,0.1 -0.21,0.09 -0.23,0.08 -0.22,0.08 -0.24,0.07 -0.25,0.05 -0.25,0.06 -0.27,0.04 -0.27,0.03 -0.28,0.03 -0.29,0.01 -0.3,0 v -0.82 c 1.84,0 3.17,-0.94 3.66,-2.69 0.36,-1.27 0.36,-3.34 0.36,-4.81 0,-1.69 0,-3.71 -0.38,-5.21 -0.66,-2.42 -2.64,-2.78 -3.64,-2.78 h 0 c -0.92,0 -3.02,0.31 -3.64,2.83 -0.34,1.34 -0.38,3.13 -0.38,5.16 0,1.84 0,3.56 0.41,4.98 0.63,2.09 2.55,2.52 3.61,2.52 v 0.82 c -6.5,0 -6.5,-6.82 -6.5,-8.62 0,-1.81 0,-8.52 6.5,-8.52 6.5,0 6.5,6.71 6.5,8.52 z"
           inkscape:connector-curvature="0"
           style="fill:#000000;stroke-width:0" /></g>    </g>
    <g
       transform="matrix(0.33,0,0,0.33,234.33892,705.16941)"
       id="g3405">
      <g
         style="font-style:normal;font-variant:normal;font-weight:normal;font-stretch:normal;letter-spacing:normal;word-spacing:normal;text-anchor:start;fill:none;stroke:#000000;stroke-linecap:butt;stroke-linejoin:miter;stroke-miterlimit:10.43299961;stroke-opacity:1;stroke-dasharray:none;stroke-dashoffset:0"
         id="g3407"
         transform="matrix(1.0629921,0,0,-1.0629921,-186.02362,789.27165)"
         xml:space="preserve"
         stroke-miterlimit="10.433"
         font-style="normal"
         font-variant="normal"
         font-weight="normal"
         font-stretch="normal"
         font-size-adjust="none"
         letter-spacing="normal"
         word-spacing="normal"><path
           style="fill:#000000;stroke-width:0"
           inkscape:connector-curvature="0"
           d="m 471.16,421.95 0.2,1.28 3.39,13.66 c 0.44,1.79 0.8,1.79 2.44,1.79 h 4.28 c 3.49,0 6.03,-1.29 6.03,-4.48 0,-1 -0.75,-5.88 -2.64,-8.08 -1.75,-1.94 -4.23,-2.89 -7.22,-2.89 h -6.28 l -0.2,-1.28 h 7.72 c 6.28,0 13.01,5.08 13.01,10.91 0,4.18 -3.39,7.37 -8.82,7.37 h -14.94 c -0.8,0 -1.34,0 -1.34,-0.95 0,-0.6 0.39,-0.6 1.34,-0.6 1.55,0 2.89,0 2.89,-0.84 0,-0.16 0,-0.25 -0.2,-0.95 l -6.74,-27.05 c -0.39,-1.7 -0.69,-2.09 -4.08,-2.09 -0.79,0 -1.34,0 -1.34,-0.96 0,-0.59 0.55,-0.59 0.7,-0.59 1.89,0 3.93,0.16 5.88,0.16 1.98,0 4.03,-0.16 5.97,-0.16 0.36,0 0.95,0 0.95,0.89 0,0.66 -0.34,0.66 -1.34,0.66 -2.89,0 -2.89,0.39 -2.89,0.84 0,0.2 0,0.3 0.2,1 z"
           id="path3409" /><path
           style="fill:#000000;stroke-width:0"
           inkscape:connector-curvature="0"
           d="m 520.75,440.12 0,0.02 0.01,0.02 0.01,0.04 0.01,0.04 0,0.05 0.01,0.04 0.01,0.05 0.01,0.05 0,0.04 0.01,0.05 0.01,0.05 0,0.04 0.01,0.05 0,0.04 0,0.04 0,0.02 0,0.02 0,0.02 0,0.02 c 0,0.1 -0.04,0.5 -0.54,0.5 -0.25,0 -0.3,-0.04 -0.75,-0.59 l -2.24,-2.8 c -1.95,3.35 -5.48,3.39 -6.48,3.39 -6.13,0 -11.55,-6.12 -11.55,-11.86 0,-2.59 1.1,-5.23 3.99,-6.57 0.29,-0.14 1.39,-0.46 2.14,-0.64 l 2.43,-0.71 c 2.6,-0.75 2.99,-0.89 3.83,-1.79 0.56,-0.69 1.11,-1.79 1.11,-3.58 0,-4.53 -3.89,-9.52 -8.33,-9.52 -3.73,0 -7.47,1.78 -7.47,6.97 0,1.14 0.25,2.5 0.4,3.05 0,0.09 0.06,0.19 0.06,0.29 0,0.55 -0.46,0.55 -0.75,0.55 -0.61,0 -0.71,-0.11 -0.91,-0.84 l -2.58,-10.42 c -0.11,-0.35 -0.15,-0.5 -0.15,-0.64 0,-0.3 0.25,-0.5 0.54,-0.5 0.35,0 0.41,0.09 0.8,0.59 0.55,0.59 1.84,2.19 2.34,2.84 1.85,-2.68 5.04,-3.43 7.63,-3.43 6.28,0 11.8,6.67 11.8,12.95 0,1.44 -0.35,3.48 -1.64,5.08 -1.24,1.54 -1.85,1.7 -6.58,3.09 -0.94,0.25 -2.49,0.69 -2.74,0.8 -1.68,0.75 -2.54,2.34 -2.54,4.37 0,4.1 3.84,8.53 8.07,8.53 4.69,0 6.08,-3.39 6.08,-7.07 0,-1.3 -0.04,-1.65 -0.25,-2.74 l -0.04,-0.7 c 0,-0.5 0.5,-0.5 0.75,-0.5 0.54,0 0.68,0.04 0.89,0.89 z"
           id="path3411" /><path
           style="fill:#000000;stroke-width:0"
           inkscape:connector-curvature="0"
           d="m 532.41,439.53 0,0.01 0.01,0.02 0,0.02 0.01,0.02 0.01,0.02 0,0.02 0.01,0.02 0,0.02 0.01,0.02 0.01,0.03 0.01,0.04 0.01,0.05 0.02,0.05 0.01,0.05 0,0.03 0.01,0.02 0,0.02 0.01,0.02 0,0.03 0.01,0.02 0,0.02 0.01,0.02 0,0.01 0,0.02 0,0.02 0,0.01 0.01,0.01 0,0.01 c 0,0.44 -0.3,0.6 -0.71,0.6 -0.15,0 -0.64,-0.05 -0.79,-0.11 l -4.94,-0.39 c -0.6,-0.05 -1.14,-0.1 -1.14,-1.05 0,-0.55 0.5,-0.55 1.2,-0.55 2.39,0 2.49,-0.34 2.49,-0.84 0,-0.16 -0.16,-0.8 -0.16,-0.84 l -7.36,-29.41 c -0.06,-0.09 -0.11,-0.55 -0.11,-0.64 0,-0.55 0.45,-1.3 1.39,-1.3 1.05,0 1.71,0.85 1.84,1.39 0.21,0.75 1.8,7.24 2.16,8.63 0.24,1.09 0.55,2.14 0.8,3.23 0.44,1.8 0.48,1.89 1.39,3.49 1,1.59 3.14,4.73 6.62,4.73 2.19,0 2.3,-2.23 2.3,-3.28 0,-3.09 -2.2,-9.02 -2.89,-11.02 -0.66,-1.68 -0.8,-2.14 -0.8,-3.18 0,-2.19 1.39,-3.99 3.79,-3.99 4.62,0 6.32,7.42 6.32,7.67 0,0.5 -0.4,0.5 -0.75,0.5 -0.64,0 -0.64,-0.11 -0.84,-0.84 -0.41,-1.34 -1.75,-6.23 -4.64,-6.23 -1.05,0 -1.09,0.75 -1.09,1.45 0,1.23 0.5,2.53 0.9,3.73 0.98,2.64 3.03,8.22 3.03,11.11 0,4.08 -2.73,5.17 -5.18,5.17 -3.33,0 -5.08,-1.73 -6.63,-3.23 z"
           id="path3413" /></g>    </g>
    <g
       id="g3477"
       transform="matrix(0.33,0,0,0.33,204.57141,645.36563)">
      <g
         word-spacing="normal"
         letter-spacing="normal"
         font-size-adjust="none"
         font-stretch="normal"
         font-weight="normal"
         font-variant="normal"
         font-style="normal"
         stroke-miterlimit="10.433"
         xml:space="preserve"
         transform="matrix(1.0629921,0,0,-1.0629921,-186.02362,789.27165)"
         id="g3479"
         style="font-style:normal;font-variant:normal;font-weight:normal;font-stretch:normal;letter-spacing:normal;word-spacing:normal;text-anchor:start;fill:none;stroke:#000000;stroke-linecap:butt;stroke-linejoin:miter;stroke-miterlimit:10.43299961;stroke-opacity:1;stroke-dasharray:none;stroke-dashoffset:0"><path
           id="path3481"
           d="m 464.44,411.93 -0.19,-0.3 -0.18,-0.29 -0.19,-0.28 -0.19,-0.26 -0.18,-0.25 -0.19,-0.23 -0.19,-0.22 -0.18,-0.21 -0.19,-0.2 -0.19,-0.18 -0.18,-0.17 -0.19,-0.16 -0.19,-0.15 -0.18,-0.14 -0.19,-0.13 -0.19,-0.12 -0.19,-0.11 -0.19,-0.1 -0.19,-0.09 -0.19,-0.09 -0.19,-0.07 -0.2,-0.07 -0.19,-0.07 -0.2,-0.05 -0.19,-0.05 -0.2,-0.04 -0.2,-0.04 -0.19,-0.03 -0.41,-0.05 -0.4,-0.03 c -0.61,-0.05 -1.05,-0.05 -1.05,-1 0,-0.3 0.25,-0.55 0.64,-0.55 1.34,0 2.89,0.16 4.28,0.16 1.64,0 3.39,-0.16 4.99,-0.16 0.29,0 0.95,0 0.95,0.95 0,0.55 -0.45,0.6 -0.8,0.6 -1.15,0.09 -2.34,0.5 -2.34,1.73 0,0.61 0.3,1.16 0.69,1.84 l 3.79,6.39 h 12.5 l -0.14,1.54 h -11.42 l 9.83,16.45 1.59,-16.45 0.14,-1.54 c 0.11,-1.04 0.8,-7.82 0.8,-8.32 0,-1.5 -2.59,-1.64 -3.58,-1.64 -0.7,0 -1.2,0 -1.2,-1 0,-0.55 0.59,-0.55 0.7,-0.55 2.03,0 4.19,0.16 6.22,0.16 1.25,0 4.39,-0.16 5.64,-0.16 0.3,0 0.89,0 0.89,1 0,0.55 -0.5,0.55 -1.14,0.55 -3.09,0 -3.09,0.34 -3.25,1.79 l -3.03,31.13 c -0.11,1 -0.11,1.2 -0.95,1.2 -0.8,0 -0.99,-0.34 -1.3,-0.84 z"
           inkscape:connector-curvature="0"
           style="fill:#000000;stroke-width:0" /></g>    </g>
    <g
       transform="matrix(0.33,0,0,0.33,297.47052,656.28151)"
       id="g3551">
      <g
         style="font-style:normal;font-variant:normal;font-weight:normal;font-stretch:normal;letter-spacing:normal;word-spacing:normal;text-anchor:start;fill:none;stroke:#000000;stroke-linecap:butt;stroke-linejoin:miter;stroke-miterlimit:10.43299961;stroke-opacity:1;stroke-dasharray:none;stroke-dashoffset:0"
         id="g3553"
         transform="matrix(1.0629921,0,0,-1.0629921,-186.02362,789.27165)"
         xml:space="preserve"
         stroke-miterlimit="10.433"
         font-style="normal"
         font-variant="normal"
         font-weight="normal"
         font-stretch="normal"
         font-size-adjust="none"
         letter-spacing="normal"
         word-spacing="normal"><path
           style="fill:#000000;stroke-width:0"
           inkscape:connector-curvature="0"
           d="m 474.16,436.34 0.04,0.16 0.04,0.16 0.04,0.15 0.04,0.15 0.04,0.13 0.05,0.13 0.05,0.13 0.05,0.11 0.06,0.12 0.06,0.1 0.08,0.1 0.08,0.09 0.09,0.09 0.1,0.08 0.11,0.08 0.12,0.07 0.13,0.06 0.15,0.06 0.16,0.06 0.18,0.05 0.09,0.02 0.1,0.02 0.1,0.02 0.11,0.02 0.11,0.02 0.11,0.02 0.12,0.02 0.13,0.01 0.13,0.01 0.14,0.02 0.14,0.01 0.14,0.01 0.15,0.01 0.16,0.01 0.16,0.01 0.17,0.01 0.17,0 0.18,0.01 0.18,0 0.19,0.01 0.2,0 0.2,0 0.21,0 0.22,0 c 1.49,0 1.89,0 1.89,0.96 0,0.59 -0.54,0.59 -0.79,0.59 -1.66,0 -5.74,-0.16 -7.38,-0.16 -1.5,0 -5.14,0.16 -6.62,0.16 -0.36,0 -0.96,0 -0.96,-1 0,-0.55 0.46,-0.55 1.39,-0.55 0.11,0 1.05,0 1.91,-0.09 0.89,-0.11 1.34,-0.16 1.34,-0.8 0,-0.2 -0.06,-0.36 -0.2,-0.95 l -6.67,-26.75 c -0.5,-1.95 -0.61,-2.34 -4.55,-2.34 -0.84,0 -1.34,0 -1.34,-1 0,-0.55 0.45,-0.55 1.34,-0.55 h 23.08 c 1.19,0 1.23,0 1.55,0.84 l 3.92,10.77 c 0.2,0.55 0.2,0.64 0.2,0.7 0,0.19 -0.14,0.55 -0.59,0.55 -0.46,0 -0.5,-0.25 -0.85,-1.05 -1.7,-4.59 -3.89,-10.26 -12.51,-10.26 h -4.67 c -0.71,0 -0.8,0 -1.1,0.04 -0.5,0.05 -0.65,0.1 -0.65,0.5 0,0.14 0,0.25 0.25,1.14 z"
           id="path3555" /></g>    </g>
    <g
       id="g3631"
       transform="matrix(0.33,0,0,0.33,314.69226,637.84374)">
      <g
         word-spacing="normal"
         letter-spacing="normal"
         font-size-adjust="none"
         font-stretch="normal"
         font-weight="normal"
         font-variant="normal"
         font-style="normal"
         stroke-miterlimit="10.433"
         xml:space="preserve"
         transform="matrix(1.0629921,0,0,-1.0629921,-186.02362,789.27165)"
         id="g3633"
         style="font-style:normal;font-variant:normal;font-weight:normal;font-stretch:normal;letter-spacing:normal;word-spacing:normal;text-anchor:start;fill:none;stroke:#000000;stroke-linecap:butt;stroke-linejoin:miter;stroke-miterlimit:10.43299961;stroke-opacity:1;stroke-dasharray:none;stroke-dashoffset:0"><path
           id="path3635"
           d="m 481.38,423.14 0.47,0.11 0.48,0.12 0.48,0.14 0.48,0.15 0.49,0.16 0.48,0.18 0.48,0.19 0.47,0.2 0.47,0.22 0.47,0.23 0.46,0.24 0.45,0.25 0.43,0.27 0.43,0.28 0.42,0.29 0.4,0.3 0.39,0.31 0.37,0.32 0.36,0.34 0.33,0.35 0.32,0.35 0.29,0.37 0.28,0.38 0.25,0.39 0.22,0.4 0.2,0.41 0.17,0.42 0.15,0.43 0.11,0.44 0.08,0.45 0.05,0.46 0.02,0.47 c 0,4.28 -4.48,7.47 -11,7.47 h -14.2 c -1,0 -1.45,0 -1.45,-1 0,-0.55 0.45,-0.55 1.4,-0.55 0.1,0 1.05,0 1.89,-0.09 0.89,-0.11 1.35,-0.16 1.35,-0.8 0,-0.2 -0.05,-0.36 -0.21,-0.95 l -6.67,-26.75 c -0.5,-1.95 -0.59,-2.34 -4.53,-2.34 -0.91,0 -1.34,0 -1.34,-1 0,-0.55 0.59,-0.55 0.68,-0.55 1.41,0 4.89,0.16 6.29,0.16 1.39,0 4.93,-0.16 6.32,-0.16 0.41,0 1,0 1,1 0,0.55 -0.45,0.55 -1.39,0.55 -1.84,0 -3.25,0 -3.25,0.89 0,0.29 0.11,0.54 0.16,0.84 l 3.28,13.2 h 5.94 l -0.05,1.11 h -5.59 l 3.25,13 c 0.29,1.19 0.43,1.69 1.39,1.85 0.45,0.04 2.04,0.04 3.03,0.04 3.55,0 9.08,0 9.08,-4.93 0,-1.69 -0.8,-5.13 -2.75,-7.07 -1.28,-1.29 -3.92,-2.89 -8.41,-2.89 l 0.05,-1.11 c 4.53,0 5.42,-2.78 5.42,-4.53 0,-0.75 -0.39,-2.28 -0.69,-3.44 -0.36,-1.39 -0.79,-3.23 -0.79,-4.23 0,-5.37 5.96,-5.37 6.62,-5.37 4.23,0 5.97,5.03 5.97,5.73 0,0.59 -0.55,0.59 -0.59,0.59 -0.46,0 -0.55,-0.36 -0.65,-0.7 -1.25,-3.69 -3.39,-4.53 -4.54,-4.53 -1.64,0 -1.99,1.09 -1.99,3.05 0,1.53 0.3,4.07 0.5,5.67 0.1,0.7 0.21,1.64 0.21,2.34 0,3.83 -3.35,5.38 -4.69,5.88 z"
           inkscape:connector-curvature="0"
           style="fill:#000000;stroke-width:0" /></g>    </g>
    <path
       style="fill:none;stroke:#000000;stroke-width:1px;stroke-linecap:butt;stroke-linejoin:miter;stroke-opacity:1"
       d="M 287.60171,794.90768 344.37729,738.1321"
       id="path3676"
       inkscape:connector-curvature="0" />
    <path
       style="fill:none;stroke:#000000;stroke-width:1px;stroke-linecap:butt;stroke-linejoin:miter;stroke-opacity:1"
       d="m 296.65289,806.42737 108.61414,0"
       id="path3680"
       inkscape:connector-curvature="0" />
    <path
       style="fill:none;stroke:#000000;stroke-width:1px;stroke-linecap:butt;stroke-linejoin:miter;stroke-opacity:1"
       d="m 382.22767,738.1321 56.77558,56.77558"
       id="path3676-3"
       inkscape:connector-curvature="0" />
    <path
       style="fill:none;stroke:#000000;stroke-width:1px;stroke-linecap:butt;stroke-linejoin:miter;stroke-opacity:1"
       d="m 388.45601,731.53762 56.77558,56.77558"
       id="path3676-3-9"
       inkscape:connector-curvature="0" />
    <g
       style="stroke-width:0.1;stroke-miterlimit:10.43299961;stroke-dasharray:none"
       id="g3276-00-9-3"
       transform="matrix(0.27128178,-0.27481681,0.27481682,0.27128178,156.84176,738.8658)">
      <g
         id="g3278-91-5-0"
         transform="matrix(1.0629921,0,0,-1.0629921,-186.02362,789.27165)"
         xml:space="preserve"
         stroke-miterlimit="10.433"
         font-style="normal"
         font-variant="normal"
         font-weight="normal"
         font-stretch="normal"
         font-size-adjust="none"
         letter-spacing="normal"
         word-spacing="normal"
         style="font-style:normal;font-variant:normal;font-weight:normal;font-stretch:normal;letter-spacing:normal;word-spacing:normal;text-anchor:start;fill:none;stroke:#000000;stroke-width:0.09407408;stroke-linecap:butt;stroke-linejoin:miter;stroke-miterlimit:10.43299961;stroke-opacity:1;stroke-dasharray:none;stroke-dashoffset:0"><path
           sodipodi:nodetypes="cccccccccccccccccccccccccccccccccssccsccssccccc"
           d="m 497.07,417.65 -0.26,-0.19 -0.24,-0.2 -0.24,-0.19 -0.22,-0.2 -0.23,-0.19 -0.21,-0.19 -0.2,-0.19 -0.2,-0.19 -0.19,-0.18 -0.18,-0.18 -0.18,-0.18 -0.17,-0.18 -0.16,-0.17 -0.15,-0.17 -0.15,-0.17 -0.14,-0.16 -0.13,-0.15 -0.13,-0.16 -0.12,-0.15 -0.11,-0.14 -0.11,-0.14 -0.1,-0.13 -0.09,-0.13 -0.09,-0.12 -0.08,-0.11 -0.08,-0.11 -0.07,-0.11 -0.06,-0.09 -0.06,-0.09 -0.05,-0.08 -0.05,-0.07 -0.04,-0.07 c -2.23,-3.44 -2.64,-6.58 -2.64,-6.62 0,-0.6 0.61,-0.6 1,-0.6 0.85,0 0.89,0.1 1.1,1 1.15,4.88 4.09,9.06 9.71,11.36 0.6,0.19 0.75,0.3 0.75,0.64 0,0.35 -0.29,0.5 -0.4,0.55 -2.19,0.84 -8.22,3.34 -10.11,11.72 -0.16,0.59 -0.2,0.73 -1.05,0.73 -0.39,0 -1,0 -1,-0.59 0,-0.1 0.45,-3.24 2.55,-6.58 1,-1.48 2.44,-3.23 4.58,-4.83 l -0.0924,-0.0631 c -0.0262,-0.8567 0.0372,-1.2349 0,-1.93688 z"
           id="path3280-5-0-7"
           inkscape:connector-curvature="0"
           style="fill:#000000;stroke-width:0.09407408;stroke-miterlimit:10.43299961;stroke-dasharray:none" /></g>    </g>
    <g
       style="stroke-width:0.1;stroke-miterlimit:10.43299961;stroke-dasharray:none"
       id="g3276-00-9-8"
       transform="matrix(0.27535102,0.27073952,-0.27073953,0.27535103,444.21435,600.81144)">
      <g
         id="g3278-91-5-3"
         transform="matrix(1.0629921,0,0,-1.0629921,-186.02362,789.27165)"
         xml:space="preserve"
         stroke-miterlimit="10.433"
         font-style="normal"
         font-variant="normal"
         font-weight="normal"
         font-stretch="normal"
         font-size-adjust="none"
         letter-spacing="normal"
         word-spacing="normal"
         style="font-style:normal;font-variant:normal;font-weight:normal;font-stretch:normal;letter-spacing:normal;word-spacing:normal;text-anchor:start;fill:none;stroke:#000000;stroke-width:0.09407408;stroke-linecap:butt;stroke-linejoin:miter;stroke-miterlimit:10.43299961;stroke-opacity:1;stroke-dasharray:none;stroke-dashoffset:0"><path
           sodipodi:nodetypes="cccccccccccccccccccccccccccccccccssccsccssccccc"
           d="m 497.07,417.65 -0.26,-0.19 -0.24,-0.2 -0.24,-0.19 -0.22,-0.2 -0.23,-0.19 -0.21,-0.19 -0.2,-0.19 -0.2,-0.19 -0.19,-0.18 -0.18,-0.18 -0.18,-0.18 -0.17,-0.18 -0.16,-0.17 -0.15,-0.17 -0.15,-0.17 -0.14,-0.16 -0.13,-0.15 -0.13,-0.16 -0.12,-0.15 -0.11,-0.14 -0.11,-0.14 -0.1,-0.13 -0.09,-0.13 -0.09,-0.12 -0.08,-0.11 -0.08,-0.11 -0.07,-0.11 -0.06,-0.09 -0.06,-0.09 -0.05,-0.08 -0.05,-0.07 -0.04,-0.07 c -2.23,-3.44 -2.64,-6.58 -2.64,-6.62 0,-0.6 0.61,-0.6 1,-0.6 0.85,0 0.89,0.1 1.1,1 1.15,4.88 4.09,9.06 9.71,11.36 0.6,0.19 0.75,0.3 0.75,0.64 0,0.35 -0.29,0.5 -0.4,0.55 -2.19,0.84 -8.22,3.34 -10.11,11.72 -0.16,0.59 -0.2,0.73 -1.05,0.73 -0.39,0 -1,0 -1,-0.59 0,-0.1 0.45,-3.24 2.55,-6.58 1,-1.48 2.44,-3.23 4.58,-4.83 l -0.0924,-0.0631 c -0.0262,-0.8567 0.0372,-1.2349 0,-1.93688 z"
           id="path3280-5-0-8"
           inkscape:connector-curvature="0"
           style="fill:#000000;stroke-width:0.09407408;stroke-miterlimit:10.43299961;stroke-dasharray:none" /></g>    </g>
    <g
       style="stroke-width:0.1;stroke-miterlimit:10.43299961;stroke-dasharray:none"
       id="g3276-00-9-0"
       transform="matrix(0.38615001,-0.00249964,0.00249965,0.38615002,272.2038,674.34072)">
      <g
         id="g3278-91-5-09"
         transform="matrix(1.0629921,0,0,-1.0629921,-186.02362,789.27165)"
         xml:space="preserve"
         stroke-miterlimit="10.433"
         font-style="normal"
         font-variant="normal"
         font-weight="normal"
         font-stretch="normal"
         font-size-adjust="none"
         letter-spacing="normal"
         word-spacing="normal"
         style="font-style:normal;font-variant:normal;font-weight:normal;font-stretch:normal;letter-spacing:normal;word-spacing:normal;text-anchor:start;fill:none;stroke:#000000;stroke-width:0.09407408;stroke-linecap:butt;stroke-linejoin:miter;stroke-miterlimit:10.43299961;stroke-opacity:1;stroke-dasharray:none;stroke-dashoffset:0"><path
           sodipodi:nodetypes="cccccccccccccccccccccccccccccccccssccsccssccccc"
           d="m 497.07,417.65 -0.26,-0.19 -0.24,-0.2 -0.24,-0.19 -0.22,-0.2 -0.23,-0.19 -0.21,-0.19 -0.2,-0.19 -0.2,-0.19 -0.19,-0.18 -0.18,-0.18 -0.18,-0.18 -0.17,-0.18 -0.16,-0.17 -0.15,-0.17 -0.15,-0.17 -0.14,-0.16 -0.13,-0.15 -0.13,-0.16 -0.12,-0.15 -0.11,-0.14 -0.11,-0.14 -0.1,-0.13 -0.09,-0.13 -0.09,-0.12 -0.08,-0.11 -0.08,-0.11 -0.07,-0.11 -0.06,-0.09 -0.06,-0.09 -0.05,-0.08 -0.05,-0.07 -0.04,-0.07 c -2.23,-3.44 -2.64,-6.58 -2.64,-6.62 0,-0.6 0.61,-0.6 1,-0.6 0.85,0 0.89,0.1 1.1,1 1.15,4.88 4.09,9.06 9.71,11.36 0.6,0.19 0.75,0.3 0.75,0.64 0,0.35 -0.29,0.5 -0.4,0.55 -2.19,0.84 -8.22,3.34 -10.11,11.72 -0.16,0.59 -0.2,0.73 -1.05,0.73 -0.39,0 -1,0 -1,-0.59 0,-0.1 0.45,-3.24 2.55,-6.58 1,-1.48 2.44,-3.23 4.58,-4.83 l -0.0924,-0.0631 c -0.0262,-0.8567 0.0372,-1.2349 0,-1.93688 z"
           id="path3280-5-0-77"
           inkscape:connector-curvature="0"
           style="fill:#000000;stroke-width:0.09407408;stroke-miterlimit:10.43299961;stroke-dasharray:none" /></g>    </g>
    <g
       style="stroke-width:0.1;stroke-miterlimit:10.43299961;stroke-dasharray:none"
       id="g3276-00-9-3-9"
       transform="matrix(-0.27481681,-0.27128178,0.27128178,-0.27481682,382.96055,925.61764)">
      <g
         id="g3278-91-5-0-4"
         transform="matrix(1.0629921,0,0,-1.0629921,-186.02362,789.27165)"
         xml:space="preserve"
         stroke-miterlimit="10.433"
         font-style="normal"
         font-variant="normal"
         font-weight="normal"
         font-stretch="normal"
         font-size-adjust="none"
         letter-spacing="normal"
         word-spacing="normal"
         style="font-style:normal;font-variant:normal;font-weight:normal;font-stretch:normal;letter-spacing:normal;word-spacing:normal;text-anchor:start;fill:none;stroke:#000000;stroke-width:0.09407408;stroke-linecap:butt;stroke-linejoin:miter;stroke-miterlimit:10.43299961;stroke-opacity:1;stroke-dasharray:none;stroke-dashoffset:0"><path
           sodipodi:nodetypes="cccccccccccccccccccccccccccccccccssccsccssccccc"
           d="m 497.07,417.65 -0.26,-0.19 -0.24,-0.2 -0.24,-0.19 -0.22,-0.2 -0.23,-0.19 -0.21,-0.19 -0.2,-0.19 -0.2,-0.19 -0.19,-0.18 -0.18,-0.18 -0.18,-0.18 -0.17,-0.18 -0.16,-0.17 -0.15,-0.17 -0.15,-0.17 -0.14,-0.16 -0.13,-0.15 -0.13,-0.16 -0.12,-0.15 -0.11,-0.14 -0.11,-0.14 -0.1,-0.13 -0.09,-0.13 -0.09,-0.12 -0.08,-0.11 -0.08,-0.11 -0.07,-0.11 -0.06,-0.09 -0.06,-0.09 -0.05,-0.08 -0.05,-0.07 -0.04,-0.07 c -2.23,-3.44 -2.64,-6.58 -2.64,-6.62 0,-0.6 0.61,-0.6 1,-0.6 0.85,0 0.89,0.1 1.1,1 1.15,4.88 4.09,9.06 9.71,11.36 0.6,0.19 0.75,0.3 0.75,0.64 0,0.35 -0.29,0.5 -0.4,0.55 -2.19,0.84 -8.22,3.34 -10.11,11.72 -0.16,0.59 -0.2,0.73 -1.05,0.73 -0.39,0 -1,0 -1,-0.59 0,-0.1 0.45,-3.24 2.55,-6.58 1,-1.48 2.44,-3.23 4.58,-4.83 l -0.0924,-0.0631 c -0.0262,-0.8567 0.0372,-1.2349 0,-1.93688 z"
           id="path3280-5-0-7-3"
           inkscape:connector-curvature="0"
           style="fill:#000000;stroke-width:0.09407408;stroke-miterlimit:10.43299961;stroke-dasharray:none" /></g>    </g>
  </g>
</svg>
