<?xml version="1.0" encoding="UTF-8" standalone="no"?>
<!-- Created with Inkscape (http://www.inkscape.org/) -->

<svg
   xmlns:dc="http://purl.org/dc/elements/1.1/"
   xmlns:cc="http://creativecommons.org/ns#"
   xmlns:rdf="http://www.w3.org/1999/02/22-rdf-syntax-ns#"
   xmlns:svg="http://www.w3.org/2000/svg"
   xmlns="http://www.w3.org/2000/svg"
   xmlns:sodipodi="http://sodipodi.sourceforge.net/DTD/sodipodi-0.dtd"
   xmlns:inkscape="http://www.inkscape.org/namespaces/inkscape"
   width="259.45532"
   height="169.77663"
   id="svg22291"
   version="1.1"
   inkscape:version="0.48.3.1 r9886"
   sodipodi:docname="New document 22">
  <defs
     id="defs22293" />
  <sodipodi:namedview
     id="base"
     pagecolor="#ffffff"
     bordercolor="#666666"
     borderopacity="1.0"
     inkscape:pageopacity="0.0"
     inkscape:pageshadow="2"
     inkscape:zoom="3.1180706"
     inkscape:cx="129.72766"
     inkscape:cy="84.888313"
     inkscape:document-units="px"
     inkscape:current-layer="layer1"
     showgrid="false"
     inkscape:window-width="960"
     inkscape:window-height="1148"
     inkscape:window-x="1921"
     inkscape:window-y="24"
     inkscape:window-maximized="0" />
  <metadata
     id="metadata22296">
    <rdf:RDF>
      <cc:Work
         rdf:about="">
        <dc:format>image/svg+xml</dc:format>
        <dc:type
           rdf:resource="http://purl.org/dc/dcmitype/StillImage" />
        <dc:title></dc:title>
      </cc:Work>
    </rdf:RDF>
  </metadata>
  <g
     inkscape:label="Layer 1"
     inkscape:groupmode="layer"
     id="layer1"
     transform="translate(-373.12948,-1653.1972)">
    <g
       transform="translate(-5.4852339,1240.3534)"
       id="g21814">
      <rect
         style="fill:#8c510a;fill-opacity:1;stroke:none"
         id="rect18736-0"
         width="259.45532"
         height="116.25974"
         x="378.61472"
         y="453.16772"
         ry="35.071365" />
      <rect
         style="fill:#01665e;fill-opacity:1;stroke:none"
         id="rect18736"
         width="89.323929"
         height="51.89106"
         x="459.90414"
         y="430.99182"
         ry="15.653659" />
      <path
         inkscape:connector-curvature="0"
         id="path13684"
         style="fill:none;stroke:#231f20;stroke-width:0.91874993;stroke-linecap:round;stroke-linejoin:round;stroke-miterlimit:10;stroke-opacity:1;stroke-dasharray:none"
         d="m 505.65287,457.32216 1.86186,-4.37869" />
      <path
         inkscape:connector-curvature="0"
         id="path13688"
         style="fill:none;stroke:#231f20;stroke-width:0.91874993;stroke-linecap:butt;stroke-linejoin:miter;stroke-miterlimit:10;stroke-opacity:1;stroke-dasharray:none"
         d="m 508.89712,449.69324 -2.60123,2.73192 2.43767,1.03661 0.16356,-3.76853 z" />
      <path
         inkscape:connector-curvature="0"
         id="path13692"
         style="fill:none;stroke:#231f20;stroke-width:0.91874993;stroke-linecap:round;stroke-linejoin:round;stroke-miterlimit:10;stroke-opacity:1;stroke-dasharray:none"
         d="m 490.04626,465.63145 12.60433,-13.64766" />
      <path
         inkscape:connector-curvature="0"
         id="path13696"
         style="fill:none;stroke:#231f20;stroke-width:0.91874993;stroke-linecap:butt;stroke-linejoin:miter;stroke-miterlimit:10;stroke-opacity:1;stroke-dasharray:none"
         d="m 505.04719,449.38854 -3.36972,1.69606 1.94625,1.79763 1.42347,-3.49369 z" />
      <path
         inkscape:connector-curvature="0"
         id="path13700"
         style="fill:none;stroke:#231f20;stroke-width:0.91874993;stroke-linecap:round;stroke-linejoin:round;stroke-miterlimit:10;stroke-opacity:1;stroke-dasharray:none"
         d="m 514.17799,545.44345 3.55195,-7.20472" />
      <path
         inkscape:connector-curvature="0"
         id="path13704"
         style="fill:none;stroke:#231f20;stroke-width:0.91874993;stroke-linecap:butt;stroke-linejoin:miter;stroke-miterlimit:10;stroke-opacity:1;stroke-dasharray:none"
         d="m 519.29157,535.06991 -2.74985,2.58181 2.37569,1.17178 0.37416,-3.75359 z" />
      <path
         inkscape:connector-curvature="0"
         id="path13708"
         style="fill:none;stroke:#231f20;stroke-width:0.91874993;stroke-linecap:round;stroke-linejoin:round;stroke-miterlimit:10;stroke-opacity:1;stroke-dasharray:none"
         d="m 505.72755,545.45764 -5.59902,-7.67746" />
      <path
         inkscape:connector-curvature="0"
         id="path13712"
         style="fill:none;stroke:#231f20;stroke-width:0.91874993;stroke-linecap:butt;stroke-linejoin:miter;stroke-miterlimit:10;stroke-opacity:1;stroke-dasharray:none"
         d="m 498.04636,534.92652 1.01196,3.6341 2.14043,-1.56089 -3.15239,-2.07321 z" />
      <path
         inkscape:connector-curvature="0"
         id="path13716"
         style="fill:#d8b365;fill-opacity:1;fill-rule:nonzero;stroke:none"
         d="m 469.40599,559.14637 81.31388,0 c 1.74237,0 3.15389,-1.41226 3.15389,-3.15388 l 0,-7.25401 c 0,-1.74237 -1.41152,-3.15314 -3.15389,-3.15314 l -81.31388,0 c -1.74162,0 -3.15388,1.41077 -3.15388,3.15314 l 0,7.25401 c 0,1.74162 1.41226,3.15388 3.15388,3.15388" />
      <path
         inkscape:connector-curvature="0"
         id="path13728"
         style="fill:none;stroke:#231f20;stroke-width:0.62500006;stroke-linecap:butt;stroke-linejoin:miter;stroke-miterlimit:4;stroke-opacity:1;stroke-dasharray:none"
         d="m 469.40599,559.14637 81.31388,0 c 1.74237,0 3.15389,-1.41226 3.15389,-3.15388 l 0,-7.25401 c 0,-1.74237 -1.41152,-3.15314 -3.15389,-3.15314 l -81.31388,0 c -1.74162,0 -3.15388,1.41077 -3.15388,3.15314 l 0,7.25401 c 0,1.74162 1.41226,3.15388 3.15388,3.15388 z" />
      <path
         inkscape:connector-curvature="0"
         id="path13732"
         style="fill:none;stroke:#231f20;stroke-width:0.91874993;stroke-linecap:round;stroke-linejoin:round;stroke-miterlimit:10;stroke-opacity:1;stroke-dasharray:none"
         d="m 516.39385,519.92933 -7.95977,-7.67672" />
      <path
         inkscape:connector-curvature="0"
         id="path13736"
         style="fill:none;stroke:#231f20;stroke-width:0.91874993;stroke-linecap:butt;stroke-linejoin:miter;stroke-miterlimit:10;stroke-opacity:1;stroke-dasharray:none"
         d="m 505.89111,509.80001 1.62287,3.40557 1.83946,-1.90667 -3.46233,-1.4989 z" />
      <path
         inkscape:connector-curvature="0"
         id="path13740"
         style="fill:none;stroke:#231f20;stroke-width:0.91874993;stroke-linecap:round;stroke-linejoin:round;stroke-miterlimit:10;stroke-opacity:1;stroke-dasharray:none"
         d="M 563.27715,545.49722 512.18394,511.52669" />
      <path
         inkscape:connector-curvature="0"
         id="path13744"
         style="fill:none;stroke:#231f20;stroke-width:0.91874993;stroke-linecap:butt;stroke-linejoin:miter;stroke-miterlimit:10;stroke-opacity:1;stroke-dasharray:none"
         d="m 509.24216,509.56998 2.20764,3.05978 1.46753,-2.20689 -3.67517,-0.85289 z" />
      <path
         inkscape:connector-curvature="0"
         id="path13748"
         style="fill:none;stroke:#231f20;stroke-width:0.91874993;stroke-linecap:round;stroke-linejoin:round;stroke-miterlimit:10;stroke-opacity:1;stroke-dasharray:none"
         d="M 540.24327,521.57386 517.00252,510.82243" />
      <path
         inkscape:connector-curvature="0"
         id="path13752"
         style="fill:none;stroke:#231f20;stroke-width:0.91874993;stroke-linecap:butt;stroke-linejoin:miter;stroke-miterlimit:10;stroke-opacity:1;stroke-dasharray:none"
         d="m 513.79711,509.33846 2.64902,2.68636 1.11279,-2.40555 -3.76181,-0.28081 z" />
      <path
         inkscape:connector-curvature="0"
         id="path13756"
         style="fill:none;stroke:#231f20;stroke-width:0.91874993;stroke-linecap:round;stroke-linejoin:round;stroke-miterlimit:10;stroke-opacity:1;stroke-dasharray:none"
         d="m 493.80732,519.88452 1.32638,-6.16512" />
      <path
         inkscape:connector-curvature="0"
         id="path13760"
         style="fill:none;stroke:#231f20;stroke-width:0.91874993;stroke-linecap:butt;stroke-linejoin:miter;stroke-miterlimit:10;stroke-opacity:1;stroke-dasharray:none"
         d="m 495.87606,510.26603 -2.03811,3.17405 2.59077,0.55788 -0.55266,-3.73193 z" />
      <path
         inkscape:connector-curvature="0"
         id="path13764"
         style="fill:none;stroke:#231f20;stroke-width:0.91874993;stroke-linecap:round;stroke-linejoin:round;stroke-miterlimit:10;stroke-opacity:1;stroke-dasharray:none"
         d="m 461.21769,519.88526 1.43467,-5.84697" />
      <path
         inkscape:connector-curvature="0"
         id="path13768"
         style="fill:none;stroke:#231f20;stroke-width:0.91874993;stroke-linecap:butt;stroke-linejoin:miter;stroke-miterlimit:10;stroke-opacity:1;stroke-dasharray:none"
         d="m 463.49479,510.60808 -2.12848,3.1143 2.57285,0.63182 -0.44437,-3.74612 z" />
      <path
         inkscape:connector-curvature="0"
         id="path13772"
         style="fill:none;stroke:#231f20;stroke-width:0.91874993;stroke-linecap:round;stroke-linejoin:round;stroke-miterlimit:10;stroke-opacity:1;stroke-dasharray:none"
         d="m 437.30479,545.45241 20.98307,-32.10718" />
      <path
         inkscape:connector-curvature="0"
         id="path13776"
         style="fill:none;stroke:#231f20;stroke-width:0.91874993;stroke-linecap:butt;stroke-linejoin:miter;stroke-miterlimit:10;stroke-opacity:1;stroke-dasharray:none"
         d="m 460.21917,510.38926 -3.04111,2.23154 2.2181,1.44961 0.82301,-3.68115 z" />
      <path
         inkscape:connector-curvature="0"
         id="path13780"
         style="fill:none;stroke:#231f20;stroke-width:0.91874993;stroke-linecap:round;stroke-linejoin:round;stroke-miterlimit:10;stroke-opacity:1;stroke-dasharray:none"
         d="m 439.29436,520.01073 12.23017,-8.2809" />
      <path
         inkscape:connector-curvature="0"
         id="path13784"
         style="fill:none;stroke:#231f20;stroke-width:0.91874993;stroke-linecap:butt;stroke-linejoin:miter;stroke-miterlimit:10;stroke-opacity:1;stroke-dasharray:none"
         d="m 454.44913,509.74997 -3.66696,0.88351 1.48546,2.19345 2.1815,-3.07696 z" />
      <path
         inkscape:connector-curvature="0"
         id="path13788"
         style="fill:none;stroke:#231f20;stroke-width:0.91874993;stroke-linecap:round;stroke-linejoin:round;stroke-miterlimit:10;stroke-opacity:1;stroke-dasharray:none"
         d="M 526.39322,495.40626 450.49389,471.22151" />
      <path
         inkscape:connector-curvature="0"
         id="path13792"
         style="fill:none;stroke:#231f20;stroke-width:0.91874993;stroke-linecap:butt;stroke-linejoin:miter;stroke-miterlimit:10;stroke-opacity:1;stroke-dasharray:none"
         d="m 447.12791,470.1483 2.96344,2.33461 0.80434,-2.52356 -3.76778,0.18895 z" />
      <path
         inkscape:connector-curvature="0"
         id="path13796"
         style="fill:none;stroke:#231f20;stroke-width:0.91874993;stroke-linecap:round;stroke-linejoin:round;stroke-miterlimit:10;stroke-opacity:1;stroke-dasharray:none"
         d="M 582.51786,496.68484 451.17276,469.00341" />
      <path
         inkscape:connector-curvature="0"
         id="path13800"
         style="fill:none;stroke:#231f20;stroke-width:0.91874993;stroke-linecap:butt;stroke-linejoin:miter;stroke-miterlimit:10;stroke-opacity:1;stroke-dasharray:none"
         d="m 447.71641,468.27524 3.18376,2.02392 0.54593,-2.59226 -3.72969,0.56834 z" />
      <path
         inkscape:connector-curvature="0"
         id="path13804"
         style="fill:none;stroke:#231f20;stroke-width:0.91874993;stroke-linecap:round;stroke-linejoin:round;stroke-miterlimit:10;stroke-opacity:1;stroke-dasharray:none"
         d="M 485.09475,495.02537 445.59466,473.50383" />
      <path
         inkscape:connector-curvature="0"
         id="path13808"
         style="fill:none;stroke:#231f20;stroke-width:0.91874993;stroke-linecap:butt;stroke-linejoin:miter;stroke-miterlimit:10;stroke-opacity:1;stroke-dasharray:none"
         d="m 442.4938,471.813 2.46754,2.85366 1.26813,-2.32639 -3.73567,-0.52727 z" />
      <path
         inkscape:connector-curvature="0"
         id="path13812"
         style="fill:none;stroke:#231f20;stroke-width:0.91874993;stroke-linecap:round;stroke-linejoin:round;stroke-miterlimit:10;stroke-opacity:1;stroke-dasharray:none"
         d="M 458.84425,495.34054 438.80816,474.73611" />
      <path
         inkscape:connector-curvature="0"
         id="path13816"
         style="fill:none;stroke:#231f20;stroke-width:0.91874993;stroke-linecap:butt;stroke-linejoin:miter;stroke-miterlimit:10;stroke-opacity:1;stroke-dasharray:none"
         d="m 436.34585,472.20434 1.51309,3.4556 1.8992,-1.84692 -3.41229,-1.60868 z" />
      <path
         inkscape:connector-curvature="0"
         id="path13820"
         style="fill:none;stroke:#231f20;stroke-width:0.91874993;stroke-linecap:round;stroke-linejoin:round;stroke-miterlimit:10;stroke-opacity:1;stroke-dasharray:none"
         d="m 493.70127,434.56834 -24.14741,-8.81639" />
      <path
         inkscape:connector-curvature="0"
         id="path13824"
         style="fill:none;stroke:#231f20;stroke-width:0.91874993;stroke-linecap:butt;stroke-linejoin:miter;stroke-miterlimit:10;stroke-opacity:1;stroke-dasharray:none"
         d="m 466.23568,424.53985 2.86411,2.45634 0.9089,-2.48845 -3.77301,0.0321 z" />
      <path
         inkscape:connector-curvature="0"
         id="path13828"
         style="fill:none;stroke:#231f20;stroke-width:0.91874993;stroke-linecap:round;stroke-linejoin:round;stroke-miterlimit:10;stroke-opacity:1;stroke-dasharray:none"
         d="m 427.45777,434.56685 11.47512,-6.36079" />
      <path
         inkscape:connector-curvature="0"
         id="path13832"
         style="fill:none;stroke:#231f20;stroke-width:0.91874993;stroke-linecap:butt;stroke-linejoin:miter;stroke-miterlimit:10;stroke-opacity:1;stroke-dasharray:none"
         d="m 442.02254,426.49357 -3.73193,0.55415 1.28455,2.31668 2.44738,-2.87083 z" />
      <path
         inkscape:connector-curvature="0"
         id="path13836"
         style="fill:none;stroke:#231f20;stroke-width:0.91874993;stroke-linecap:round;stroke-linejoin:round;stroke-miterlimit:10;stroke-opacity:1;stroke-dasharray:none"
         d="m 432.5243,457.32963 14.7709,-26.09068" />
      <path
         inkscape:connector-curvature="0"
         id="path13840"
         style="fill:none;stroke:#231f20;stroke-width:0.91874993;stroke-linecap:butt;stroke-linejoin:miter;stroke-miterlimit:10;stroke-opacity:1;stroke-dasharray:none"
         d="m 449.03458,428.16498 -2.89174,2.42124 2.30473,1.30472 0.58701,-3.72596 z" />
      <path
         inkscape:connector-curvature="0"
         id="path13844"
         style="fill:#cce75e;fill-opacity:1;fill-rule:nonzero;stroke:none"
         d="m 514.2355,533.59939 18.60739,0 c 1.74237,0 3.15388,-1.41152 3.15388,-3.15314 l 0,-7.254 c 0,-1.74162 -1.41151,-3.15463 -3.15388,-3.15463 l -18.60739,0 c -1.74237,0 -3.15388,1.41301 -3.15388,3.15463 l 0,7.254 c 0,1.74162 1.41151,3.15314 3.15388,3.15314" />
      <path
         inkscape:connector-curvature="0"
         id="path13848"
         style="fill:#d8b365;fill-opacity:1;stroke:#231f20;stroke-width:0.62500006;stroke-linecap:butt;stroke-linejoin:miter;stroke-miterlimit:4;stroke-opacity:1;stroke-dasharray:none"
         d="m 514.2355,533.59939 18.60739,0 c 1.74237,0 3.15388,-1.41152 3.15388,-3.15314 l 0,-7.254 c 0,-1.74162 -1.41151,-3.15463 -3.15388,-3.15463 l -18.60739,0 c -1.74237,0 -3.15388,1.41301 -3.15388,3.15463 l 0,7.254 c 0,1.74162 1.41151,3.15314 3.15388,3.15314 z" />
      <path
         inkscape:connector-curvature="0"
         id="path13852"
         style="fill:#cce75e;fill-opacity:1;fill-rule:nonzero;stroke:none"
         d="m 561.0135,559.14637 28.70012,0 c 1.74161,0 3.15388,-1.41226 3.15388,-3.15388 l 0,-7.25401 c 0,-1.74237 -1.41227,-3.15314 -3.15388,-3.15314 l -28.70012,0 c -1.74162,0 -3.15388,1.41077 -3.15388,3.15314 l 0,7.25401 c 0,1.74162 1.41226,3.15388 3.15388,3.15388" />
      <path
         inkscape:connector-curvature="0"
         id="path13864"
         style="fill:#d8b365;fill-opacity:1;stroke:#231f20;stroke-width:0.62500006;stroke-linecap:butt;stroke-linejoin:miter;stroke-miterlimit:4;stroke-opacity:1;stroke-dasharray:none"
         d="m 561.0135,559.14637 28.70012,0 c 1.74161,0 3.15388,-1.41226 3.15388,-3.15388 l 0,-7.25401 c 0,-1.74237 -1.41227,-3.15314 -3.15388,-3.15314 l -28.70012,0 c -1.74162,0 -3.15388,1.41077 -3.15388,3.15314 l 0,7.25401 c 0,1.74162 1.41226,3.15388 3.15388,3.15388 z" />
      <path
         inkscape:connector-curvature="0"
         id="path13868"
         style="fill:#cce75e;fill-opacity:1;fill-rule:nonzero;stroke:none"
         d="m 542.74218,533.9041 18.60814,0 c 1.74087,0 3.15463,-1.41152 3.15463,-3.15388 l 0,-7.25326 c 0,-1.74237 -1.41376,-3.15389 -3.15463,-3.15389 l -18.60814,0 c -1.74237,0 -3.15388,1.41152 -3.15388,3.15389 l 0,7.25326 c 0,1.74236 1.41151,3.15388 3.15388,3.15388" />
      <path
         inkscape:connector-curvature="0"
         id="path13872"
         style="fill:#d8b365;fill-opacity:1;stroke:#231f20;stroke-width:0.62500006;stroke-linecap:butt;stroke-linejoin:miter;stroke-miterlimit:4;stroke-opacity:1;stroke-dasharray:none"
         d="m 542.74218,533.9041 18.60814,0 c 1.74087,0 3.15463,-1.41152 3.15463,-3.15388 l 0,-7.25326 c 0,-1.74237 -1.41376,-3.15389 -3.15463,-3.15389 l -18.60814,0 c -1.74237,0 -3.15388,1.41152 -3.15388,3.15389 l 0,7.25326 c 0,1.74236 1.41151,3.15388 3.15388,3.15388 z" />
      <path
         inkscape:connector-curvature="0"
         id="path13876"
         style="fill:#cce75e;fill-opacity:1;fill-rule:nonzero;stroke:none"
         d="m 480.48902,533.59939 23.6545,0 c 1.74162,0 3.15388,-1.41152 3.15388,-3.15314 l 0,-7.254 c 0,-1.74162 -1.41226,-3.15463 -3.15388,-3.15463 l -23.6545,0 c -1.74162,0 -3.15388,1.41301 -3.15388,3.15463 l 0,7.254 c 0,1.74162 1.41226,3.15314 3.15388,3.15314" />
      <path
         inkscape:connector-curvature="0"
         id="path13880"
         style="fill:#d8b365;fill-opacity:1;stroke:#231f20;stroke-width:0.62500006;stroke-linecap:butt;stroke-linejoin:miter;stroke-miterlimit:4;stroke-opacity:1;stroke-dasharray:none"
         d="m 480.48902,533.59939 23.6545,0 c 1.74162,0 3.15388,-1.41152 3.15388,-3.15314 l 0,-7.254 c 0,-1.74162 -1.41226,-3.15463 -3.15388,-3.15463 l -23.6545,0 c -1.74162,0 -3.15388,1.41301 -3.15388,3.15463 l 0,7.254 c 0,1.74162 1.41226,3.15314 3.15388,3.15314 z" />
      <path
         inkscape:connector-curvature="0"
         id="path13884"
         style="fill:#cce75e;fill-opacity:1;fill-rule:nonzero;stroke:none"
         d="m 394.51563,559.14637 64.68635,0 c 1.74237,0 3.15389,-1.41226 3.15389,-3.15388 l 0,-7.25401 c 0,-1.74237 -1.41152,-3.15314 -3.15389,-3.15314 l -64.68635,0 c -1.74162,0 -3.15388,1.41077 -3.15388,3.15314 l 0,7.25401 c 0,1.74162 1.41226,3.15388 3.15388,3.15388" />
      <path
         inkscape:connector-curvature="0"
         id="path13896"
         style="fill:#d8b365;fill-opacity:1;stroke:#231f20;stroke-width:0.62500006;stroke-linecap:butt;stroke-linejoin:miter;stroke-miterlimit:4;stroke-opacity:1;stroke-dasharray:none"
         d="m 394.51563,559.14637 64.68635,0 c 1.74237,0 3.15389,-1.41226 3.15389,-3.15388 l 0,-7.25401 c 0,-1.74237 -1.41152,-3.15314 -3.15389,-3.15314 l -64.68635,0 c -1.74162,0 -3.15388,1.41077 -3.15388,3.15314 l 0,7.25401 c 0,1.74162 1.41226,3.15388 3.15388,3.15388 z" />
      <path
         inkscape:connector-curvature="0"
         id="path13900"
         style="fill:#d8b365;fill-opacity:1;fill-rule:nonzero;stroke:none"
         d="m 447.89042,533.59267 21.76127,0 c 1.74162,0 3.15314,-1.41077 3.15314,-3.15314 l 0,-7.25326 c 0,-1.74236 -1.41152,-3.15388 -3.15314,-3.15388 l -21.76127,0 c -1.74237,0 -3.15463,1.41152 -3.15463,3.15388 l 0,7.25326 c 0,1.74237 1.41226,3.15314 3.15463,3.15314" />
      <path
         inkscape:connector-curvature="0"
         id="path13904"
         style="fill:none;stroke:#231f20;stroke-width:0.62500006;stroke-linecap:butt;stroke-linejoin:miter;stroke-miterlimit:4;stroke-opacity:1;stroke-dasharray:none"
         d="m 447.89042,533.59267 21.76127,0 c 1.74162,0 3.15314,-1.41077 3.15314,-3.15314 l 0,-7.25326 c 0,-1.74236 -1.41152,-3.15388 -3.15314,-3.15388 l -21.76127,0 c -1.74237,0 -3.15463,1.41152 -3.15463,3.15388 l 0,7.25326 c 0,1.74237 1.41226,3.15314 3.15463,3.15314 z" />
      <path
         inkscape:connector-curvature="0"
         id="path13908"
         style="fill:#cce75e;fill-opacity:1;fill-rule:nonzero;stroke:none"
         d="m 419.93565,533.59939 18.60739,0 c 1.74162,0 3.15388,-1.41152 3.15388,-3.15314 l 0,-7.254 c 0,-1.74162 -1.41226,-3.15463 -3.15388,-3.15463 l -18.60739,0 c -1.74237,0 -3.15463,1.41301 -3.15463,3.15463 l 0,7.254 c 0,1.74162 1.41226,3.15314 3.15463,3.15314" />
      <path
         inkscape:connector-curvature="0"
         id="path13912"
         style="fill:#d8b365;fill-opacity:1;stroke:#231f20;stroke-width:0.62500006;stroke-linecap:butt;stroke-linejoin:miter;stroke-miterlimit:4;stroke-opacity:1;stroke-dasharray:none"
         d="m 419.93565,533.59939 18.60739,0 c 1.74162,0 3.15388,-1.41152 3.15388,-3.15314 l 0,-7.254 c 0,-1.74162 -1.41226,-3.15463 -3.15388,-3.15463 l -18.60739,0 c -1.74237,0 -3.15463,1.41301 -3.15463,3.15463 l 0,7.254 c 0,1.74162 1.41226,3.15314 3.15463,3.15314 z" />
      <path
         inkscape:connector-curvature="0"
         id="path13916"
         style="fill:#d8b365;fill-opacity:1;fill-rule:nonzero;stroke:none"
         d="m 521.41034,509.01583 52.82662,0 c 1.74236,0 3.15463,-1.41152 3.15463,-3.15388 l 0,-7.25326 c 0,-1.74237 -1.41227,-3.15463 -3.15463,-3.15463 l -52.82662,0 c -1.74162,0 -3.15388,1.41226 -3.15388,3.15463 l 0,7.25326 c 0,1.74236 1.41226,3.15388 3.15388,3.15388" />
      <path
         inkscape:connector-curvature="0"
         id="path13920"
         style="fill:none;stroke:#231f20;stroke-width:0.62500006;stroke-linecap:butt;stroke-linejoin:miter;stroke-miterlimit:4;stroke-opacity:1;stroke-dasharray:none"
         d="m 521.41034,509.01583 52.82662,0 c 1.74236,0 3.15463,-1.41152 3.15463,-3.15388 l 0,-7.25326 c 0,-1.74237 -1.41227,-3.15463 -3.15463,-3.15463 l -52.82662,0 c -1.74162,0 -3.15388,1.41226 -3.15388,3.15463 l 0,7.25326 c 0,1.74236 1.41226,3.15388 3.15388,3.15388 z" />
      <path
         inkscape:connector-curvature="0"
         id="path13924"
         style="fill:#cce75e;fill-opacity:1;fill-rule:nonzero;stroke:none"
         d="m 585.1975,509.01583 47.30825,0 c 1.74162,0 3.15314,-1.41152 3.15314,-3.15388 l 0,-7.25326 c 0,-1.74237 -1.41152,-3.15463 -3.15314,-3.15463 l -47.30825,0 c -1.74237,0 -3.15388,1.41226 -3.15388,3.15463 l 0,7.25326 c 0,1.74236 1.41151,3.15388 3.15388,3.15388" />
      <path
         inkscape:connector-curvature="0"
         id="path13936"
         style="fill:#d8b365;fill-opacity:1;stroke:#231f20;stroke-width:0.62500006;stroke-linecap:butt;stroke-linejoin:miter;stroke-miterlimit:4;stroke-opacity:1;stroke-dasharray:none"
         d="m 585.1975,509.01583 47.30825,0 c 1.74162,0 3.15314,-1.41152 3.15314,-3.15388 l 0,-7.25326 c 0,-1.74237 -1.41152,-3.15463 -3.15314,-3.15463 l -47.30825,0 c -1.74237,0 -3.15388,1.41226 -3.15388,3.15463 l 0,7.25326 c 0,1.74236 1.41151,3.15388 3.15388,3.15388 z" />
      <path
         inkscape:connector-curvature="0"
         id="path13940"
         style="fill:#d8b365;fill-opacity:1;fill-rule:nonzero;stroke:none"
         d="m 483.32774,508.66258 28.70012,0 c 1.74161,0 3.15388,-1.41226 3.15388,-3.15388 l 0,-7.25401 c 0,-1.74162 -1.41227,-3.15388 -3.15388,-3.15388 l -28.70012,0 c -1.74162,0 -3.15388,1.41226 -3.15388,3.15388 l 0,7.25401 c 0,1.74162 1.41226,3.15388 3.15388,3.15388" />
      <path
         inkscape:connector-curvature="0"
         id="path13944"
         style="fill:none;stroke:#231f20;stroke-width:0.62500006;stroke-linecap:butt;stroke-linejoin:miter;stroke-miterlimit:4;stroke-opacity:1;stroke-dasharray:none"
         d="m 483.32774,508.66258 28.70012,0 c 1.74161,0 3.15388,-1.41226 3.15388,-3.15388 l 0,-7.25401 c 0,-1.74162 -1.41227,-3.15388 -3.15388,-3.15388 l -28.70012,0 c -1.74162,0 -3.15388,1.41226 -3.15388,3.15388 l 0,7.25401 c 0,1.74162 1.41226,3.15388 3.15388,3.15388 z" />
      <path
         inkscape:connector-curvature="0"
         id="path13948"
         style="fill:#d8b365;fill-opacity:1;fill-rule:nonzero;stroke:none"
         d="m 456.87485,509.01583 17.34599,0 c 1.74161,0 3.15388,-1.41152 3.15388,-3.15388 l 0,-7.25326 c 0,-1.74237 -1.41227,-3.15463 -3.15388,-3.15463 l -17.34599,0 c -1.74162,0 -3.15388,1.41226 -3.15388,3.15463 l 0,7.25326 c 0,1.74236 1.41226,3.15388 3.15388,3.15388" />
      <path
         inkscape:connector-curvature="0"
         id="path13952"
         style="fill:none;stroke:#231f20;stroke-width:0.62500006;stroke-linecap:butt;stroke-linejoin:miter;stroke-miterlimit:4;stroke-opacity:1;stroke-dasharray:none"
         d="m 456.87485,509.01583 17.34599,0 c 1.74161,0 3.15388,-1.41152 3.15388,-3.15388 l 0,-7.25326 c 0,-1.74237 -1.41227,-3.15463 -3.15388,-3.15463 l -17.34599,0 c -1.74162,0 -3.15388,1.41226 -3.15388,3.15463 l 0,7.25326 c 0,1.74236 1.41226,3.15388 3.15388,3.15388 z" />
      <path
         inkscape:connector-curvature="0"
         id="path13956"
         style="fill:#8ddaf7;fill-opacity:1;fill-rule:nonzero;stroke:none"
         d="m 493.49888,448.18389 37.8466,0 c 1.74162,0 3.15314,-1.41152 3.15314,-3.15388 l 0,-7.25401 c 0,-1.74162 -1.41152,-3.15388 -3.15314,-3.15388 l -37.8466,0 c -1.74162,0 -3.15388,1.41226 -3.15388,3.15388 l 0,7.25401 c 0,1.74236 1.41226,3.15388 3.15388,3.15388" />
      <path
         inkscape:connector-curvature="0"
         id="path13960"
         style="fill:#c7eae5;fill-opacity:1;stroke:#231f20;stroke-width:0.62500006;stroke-linecap:butt;stroke-linejoin:miter;stroke-miterlimit:4;stroke-opacity:1;stroke-dasharray:none"
         d="m 493.49888,448.18389 37.8466,0 c 1.74162,0 3.15314,-1.41152 3.15314,-3.15388 l 0,-7.25401 c 0,-1.74162 -1.41152,-3.15388 -3.15314,-3.15388 l -37.8466,0 c -1.74162,0 -3.15388,1.41226 -3.15388,3.15388 l 0,7.25401 c 0,1.74236 1.41226,3.15388 3.15388,3.15388 z" />
      <path
         inkscape:connector-curvature="0"
         id="path13964"
         style="fill:#f36274;fill-opacity:1;fill-rule:nonzero;stroke:none"
         d="m 403.29841,448.18389 23.6545,0 c 1.74162,0 3.15388,-1.41152 3.15388,-3.15388 l 0,-7.25401 c 0,-1.74162 -1.41226,-3.15388 -3.15388,-3.15388 l -23.6545,0 c -1.74162,0 -3.15388,1.41226 -3.15388,3.15388 l 0,7.25401 c 0,1.74236 1.41226,3.15388 3.15388,3.15388" />
      <path
         inkscape:connector-curvature="0"
         id="path13968"
         style="fill:#f6e8c3;fill-opacity:1;stroke:#231f20;stroke-width:0.62500006;stroke-linecap:butt;stroke-linejoin:miter;stroke-miterlimit:4;stroke-opacity:1;stroke-dasharray:none"
         d="m 403.29841,448.18389 23.6545,0 c 1.74162,0 3.15388,-1.41152 3.15388,-3.15388 l 0,-7.25401 c 0,-1.74162 -1.41226,-3.15388 -3.15388,-3.15388 l -23.6545,0 c -1.74162,0 -3.15388,1.41226 -3.15388,3.15388 l 0,7.25401 c 0,1.74236 1.41226,3.15388 3.15388,3.15388 z" />
      <path
         inkscape:connector-curvature="0"
         id="path13972"
         style="fill:#d8b365;fill-opacity:1;fill-rule:nonzero;stroke:none"
         d="m 415.46286,471.02882 28.69937,0 c 1.74236,0 3.15463,-1.41226 3.15463,-3.15388 l 0,-7.25401 c 0,-1.74162 -1.41227,-3.15388 -3.15463,-3.15388 l -28.69937,0 c -1.74162,0 -3.15388,1.41226 -3.15388,3.15388 l 0,7.25401 c 0,1.74162 1.41226,3.15388 3.15388,3.15388" />
      <path
         inkscape:connector-curvature="0"
         id="path13976"
         style="fill:none;stroke:#231f20;stroke-width:0.62500006;stroke-linecap:butt;stroke-linejoin:miter;stroke-miterlimit:4;stroke-opacity:1;stroke-dasharray:none"
         d="m 415.46286,471.02882 28.69937,0 c 1.74236,0 3.15463,-1.41226 3.15463,-3.15388 l 0,-7.25401 c 0,-1.74162 -1.41227,-3.15388 -3.15463,-3.15388 l -28.69937,0 c -1.74162,0 -3.15388,1.41226 -3.15388,3.15388 l 0,7.25401 c 0,1.74162 1.41226,3.15388 3.15388,3.15388 z" />
      <path
         inkscape:connector-curvature="0"
         id="path13980"
         style="fill:#d0d0d0;fill-opacity:1;fill-rule:nonzero;stroke:none"
         d="m 445.79705,426.73703 15.76942,0 c 1.74162,0 3.15313,-1.41152 3.15313,-3.15314 l 0,-7.254 c 0,-1.74237 -1.41151,-3.15389 -3.15313,-3.15389 l -15.76942,0 c -1.74237,0 -3.15388,1.41152 -3.15388,3.15389 l 0,7.254 c 0,1.74162 1.41151,3.15314 3.15388,3.15314" />
      <path
         inkscape:connector-curvature="0"
         id="path13992"
         style="fill:none;stroke:#231f20;stroke-width:0.62500006;stroke-linecap:butt;stroke-linejoin:miter;stroke-miterlimit:4;stroke-opacity:1;stroke-dasharray:none"
         d="m 445.79705,426.73703 15.76942,0 c 1.74162,0 3.15313,-1.41152 3.15313,-3.15314 l 0,-7.254 c 0,-1.74237 -1.41151,-3.15389 -3.15313,-3.15389 l -15.76942,0 c -1.74237,0 -3.15388,1.41152 -3.15388,3.15389 l 0,7.254 c 0,1.74162 1.41151,3.15314 3.15388,3.15314 z" />
      <path
         inkscape:connector-curvature="0"
         id="path13996"
         style="fill:#8ddaf7;fill-opacity:1;fill-rule:nonzero;stroke:none"
         d="m 511.39678,480.54873 15.76942,0 c 1.74236,0 3.15388,-1.41226 3.15388,-3.15388 l 0,-3.34956 c 0,-1.74162 -1.41152,-3.15388 -3.15388,-3.15388 l -15.76942,0 c -1.74162,0 -3.15388,1.41226 -3.15388,3.15388 l 0,3.34956 c 0,1.74162 1.41226,3.15388 3.15388,3.15388" />
      <path
         inkscape:connector-curvature="0"
         id="path14000"
         style="fill:#c7eae5;fill-opacity:1;stroke:#231f20;stroke-width:0.62500006;stroke-linecap:butt;stroke-linejoin:miter;stroke-miterlimit:4;stroke-opacity:1;stroke-dasharray:none"
         d="m 511.39678,480.54873 15.76942,0 c 1.74236,0 3.15388,-1.41226 3.15388,-3.15388 l 0,-3.34956 c 0,-1.74162 -1.41152,-3.15388 -3.15388,-3.15388 l -15.76942,0 c -1.74162,0 -3.15388,1.41226 -3.15388,3.15388 l 0,3.34956 c 0,1.74162 1.41226,3.15388 3.15388,3.15388 z" />
      <path
         inkscape:connector-curvature="0"
         id="path14004"
         style="fill:#8ddaf7;fill-opacity:1;fill-rule:nonzero;stroke:none"
         d="m 499.25474,467.24386 8.51541,0 c 1.74162,0 3.15388,-1.41152 3.15388,-3.15388 l 0,-3.46905 c 0,-1.74162 -1.41226,-3.15388 -3.15388,-3.15388 l -8.51541,0 c -1.74237,0 -3.15388,1.41226 -3.15388,3.15388 l 0,3.46905 c 0,1.74236 1.41151,3.15388 3.15388,3.15388" />
      <path
         inkscape:connector-curvature="0"
         id="path14008"
         style="fill:#c7eae5;fill-opacity:1;stroke:#231f20;stroke-width:0.62500006;stroke-linecap:butt;stroke-linejoin:miter;stroke-miterlimit:4;stroke-opacity:1;stroke-dasharray:none"
         d="m 499.25474,467.24386 8.51541,0 c 1.74162,0 3.15388,-1.41152 3.15388,-3.15388 l 0,-3.46905 c 0,-1.74162 -1.41226,-3.15388 -3.15388,-3.15388 l -8.51541,0 c -1.74237,0 -3.15388,1.41226 -3.15388,3.15388 l 0,3.46905 c 0,1.74236 1.41151,3.15388 3.15388,3.15388 z" />
      <path
         inkscape:connector-curvature="0"
         id="path14012"
         style="fill:#8ddaf7;fill-opacity:1;fill-rule:nonzero;stroke:none"
         d="m 468.4254,463.34389 15.76942,0 c 1.74162,0 3.15388,-1.41226 3.15388,-3.15314 l 0,-3.46979 c 0,-1.74162 -1.41226,-3.15388 -3.15388,-3.15388 l -15.76942,0 c -1.74162,0 -3.15314,1.41226 -3.15314,3.15388 l 0,3.46979 c 0,1.74088 1.41152,3.15314 3.15314,3.15314" />
      <path
         inkscape:connector-curvature="0"
         id="path14016"
         style="fill:#c7eae5;fill-opacity:1;stroke:#231f20;stroke-width:0.62500006;stroke-linecap:butt;stroke-linejoin:miter;stroke-miterlimit:4;stroke-opacity:1;stroke-dasharray:none"
         d="m 468.4254,463.34389 15.76942,0 c 1.74162,0 3.15388,-1.41226 3.15388,-3.15314 l 0,-3.46979 c 0,-1.74162 -1.41226,-3.15388 -3.15388,-3.15388 l -15.76942,0 c -1.74162,0 -3.15314,1.41226 -3.15314,3.15388 l 0,3.46979 c 0,1.74088 1.41152,3.15314 3.15314,3.15314 z" />
      <path
         inkscape:connector-curvature="0"
         id="path14020"
         style="fill:#8ddaf7;fill-opacity:1;fill-rule:nonzero;stroke:none"
         d="m 480.48902,475.28503 10.09273,0 c 1.74236,0 3.15388,-1.41226 3.15388,-3.15388 l 0,-3.22932 c 0,-1.74236 -1.41152,-3.15463 -3.15388,-3.15463 l -10.09273,0 c -1.74162,0 -3.15388,1.41227 -3.15388,3.15463 l 0,3.22932 c 0,1.74162 1.41226,3.15388 3.15388,3.15388" />
      <path
         inkscape:connector-curvature="0"
         id="path14024"
         style="fill:#c7eae5;fill-opacity:1;stroke:#231f20;stroke-width:0.62500006;stroke-linecap:butt;stroke-linejoin:miter;stroke-miterlimit:4;stroke-opacity:1;stroke-dasharray:none"
         d="m 480.48902,475.28503 10.09273,0 c 1.74236,0 3.15388,-1.41226 3.15388,-3.15388 l 0,-3.22932 c 0,-1.74236 -1.41152,-3.15463 -3.15388,-3.15463 l -10.09273,0 c -1.74162,0 -3.15388,1.41227 -3.15388,3.15463 l 0,3.22932 c 0,1.74162 1.41226,3.15388 3.15388,3.15388 z" />
      <path
         inkscape:connector-curvature="0"
         id="path14028"
         style="fill:#8ddaf7;fill-opacity:1;fill-rule:nonzero;stroke:none"
         d="m 468.4254,446.23166 10.09273,0 c 1.74161,0 3.15388,-1.41226 3.15388,-3.15388 l 0,-3.34956 c 0,-1.74162 -1.41227,-3.15388 -3.15388,-3.15388 l -10.09273,0 c -1.74162,0 -3.15314,1.41226 -3.15314,3.15388 l 0,3.34956 c 0,1.74162 1.41152,3.15388 3.15314,3.15388" />
      <path
         inkscape:connector-curvature="0"
         id="path14032"
         style="fill:#c7eae5;fill-opacity:1;stroke:#231f20;stroke-width:0.62500006;stroke-linecap:butt;stroke-linejoin:miter;stroke-miterlimit:4;stroke-opacity:1;stroke-dasharray:none"
         d="m 468.4254,446.23166 10.09273,0 c 1.74161,0 3.15388,-1.41226 3.15388,-3.15388 l 0,-3.34956 c 0,-1.74162 -1.41227,-3.15388 -3.15388,-3.15388 l -10.09273,0 c -1.74162,0 -3.15314,1.41226 -3.15314,3.15388 l 0,3.34956 c 0,1.74162 1.41152,3.15388 3.15314,3.15388 z" />
      <path
         inkscape:connector-curvature="0"
         id="path14036"
         style="fill:#8ddaf7;fill-opacity:1;fill-rule:nonzero;stroke:none"
         d="m 523.69715,469.45225 17.34673,0 c 1.74087,0 3.15389,-1.41226 3.15389,-3.15388 l 0,-5.67744 c 0,-1.74162 -1.41302,-3.15389 -3.15389,-3.15389 l -17.34673,0 c -1.74237,0 -3.15388,1.41227 -3.15388,3.15389 l 0,5.67744 c 0,1.74162 1.41151,3.15388 3.15388,3.15388" />
      <path
         inkscape:connector-curvature="0"
         id="path14040"
         style="fill:#c7eae5;fill-opacity:1;stroke:#231f20;stroke-width:0.62500006;stroke-linecap:butt;stroke-linejoin:miter;stroke-miterlimit:4;stroke-opacity:1;stroke-dasharray:none"
         d="m 523.69715,469.45225 17.34673,0 c 1.74087,0 3.15389,-1.41226 3.15389,-3.15388 l 0,-5.67744 c 0,-1.74162 -1.41302,-3.15389 -3.15389,-3.15389 l -17.34673,0 c -1.74237,0 -3.15388,1.41227 -3.15388,3.15389 l 0,5.67744 c 0,1.74162 1.41151,3.15388 3.15388,3.15388 z" />
      <path
         inkscape:connector-curvature="0"
         id="path14044"
         style="fill:none;stroke:#231f20;stroke-width:0.91874993;stroke-linecap:round;stroke-linejoin:round;stroke-miterlimit:10;stroke-opacity:1;stroke-dasharray:none"
         d="m 485.91328,453.92108 7.47208,-3.52879" />
      <path
         inkscape:connector-curvature="0"
         id="path14048"
         style="fill:none;stroke:#231f20;stroke-width:0.91874993;stroke-linecap:butt;stroke-linejoin:miter;stroke-miterlimit:10;stroke-opacity:1;stroke-dasharray:none"
         d="m 496.58032,448.88368 -3.76031,0.31143 1.13145,2.3951 2.62886,-2.70653 z" />
      <path
         inkscape:connector-curvature="0"
         id="path14052"
         style="fill:none;stroke:#231f20;stroke-width:0.91874993;stroke-linecap:round;stroke-linejoin:round;stroke-miterlimit:10;stroke-opacity:1;stroke-dasharray:none"
         d="m 518.28484,470.73681 -3.49295,-17.48116" />
      <path
         inkscape:connector-curvature="0"
         id="path14056"
         style="fill:none;stroke:#231f20;stroke-width:0.91874993;stroke-linecap:butt;stroke-linejoin:miter;stroke-miterlimit:10;stroke-opacity:1;stroke-dasharray:none"
         d="m 514.09883,449.79183 -0.60643,3.72372 2.59749,-0.51905 -1.99106,-3.20467 z" />
      <path
         inkscape:connector-curvature="0"
         id="path14060"
         style="fill:none;stroke:#231f20;stroke-width:0.91874993;stroke-linecap:round;stroke-linejoin:round;stroke-miterlimit:10;stroke-opacity:1;stroke-dasharray:none"
         d="m 468.90934,436.45858 -5.4631,-5.92016" />
      <path
         inkscape:connector-curvature="0"
         id="path14064"
         style="fill:none;stroke:#231f20;stroke-width:0.91874993;stroke-linecap:butt;stroke-linejoin:miter;stroke-miterlimit:10;stroke-opacity:1;stroke-dasharray:none"
         d="m 461.05115,427.94243 1.42197,3.49444 1.947,-1.79614 -3.36897,-1.6983 z" />
      <path
         inkscape:connector-curvature="0"
         id="path14068"
         style="fill:none;stroke:#231f20;stroke-width:0.91874993;stroke-linecap:round;stroke-linejoin:round;stroke-miterlimit:10;stroke-opacity:1;stroke-dasharray:none"
         d="m 526.84431,457.34979 -4.82007,-5.33016" />
      <path
         inkscape:connector-curvature="0"
         id="path14072"
         style="fill:none;stroke:#231f20;stroke-width:0.91874993;stroke-linecap:butt;stroke-linejoin:miter;stroke-miterlimit:10;stroke-opacity:1;stroke-dasharray:none"
         d="m 519.65453,449.40048 1.38687,3.50788 1.96567,-1.77746 -3.35254,-1.73042 z" />
      <path
         inkscape:connector-curvature="0"
         id="path14076"
         style="fill:#d8b365;fill-opacity:1;fill-rule:nonzero;stroke:none"
         d="m 401.72184,508.66258 45.88852,0 c 1.74162,0 3.15388,-1.41226 3.15388,-3.15388 l 0,-7.25401 c 0,-1.74162 -1.41226,-3.15388 -3.15388,-3.15388 l -45.88852,0 c -1.74162,0 -3.15388,1.41226 -3.15388,3.15388 l 0,7.25401 c 0,1.74162 1.41226,3.15388 3.15388,3.15388" />
      <path
         inkscape:connector-curvature="0"
         id="path14080"
         style="fill:none;stroke:#231f20;stroke-width:0.62500006;stroke-linecap:butt;stroke-linejoin:miter;stroke-miterlimit:4;stroke-opacity:1;stroke-dasharray:none"
         d="m 401.72184,508.66258 45.88852,0 c 1.74162,0 3.15388,-1.41226 3.15388,-3.15388 l 0,-7.25401 c 0,-1.74162 -1.41226,-3.15388 -3.15388,-3.15388 l -45.88852,0 c -1.74162,0 -3.15388,1.41226 -3.15388,3.15388 l 0,7.25401 c 0,1.74162 1.41226,3.15388 3.15388,3.15388 z" />
      <path
         inkscape:connector-curvature="0"
         id="path14084"
         style="fill:none;stroke:#231f20;stroke-width:0.91874993;stroke-linecap:round;stroke-linejoin:round;stroke-miterlimit:10;stroke-opacity:1;stroke-dasharray:none"
         d="m 425.39277,494.94397 1.96642,-18.77095" />
      <path
         inkscape:connector-curvature="0"
         id="path14088"
         style="fill:none;stroke:#231f20;stroke-width:0.91874993;stroke-linecap:butt;stroke-linejoin:miter;stroke-miterlimit:10;stroke-opacity:1;stroke-dasharray:none"
         d="m 427.72738,472.65991 -1.68561,3.37495 2.63484,0.27558 -0.94923,-3.65053 z" />
      <path
         d="m 559.77151,489.5802 75.57297,0 0,-70.87911 -75.57297,0 0,70.87911 z"
         style="fill:#8ddaf7;fill-opacity:1;fill-rule:nonzero;stroke:none"
         id="path14090"
         inkscape:connector-curvature="0" />
      <path
         inkscape:connector-curvature="0"
         id="path14102"
         style="fill:#c7eae5;fill-opacity:1;stroke:#231f20;stroke-width:0.69499999;stroke-linecap:butt;stroke-linejoin:miter;stroke-miterlimit:4;stroke-opacity:1;stroke-dasharray:none"
         d="m 559.77151,489.5802 75.57296,0 0,-70.87911 -75.57296,0 0,70.87911 z" />
      <path
         d="m 559.77151,418.70109 75.57297,0 0,-5.52508 -75.57297,0 0,5.52508 z"
         style="fill:#8ddaf7;fill-opacity:1;fill-rule:nonzero;stroke:none"
         id="path14104"
         inkscape:connector-curvature="0" />
      <path
         inkscape:connector-curvature="0"
         id="path14116"
         style="fill:#c7eae5;fill-opacity:1;stroke:#231f20;stroke-width:0.67249995;stroke-linecap:butt;stroke-linejoin:miter;stroke-miterlimit:4;stroke-opacity:1;stroke-dasharray:none"
         d="m 559.77151,418.70109 75.57296,0 0,-5.52508 -75.57296,0 0,5.52508 z" />
      <text
         style="font-size:8.96201801px"
         y="421.43369"
         x="448.14697"
         id="text14118">
        <tspan
           style="font-size:4.3905673px;font-variant:normal;font-weight:normal;font-stretch:normal;writing-mode:lr-tb;fill:#231f20;fill-opacity:1;fill-rule:nonzero;stroke:none;font-family:'MAKAH J+ Helvetica LT Std';-inkscape-font-specification:HelveticaLTStd-Roman"
           x="448.14697 451.07547 453.51663 454.73721 455.71191 457.02029"
           y="421.43369"
           sodipodi:role="line"
           id="tspan14120">Entity</tspan>
        <tspan
           style="font-size:4.3905673px;font-variant:normal;font-weight:normal;font-stretch:normal;writing-mode:lr-tb;fill:#231f20;fill-opacity:1;fill-rule:nonzero;stroke:none;font-family:'MAKAH J+ Helvetica LT Std';-inkscape-font-specification:HelveticaLTStd-Roman"
           x="406.89319 409.64609 412.08722 413.3078 415.74896 418.85309 421.16254"
           y="442.88162"
           sodipodi:role="line"
           id="tspan14122">Pathway</tspan>
        <tspan
           style="font-size:4.3905673px;font-variant:normal;font-weight:normal;font-stretch:normal;writing-mode:lr-tb;fill:#231f20;fill-opacity:1;fill-rule:nonzero;stroke:none;font-family:'MAKAH J+ Helvetica LT Std';-inkscape-font-specification:HelveticaLTStd-Roman"
           x="419.62582 420.84641 423.28757 424.42035 426.86148 428.32355 430.76471 432.95999 434.18057 435.15527 437.59644"
           y="465.72574"
           sodipodi:role="line"
           id="tspan14124">Interaction</tspan>
        <tspan
           style="font-size:4.3905673px;font-variant:normal;font-weight:normal;font-stretch:normal;writing-mode:lr-tb;fill:#231f20;fill-opacity:1;fill-rule:nonzero;stroke:none;font-family:'MAKAH J+ Helvetica LT Std';-inkscape-font-specification:HelveticaLTStd-Roman"
           x="407.20053 409.35629 411.79745 415.4548 417.89594 418.87067 421.31183 422.44458 424.88574 427.96793 430.40906 432.85022 435.0455 436.26608 437.24078 439.68195"
           y="503.3573"
           sodipodi:role="line"
           id="tspan14126">TemplateReaction</tspan>
        <tspan
           style="font-size:4.3905673px;font-variant:normal;font-weight:normal;font-stretch:normal;writing-mode:lr-tb;fill:#231f20;fill-opacity:1;fill-rule:nonzero;stroke:none;font-family:'MAKAH J+ Helvetica LT Std';-inkscape-font-specification:HelveticaLTStd-Roman"
           x="458.54382 461.64795 464.08911 466.53027 467.75085 469.12509 471.56625"
           y="503.71292"
           sodipodi:role="line"
           id="tspan14128">Control</tspan>
        <tspan
           style="font-size:4.3905673px;font-variant:normal;font-weight:normal;font-stretch:normal;writing-mode:lr-tb;fill:#231f20;fill-opacity:1;fill-rule:nonzero;stroke:none;font-family:'MAKAH J+ Helvetica LT Std';-inkscape-font-specification:HelveticaLTStd-Roman"
           x="420.49518 423.55539 425.99655 427.18201 429.58804 430.52762 432.68777 434.84793 435.78751"
           y="528.29572"
           sodipodi:role="line"
           id="tspan14130">Catalysis</tspan>
        <tspan
           style="font-size:4.3905673px;font-variant:normal;font-weight:normal;font-stretch:normal;writing-mode:lr-tb;fill:#231f20;fill-opacity:1;fill-rule:nonzero;stroke:none;font-family:'MAKAH J+ Helvetica LT Std';-inkscape-font-specification:HelveticaLTStd-Roman"
           x="398.94626 401.10202 403.54318 407.20053 409.64169 410.61639 413.05756 414.19031 416.63147 419.71365 422.15482 424.59595 426.79123 428.01181 428.98651 431.42767 433.86884 436.95102 439.39218 441.83331 444.27448 445.24918 447.69034 448.91092 449.88562 452.32678"
           y="553.84442"
           sodipodi:role="line"
           id="tspan14132">TemplateReactionRegulation</tspan>
        <tspan
           style="font-size:4.3905673px;font-variant:normal;font-weight:normal;font-stretch:normal;writing-mode:lr-tb;fill:#231f20;fill-opacity:1;fill-rule:nonzero;stroke:none;font-family:'MAKAH J+ Helvetica LT Std';-inkscape-font-specification:HelveticaLTStd-Roman"
           x="448.03281 451.69016 454.13132 456.57245 459.01361 459.98831 462.42947 463.65005 464.62476 467.06592"
           y="528.29132"
           sodipodi:role="line"
           id="tspan14134">Modulation</tspan>
        <tspan
           style="font-size:4.3905673px;font-variant:normal;font-weight:normal;font-stretch:normal;writing-mode:lr-tb;fill:#231f20;fill-opacity:1;fill-rule:nonzero;stroke:none;font-family:'MAKAH J+ Helvetica LT Std';-inkscape-font-specification:HelveticaLTStd-Roman"
           x="514.34357 516.49933 517.91748 520.35864 522.7998 524.99506 527.43622 529.87738 531.51508"
           y="528.30011"
           sodipodi:role="line"
           id="tspan14136">Transport</tspan>
        <tspan
           style="font-size:4.3905673px;font-variant:normal;font-weight:normal;font-stretch:normal;writing-mode:lr-tb;fill:#231f20;fill-opacity:1;fill-rule:nonzero;stroke:none;font-family:'MAKAH J+ Helvetica LT Std';-inkscape-font-specification:HelveticaLTStd-Roman"
           x="563.44763 566.60889 569.04126 571.47357 572.92688 575.35925 577.79163 580.224 581.43579 582.40173 584.83411 476.06659 478.22235 479.6405 482.08167 484.5228 486.71811 489.15924 491.6004 493.2381 494.45865 498.51556 499.49026 500.71085 503.15198 506.08051 507.05521 509.49637 511.69165 514.13281 516.57397 520.23132 521.20599 523.40131 525.84247 526.81714 529.89935 532.34045 534.78162 536.97693 538.19751 539.17218 541.61334"
           y="553.84882"
           sodipodi:role="line"
           id="tspan14138">DegradationTransportWithBiochemicalReaction</tspan>
        <tspan
           style="font-size:4.3905673px;font-variant:normal;font-weight:normal;font-stretch:normal;writing-mode:lr-tb;fill:#231f20;fill-opacity:1;fill-rule:nonzero;stroke:none;font-family:'MAKAH J+ Helvetica LT Std';-inkscape-font-specification:HelveticaLTStd-Roman"
           x="480.4791 483.40759 484.38232 486.82346 489.01874 491.4599 493.90106 497.55841 498.53311 500.72839 503.16956"
           y="525.23108"
           sodipodi:role="line"
           id="tspan14140">Biochemical</tspan>
        <tspan
           style="font-size:4.3905673px;font-variant:normal;font-weight:normal;font-stretch:normal;writing-mode:lr-tb;fill:#231f20;fill-opacity:1;fill-rule:nonzero;stroke:none;font-family:'MAKAH J+ Helvetica LT Std';-inkscape-font-specification:HelveticaLTStd-Roman"
           x="483.69299 486.77518 489.21634 491.65747 493.85275 495.07333 496.04807 498.4892"
           y="530.49976"
           sodipodi:role="line"
           id="tspan14142">Reaction</tspan>
        <tspan
           style="font-size:4.3905673px;font-variant:normal;font-weight:normal;font-stretch:normal;writing-mode:lr-tb;fill:#231f20;fill-opacity:1;fill-rule:nonzero;stroke:none;font-family:'MAKAH J+ Helvetica LT Std';-inkscape-font-specification:HelveticaLTStd-Roman"
           x="543.47937 546.5835 549.02466 552.68201 555.12311 556.09784 558.40729"
           y="525.53406"
           sodipodi:role="line"
           id="tspan14144">Complex</tspan>
        <tspan
           style="font-size:4.3905673px;font-variant:normal;font-weight:normal;font-stretch:normal;writing-mode:lr-tb;fill:#231f20;fill-opacity:1;fill-rule:nonzero;stroke:none;font-family:'MAKAH J+ Helvetica LT Std';-inkscape-font-specification:HelveticaLTStd-Roman"
           x="542.61438 545.54291 547.73822 549.93347 552.37463 556.03198 558.38531 559.27222"
           y="530.80273"
           sodipodi:role="line"
           id="tspan14146">Assembly</tspan>
        <tspan
           style="font-size:4.3905673px;font-variant:normal;font-weight:normal;font-stretch:normal;writing-mode:lr-tb;fill:#231f20;fill-opacity:1;fill-rule:nonzero;stroke:none;font-family:'MAKAH J+ Helvetica LT Std';-inkscape-font-specification:HelveticaLTStd-Roman"
           x="486.74884 489.85297 492.29413 494.64746 496.73297 499.17413 500.54837 502.74365 503.71838 506.15952"
           y="503.36606"
           sodipodi:role="line"
           id="tspan14148">Conversion</tspan>
        <tspan
           style="font-size:4.3905673px;font-variant:normal;font-weight:normal;font-stretch:normal;writing-mode:lr-tb;fill:#231f20;fill-opacity:1;fill-rule:nonzero;stroke:none;font-family:'MAKAH J+ Helvetica LT Std';-inkscape-font-specification:HelveticaLTStd-Roman"
           x="528.12555 531.7829 534.22406 535.19873 537.63989 539.83521 542.27631 543.25104 545.6922 547.15424 548.37482 550.81598 551.94873 554.38989 555.85199 558.29315 560.4884 561.70898 562.68372 565.08093 591.10382 594.51971 596.96082 599.40198 601.84314 603.06372 604.03845 606.2337 607.45428 609.89545 611.0282 613.46936 614.93146 617.37262 619.56787 620.78845 621.76318 624.1604"
           y="503.72171"
           sodipodi:role="line"
           id="tspan14150">MolecularInteractionGeneticInteraction</tspan>
        <tspan
           style="font-size:4.3905673px;font-variant:normal;font-weight:normal;font-stretch:normal;writing-mode:lr-tb;fill:#231f20;fill-opacity:1;fill-rule:nonzero;stroke:none;font-family:'MAKAH J+ Helvetica LT Std';-inkscape-font-specification:HelveticaLTStd-Roman"
           x="468.10208 471.51794 473.95911 476.40027"
           y="442.89038"
           sodipodi:role="line"
           id="tspan14152">Gene</tspan>
        <tspan
           style="font-size:4.3905673px;font-variant:normal;font-weight:normal;font-stretch:normal;writing-mode:lr-tb;fill:#231f20;fill-opacity:1;fill-rule:nonzero;stroke:none;font-family:'MAKAH J+ Helvetica LT Std';-inkscape-font-specification:HelveticaLTStd-Roman"
           x="469.56415 472.25119 473.62543 476.06659 477.19934 479.6405 480.6152"
           y="459.94336"
           sodipodi:role="line"
           id="tspan14154">Protein</tspan>
        <tspan
           style="font-size:4.3905673px;font-variant:normal;font-weight:normal;font-stretch:normal;writing-mode:lr-tb;fill:#231f20;fill-opacity:1;fill-rule:nonzero;stroke:none;font-family:'MAKAH J+ Helvetica LT Std';-inkscape-font-specification:HelveticaLTStd-Roman"
           x="480.9006 484.07059 487.24057"
           y="472.00424"
           sodipodi:role="line"
           id="tspan14156">DNA</tspan>
        <tspan
           style="font-size:4.3905673px;font-variant:normal;font-weight:normal;font-stretch:normal;writing-mode:lr-tb;fill:#231f20;fill-opacity:1;fill-rule:nonzero;stroke:none;font-family:'MAKAH J+ Helvetica LT Std';-inkscape-font-specification:HelveticaLTStd-Roman"
           x="498.87558 502.04556 505.21555"
           y="463.84219"
           sodipodi:role="line"
           id="tspan14158">RNA</tspan>
        <tspan
           style="font-size:4.3905673px;font-variant:normal;font-weight:normal;font-stretch:normal;writing-mode:lr-tb;fill:#231f20;fill-opacity:1;fill-rule:nonzero;stroke:none;font-family:'MAKAH J+ Helvetica LT Std';-inkscape-font-specification:HelveticaLTStd-Roman"
           x="498.82288 501.7514 504.06082 506.1683 508.36359 509.33829 511.53357 513.97473 514.94946 517.87793 520.31909 521.53967 522.5144 523.82275"
           y="442.89038"
           sodipodi:role="line"
           id="tspan14160">PhysicalEntity</tspan>
        <tspan
           style="font-size:4.3905673px;font-variant:normal;font-weight:normal;font-stretch:normal;writing-mode:lr-tb;fill:#231f20;fill-opacity:1;fill-rule:nonzero;stroke:none;font-family:'MAKAH J+ Helvetica LT Std';-inkscape-font-specification:HelveticaLTStd-Roman"
           x="510.71695 513.82104 516.26221 519.91956 522.36072 523.33545 525.64484"
           y="477.20706"
           sodipodi:role="line"
           id="tspan14162">Complex</tspan>
        <tspan
           style="font-size:4.3905673px;font-variant:normal;font-weight:normal;font-stretch:normal;writing-mode:lr-tb;fill:#231f20;fill-opacity:1;fill-rule:nonzero;stroke:none;font-family:'MAKAH J+ Helvetica LT Std';-inkscape-font-specification:HelveticaLTStd-Roman"
           x="580.39087 583.07788 584.45215 586.89325 588.02606 590.46722 591.44189 593.88306 595.10364 597.5448 598.91907 601.36023 603.80133 606.24249 607.88019 609.10077 610.0755 612.5166"
           y="417.44266"
           sodipodi:role="line"
           id="tspan14164">Protein properties</tspan>
        <tspan
           style="font-size:4.3905673px;font-variant:normal;font-weight:normal;font-stretch:normal;writing-mode:lr-tb;fill:#231f20;fill-opacity:1;fill-rule:nonzero;stroke:none;font-family:'MAKAH J+ Helvetica LT Std';-inkscape-font-specification:HelveticaLTStd-Roman"
           x="562.61346 564.9668 567.05231 569.49347 570.46814 571.44287 573.88403 576.3252 577.29987 578.2746 579.24933 580.55768 582.75299 583.97357 585.43561 588.36414 589.58472 591.11261 592.08734 594.5285 596.9696 598.67755"
           y="423.88803"
           sodipodi:role="line"
           id="tspan14166">availability (String*)</tspan>
        <tspan
           style="font-size:4.3905673px;font-variant:normal;font-weight:normal;font-stretch:normal;writing-mode:lr-tb;fill:#231f20;fill-opacity:1;fill-rule:nonzero;stroke:none;font-family:'MAKAH J+ Helvetica LT Std';-inkscape-font-specification:HelveticaLTStd-Roman"
           x="562.61346 565.05463 567.49573 571.15308 573.59424 574.81482 576.27686 579.20538 580.42596 581.95392 582.92859 585.36975 587.81091 589.51886"
           y="429.59576"
           sodipodi:role="line"
           id="tspan14168">name (String*)</tspan>
        <tspan
           style="font-size:4.3905673px;font-variant:normal;font-weight:normal;font-stretch:normal;writing-mode:lr-tb;fill:#231f20;fill-opacity:1;fill-rule:nonzero;stroke:none;font-family:'MAKAH J+ Helvetica LT Std';-inkscape-font-specification:HelveticaLTStd-Roman"
           x="562.61346 564.0755 566.27081 568.71191 572.36926 576.02661 578.46777 580.90894 582.12952 583.3501 584.81213 587.74066 588.96124 590.48914 591.46387 593.90503 596.34619 598.05408"
           y="435.3035"
           sodipodi:role="line"
           id="tspan14170">-comment (String*)</tspan>
        <tspan
           style="font-size:4.3905673px;font-variant:normal;font-weight:normal;font-stretch:normal;writing-mode:lr-tb;fill:#231f20;fill-opacity:1;fill-rule:nonzero;stroke:none;font-family:'MAKAH J+ Helvetica LT Std';-inkscape-font-specification:HelveticaLTStd-Roman"
           x="562.61346 564.80872 566.18298 568.62415 569.84473 571.06531 572.52734 575.45587 576.83008 579.27124 580.49182 582.19977"
           y="441.01123"
           sodipodi:role="line"
           id="tspan14172">xref (Xref*)</tspan>
        <tspan
           style="font-size:4.3905673px;font-variant:normal;font-weight:normal;font-stretch:normal;writing-mode:lr-tb;fill:#231f20;fill-opacity:1;fill-rule:nonzero;stroke:none;font-family:'MAKAH J+ Helvetica LT Std';-inkscape-font-specification:HelveticaLTStd-Roman"
           x="562.61346 565.05463 567.49573 568.71631 571.15747 572.37805 575.30658 577.74774 580.1889 581.51923 583.71454 586.15564 587.37622 588.83832 591.52533 592.8996 595.25293 597.36041 599.80151 602.24268 604.68384 607.125 609.32031 611.76147 613.46936"
           y="446.71896"
           sodipodi:role="line"
           id="tspan14174">data Source (Provenance*)</tspan>
        <tspan
           style="font-size:4.3905673px;font-variant:normal;font-weight:normal;font-stretch:normal;writing-mode:lr-tb;fill:#231f20;fill-opacity:1;fill-rule:nonzero;stroke:none;font-family:'MAKAH J+ Helvetica LT Std';-inkscape-font-specification:HelveticaLTStd-Roman"
           x="562.61346 564.92285 567.11816 568.0929 570.53406 572.97516 575.41632 577.61163 580.0528 581.27338 582.73541 585.66394 587.85919 588.83392 591.27509 593.71625 596.15735 598.35266 600.79382 602.50177"
           y="452.4267"
           sodipodi:role="line"
           id="tspan14176">evidence (Evidence*)</tspan>
        <tspan
           style="font-size:4.3905673px;font-variant:normal;font-weight:normal;font-stretch:normal;writing-mode:lr-tb;fill:#231f20;fill-opacity:1;fill-rule:nonzero;stroke:none;font-family:'MAKAH J+ Helvetica LT Std';-inkscape-font-specification:HelveticaLTStd-Roman"
           x="562.61346 563.70233 566.14343 568.58459 569.80518 572.24634 573.62061 576.06177 577.28235 578.74438 581.67291 584.11407 585.33466 586.30933 587.61774 589.63739 591.09943 593.65039 596.09149 598.53265 599.75323 602.1944 603.56866 606.00983 607.71771"
           y="458.13443"
           sodipodi:role="line"
           id="tspan14178">feature (Entity-Feature*)</tspan>
        <tspan
           style="font-size:4.3905673px;font-variant:normal;font-weight:normal;font-stretch:normal;writing-mode:lr-tb;fill:#231f20;fill-opacity:1;fill-rule:nonzero;stroke:none;font-family:'MAKAH J+ Helvetica LT Std';-inkscape-font-specification:HelveticaLTStd-Roman"
           x="562.61346 565.05463 567.49573 568.71631 569.93689 572.48785 574.92896 577.37012 578.5907 581.03186 582.40613 584.84729 586.06787 587.52991 590.45844 592.8996 594.12018 595.09485 596.40326 598.42291 599.88495 602.43591 604.87708 607.31818 608.53876 610.97992 612.35419 614.79535 616.5033"
           y="463.84219"
           sodipodi:role="line"
           id="tspan14180">not Feature (Entity-Feature*)</tspan>
        <tspan
           style="font-size:4.3905673px;font-variant:normal;font-weight:normal;font-stretch:normal;writing-mode:lr-tb;fill:#231f20;fill-opacity:1;fill-rule:nonzero;stroke:none;font-family:'MAKAH J+ Helvetica LT Std';-inkscape-font-specification:HelveticaLTStd-Roman"
           x="562.61346 566.27081 568.71191 572.36926 574.81042 577.25159 578.71362 579.9342 582.86273 585.17218 587.27966 589.47491 590.44965 592.6449 595.08606 596.06079 597.28137 600.20984 602.651 603.87158 604.84631 606.15472 608.34998 609.57056 611.03259 613.71967 615.09387 617.53503 618.66785 621.10895 622.08368 624.52484 626.23273"
           y="469.54993"
           sodipodi:role="line"
           id="tspan14182">member Physical Entity (Protein*)</tspan>
        <tspan
           style="font-size:4.3905673px;font-variant:normal;font-weight:normal;font-stretch:normal;writing-mode:lr-tb;fill:#231f20;fill-opacity:1;fill-rule:nonzero;stroke:none;font-family:'MAKAH J+ Helvetica LT Std';-inkscape-font-specification:HelveticaLTStd-Roman"
           x="562.61346 564.80872 567.24988 568.22461 569.19928 571.64044 572.61517 575.05634 576.51837 577.73895 580.18011 582.62128 584.81653 587.25769 588.47827 589.453 591.89417"
           y="475.25766"
           sodipodi:role="line"
           id="tspan14184">cellular Location</tspan>
        <tspan
           style="font-size:4.3905673px;font-variant:normal;font-weight:normal;font-stretch:normal;writing-mode:lr-tb;fill:#231f20;fill-opacity:1;fill-rule:nonzero;stroke:none;font-family:'MAKAH J+ Helvetica LT Std';-inkscape-font-specification:HelveticaLTStd-Roman"
           x="562.61346 564.0755 567.17963 569.62079 570.59546 571.57019 574.01135 574.98608 577.42725 578.56 580.02203 582.4632 584.90436 587.09961 589.54077 590.76135 591.73608 594.17725 596.61841 598.08044 600.65771 603.09888 605.29413 607.73529 610.08862 612.52979 613.50452 615.94568 617.53943 619.73474 621.44263"
           y="480.96539"
           sodipodi:role="line"
           id="tspan14186">(Cellular-Location-Vocabulary*)</tspan>
        <tspan
           style="font-size:4.3905673px;font-variant:normal;font-weight:normal;font-stretch:normal;writing-mode:lr-tb;fill:#231f20;fill-opacity:1;fill-rule:nonzero;stroke:none;font-family:'MAKAH J+ Helvetica LT Std';-inkscape-font-specification:HelveticaLTStd-Roman"
           x="562.61346 565.05463 567.49573 568.71631 569.69104 570.99945 573.1947 574.41528 577.49744 579.9386 581.02747 583.46863 584.8429 587.28406 589.72522 591.92047 594.36163 595.58221 597.04425 599.73132 601.10553 603.54669 604.67944 607.12061 608.09534 610.5365 611.99854 615.08069 617.52185 618.61072 621.05188 622.42615 624.86731 627.30847 629.50372 631.94489"
           y="486.67313"
           sodipodi:role="line"
           id="tspan14188">entity Reference (Protein-Reference)</tspan>
        <tspan
           style="font-size:4.3905673px;font-variant:normal;font-weight:normal;font-stretch:normal;writing-mode:lr-tb;fill:#231f20;fill-opacity:1;fill-rule:nonzero;stroke:none;font-family:'MAKAH J+ Helvetica LT Std';-inkscape-font-specification:HelveticaLTStd-Roman"
           x="526.87421 529.80273 533.46008 535.90125 536.87592"
           y="462.38452"
           sodipodi:role="line"
           id="tspan14190">Small</tspan>
        <tspan
           style="font-size:4.3905673px;font-variant:normal;font-weight:normal;font-stretch:normal;writing-mode:lr-tb;fill:#231f20;fill-opacity:1;fill-rule:nonzero;stroke:none;font-family:'MAKAH J+ Helvetica LT Std';-inkscape-font-specification:HelveticaLTStd-Roman"
           x="523.5813 527.23865 529.67981 530.65448 533.09564 535.29095 537.73212 538.70679"
           y="467.5083"
           sodipodi:role="line"
           id="tspan14192">Molecule</tspan>
      </text>
      <g
         id="g19791"
         transform="matrix(0.59746787,0,0,0.59746787,431.76138,322.94001)">
        <g
           id="content-9"
           transform="matrix(0.37406507,0,0,-0.37406507,-65.461387,325.89706)"
           xml:space="preserve"
           stroke-miterlimit="10.433"
           font-style="normal"
           font-variant="normal"
           font-weight="normal"
           font-stretch="normal"
           font-size-adjust="none"
           letter-spacing="normal"
           word-spacing="normal"
           style="font-style:normal;font-variant:normal;font-weight:normal;font-stretch:normal;letter-spacing:normal;word-spacing:normal;text-anchor:start;fill:none;stroke:#000000;stroke-width:1.67373025;stroke-linecap:butt;stroke-linejoin:miter;stroke-miterlimit:10.43299961;stroke-opacity:1;stroke-dasharray:none;stroke-dashoffset:0"><path
             d="m 492.39,427.92 -0.01,0.74 -0.05,0.73 -0.07,0.71 -0.11,0.7 -0.13,0.68 -0.16,0.66 -0.19,0.64 -0.22,0.62 -0.24,0.6 -0.27,0.59 -0.29,0.56 -0.32,0.54 -0.34,0.52 -0.37,0.5 -0.38,0.47 -0.42,0.45 -0.43,0.43 -0.45,0.41 -0.48,0.38 -0.49,0.35 -0.52,0.33 -0.53,0.3 -0.55,0.28 -0.57,0.25 -0.59,0.22 -0.6,0.2 -0.62,0.16 -0.63,0.14 -0.65,0.1 -0.67,0.08 -0.67,0.05 -0.69,0.01 -0.3,-1.25 c 4.09,0 8.58,-2.78 8.58,-10.2 0,-3.59 -1.35,-11.36 -6.28,-17.5 -2.39,-3.03 -6.49,-5.97 -10.66,-5.97 h 0 c -4.94,0 -8.42,4.03 -8.42,10.61 0,2.19 0.69,9.47 4.53,15.3 3.44,5.17 8.31,7.76 12.25,7.76 l 0.3,1.25 c -10.75,0 -21.72,-11.31 -21.72,-22.92 0,-8.26 5.58,-13.29 12.76,-13.29 10.55,0 21.67,10.9 21.67,22.81 z"
             id="path19794"
             inkscape:connector-curvature="0"
             style="fill:#000000;stroke-width:0" /><path
             d="m 506.91,440.23 0,0 0,0.01 0,0 0,0.01 -0.01,0.02 0,0.01 0,0.02 0,0.02 0,0.02 -0.01,0.02 0,0.02 -0.01,0.02 -0.01,0.02 -0.01,0.03 -0.01,0.02 -0.01,0.03 -0.01,0.02 -0.02,0.03 -0.02,0.02 -0.02,0.02 -0.02,0.03 -0.01,0.01 -0.01,0.01 -0.02,0.01 -0.01,0.01 -0.02,0.01 -0.01,0.01 -0.02,0.01 -0.01,0.01 -0.02,0.01 -0.02,0.01 -0.02,0 -0.02,0.01 -0.02,0.01 -0.02,0 -0.02,0.01 -0.02,0.01 -0.03,0 -0.02,0 -0.03,0.01 -0.02,0 -0.03,0 -0.03,0.01 -0.02,0 -0.03,0 c -1.16,0 -4.79,-0.41 -6.08,-0.5 -0.41,-0.05 -0.96,-0.1 -0.96,-1 0,-0.6 0.46,-0.6 1.21,-0.6 2.39,0 2.48,-0.34 2.48,-0.84 0,-0.36 -0.45,-2.05 -0.7,-3.09 l -4.08,-16.24 c -0.59,-2.5 -0.8,-3.3 -0.8,-5.03 0,-4.73 2.64,-7.83 6.33,-7.83 v 1.1 c -1.7,0 -3.34,1.34 -3.34,5.03 0,0.95 0,1.89 0.79,5.03 l 1.1,4.59 c 0.3,1.1 0.3,1.19 0.75,1.74 2.44,3.23 4.69,3.98 5.98,3.98 1.8,0 3.14,-1.48 3.14,-4.69 0,-2.93 -1.65,-8.65 -2.54,-10.56 -1.64,-3.33 -3.94,-5.12 -5.88,-5.12 v -1.1 c 5.88,0 12,7.42 12,14.6 0,4.53 -2.64,7.96 -6.62,7.96 -2.28,0 -4.33,-1.43 -5.83,-2.98 z"
             id="path19796"
             inkscape:connector-curvature="0"
             style="fill:#000000;stroke-width:0" /><path
             d="m 532.84,394.25 0,0.02 0,0.03 0,0.01 0,0.02 0,0.01 -0.01,0.02 0,0.01 -0.01,0.02 -0.01,0.02 -0.01,0.02 -0.01,0.02 -0.02,0.03 -0.01,0.02 -0.02,0.03 -0.02,0.03 -0.03,0.03 -0.02,0.03 -0.03,0.04 -0.02,0.02 -0.01,0.02 -0.02,0.02 -0.02,0.02 -0.02,0.02 -0.02,0.03 -0.02,0.02 -0.02,0.02 -0.02,0.03 -0.03,0.02 -0.02,0.03 -0.03,0.03 -0.03,0.03 -0.02,0.03 -0.03,0.03 -0.03,0.03 -0.03,0.03 -0.03,0.03 -0.04,0.04 -0.03,0.03 -0.04,0.04 -0.03,0.03 -0.04,0.04 -0.04,0.04 c -6.22,6.28 -7.81,15.69 -7.81,23.31 0,8.67 1.89,17.35 8.01,23.56 0.64,0.61 0.64,0.71 0.64,0.86 0,0.35 -0.18,0.49 -0.48,0.49 -0.5,0 -4.98,-3.38 -7.92,-9.7 -2.55,-5.49 -3.14,-11.02 -3.14,-15.21 0,-3.89 0.54,-9.9 3.28,-15.54 2.98,-6.13 7.28,-9.36 7.78,-9.36 0.3,0 0.48,0.14 0.48,0.5 z"
             id="path19798"
             inkscape:connector-curvature="0"
             style="fill:#000000;stroke-width:0" /><path
             d="m 544.65,410.84 0.24,0.39 0.24,0.38 0.22,0.38 0.22,0.37 0.21,0.37 0.19,0.36 0.19,0.35 0.18,0.35 0.17,0.35 0.16,0.34 0.16,0.33 0.15,0.33 0.14,0.33 0.13,0.32 0.25,0.62 0.22,0.61 0.21,0.6 0.18,0.57 0.17,0.56 0.15,0.54 0.14,0.53 0.14,0.52 0.12,0.5 c 1.74,6.87 3.64,12.86 6.72,16.3 0.61,0.65 1,1.09 2.6,1.09 3.43,0 3.53,-3.44 3.53,-4.12 0,-0.91 -0.25,-1.6 -0.25,-1.85 0,-0.36 0.31,-0.36 0.35,-0.36 0.8,0 2.15,0.55 3.4,1.46 0.89,0.68 1.34,1.18 1.34,3.23 0,2.69 -1.41,4.73 -4.19,4.73 -1.59,0 -5.98,-0.4 -10.86,-5.32 -3.98,-4.1 -6.32,-13.07 -7.28,-16.8 -0.89,-3.44 -1.29,-4.99 -2.78,-7.97 -0.36,-0.59 -1.66,-2.8 -2.34,-3.44 -1.35,-1.25 -1.85,-2.14 -1.85,-2.39 0,-0.09 0.1,-0.29 0.46,-0.29 0.18,0 1.23,0.2 2.53,1.04 0.84,0.5 0.95,0.6 2.09,1.8 2.5,-0.06 4.23,-0.5 7.38,-1.41 2.54,-0.68 5.07,-1.43 7.62,-1.43 4.03,0 8.13,3.03 9.72,5.23 0.98,1.34 1.3,2.58 1.3,2.73 0,0.35 -0.32,0.35 -0.36,0.35 -0.8,0 -1.99,-0.55 -2.85,-1.14 -1.34,-0.85 -1.43,-1.14 -1.73,-2 -0.25,-0.8 -0.55,-1.19 -0.75,-1.49 -0.39,-0.59 -0.45,-0.59 -1.2,-0.59 -2.4,0 -4.88,0.73 -8.16,1.64 -1.41,0.39 -4.14,1.19 -6.64,1.19 -0.64,0 -1.35,-0.05 -1.98,-0.19 z"
             id="path19800"
             inkscape:connector-curvature="0"
             style="fill:#000000;stroke-width:0" /><path
             d="m 584.38,418.65 0,0.37 0,0.39 -0.01,0.39 -0.02,0.41 -0.04,0.84 -0.06,0.88 -0.08,0.92 -0.1,0.95 -0.14,0.97 -0.16,1.01 -0.2,1.02 -0.23,1.03 -0.27,1.05 -0.3,1.06 -0.35,1.07 -0.39,1.07 -0.22,0.53 -0.22,0.53 -0.24,0.53 -0.25,0.53 c -2.98,6.12 -7.26,9.36 -7.76,9.36 -0.3,0 -0.5,-0.19 -0.5,-0.49 0,-0.15 0,-0.25 0.93,-1.15 4.89,-4.92 7.74,-12.85 7.74,-23.27 0,-8.51 -1.85,-17.28 -8.03,-23.56 -0.64,-0.59 -0.64,-0.7 -0.64,-0.84 0,-0.3 0.2,-0.5 0.5,-0.5 0.5,0 4.96,3.39 7.92,9.71 2.53,5.47 3.12,11 3.12,15.19 z"
             id="path19802"
             inkscape:connector-curvature="0"
             style="fill:#000000;stroke-width:0" /></g>      </g>
      <g
         id="g20350"
         transform="matrix(0.59746787,0,0,0.59746787,426.44269,475.8933)">
        <g
           word-spacing="normal"
           letter-spacing="normal"
           font-size-adjust="none"
           font-stretch="normal"
           font-weight="normal"
           font-variant="normal"
           font-style="normal"
           stroke-miterlimit="10.433"
           xml:space="preserve"
           transform="matrix(0.37406507,0,0,-0.37406507,-65.461387,325.89706)"
           id="g20352"
           style="font-style:normal;font-variant:normal;font-weight:normal;font-stretch:normal;letter-spacing:normal;word-spacing:normal;text-anchor:start;fill:none;stroke:#000000;stroke-width:1.67373025;stroke-linecap:butt;stroke-linejoin:miter;stroke-miterlimit:10.43299961;stroke-opacity:1;stroke-dasharray:none;stroke-dashoffset:0"><path
             id="path20354"
             d="m 501.66,436.39 0.04,0.16 0.04,0.16 0.04,0.15 0.04,0.14 0.04,0.14 0.04,0.13 0.04,0.12 0.05,0.11 0.05,0.11 0.05,0.11 0.07,0.09 0.06,0.09 0.08,0.09 0.08,0.08 0.09,0.07 0.09,0.07 0.11,0.06 0.12,0.06 0.13,0.05 0.14,0.05 0.15,0.04 0.09,0.02 0.08,0.02 0.09,0.02 0.09,0.02 0.1,0.01 0.1,0.02 0.1,0.01 0.11,0.01 0.11,0.02 0.12,0.01 0.12,0.01 0.12,0 0.13,0.01 0.13,0.01 0.14,0.01 0.14,0 0.15,0 0.15,0.01 0.16,0 0.16,0 0.17,0 0.17,0 c 1.14,0 1.6,0 1.6,1 0,0.55 -0.5,0.55 -1.35,0.55 h -6.58 c -1.29,0 -1.34,0 -1.93,-0.95 l -18.19,-28.39 -3.89,28.18 c -0.16,1.16 -0.25,1.16 -1.55,1.16 h -6.83 c -0.93,0 -1.48,0 -1.48,-0.95 0,-0.6 0.44,-0.6 1.44,-0.6 0.65,0 1.54,-0.04 2.14,-0.09 0.79,-0.11 1.09,-0.25 1.09,-0.8 0,-0.2 -0.05,-0.36 -0.19,-0.95 l -6.33,-25.36 c -0.5,-2 -1.34,-3.59 -5.39,-3.73 -0.25,0 -0.89,-0.05 -0.89,-0.96 0,-0.43 0.3,-0.59 0.71,-0.59 1.59,0 3.32,0.16 4.97,0.16 1.7,0 3.5,-0.16 5.14,-0.16 0.25,0 0.89,0 0.89,1 0,0.55 -0.55,0.55 -0.89,0.55 -2.85,0.04 -3.39,1.04 -3.39,2.18 0,0.35 0.04,0.6 0.2,1.14 l 6.76,27.16 h 0.07 l 4.28,-30.89 c 0.09,-0.59 0.14,-1.14 0.75,-1.14 0.54,0 0.84,0.55 1.09,0.89 l 20.13,31.55 h 0.04 l -7.12,-28.55 c -0.5,-1.95 -0.6,-2.34 -4.53,-2.34 -0.85,0 -1.39,0 -1.39,-0.96 0,-0.59 0.59,-0.59 0.75,-0.59 1.39,0 4.78,0.16 6.17,0.16 2.05,0 4.19,-0.16 6.23,-0.16 0.3,0 0.94,0 0.94,1 0,0.55 -0.45,0.55 -1.39,0.55 -1.84,0 -3.23,0 -3.23,0.89 0,0.2 0,0.29 0.25,1.2 z"
             inkscape:connector-curvature="0"
             style="fill:#000000;stroke-width:0" /><path
             id="path20356"
             d="m 532.64,419.79 -0.01,0.48 -0.03,0.47 -0.05,0.46 -0.07,0.44 -0.08,0.44 -0.11,0.42 -0.12,0.4 -0.14,0.4 -0.16,0.38 -0.17,0.36 -0.19,0.36 -0.21,0.34 -0.22,0.32 -0.23,0.31 -0.25,0.3 -0.26,0.28 -0.28,0.26 -0.28,0.25 -0.3,0.24 -0.32,0.22 -0.32,0.2 -0.33,0.19 -0.35,0.17 -0.35,0.15 -0.36,0.13 -0.38,0.12 -0.38,0.1 -0.39,0.09 -0.4,0.06 -0.4,0.05 -0.41,0.03 -0.42,0 -0.05,-1.09 c 2.9,0 4.4,-2.39 4.4,-5.37 0,-1.96 -1,-7.18 -2.9,-10.43 -1.74,-2.89 -4.48,-4.57 -6.78,-4.57 h 0 c -2.14,0 -4.32,1.54 -4.32,5.43 0,2.44 1.29,7.82 2.89,10.36 2.48,3.83 5.32,4.58 6.71,4.58 l 0.05,1.09 c -6.67,0 -13.34,-7.06 -13.34,-14.14 0,-4.93 3.33,-8.42 7.97,-8.42 6.62,0 13.34,6.88 13.34,14.14 z"
             inkscape:connector-curvature="0"
             style="fill:#000000;stroke-width:0" /><path
             id="path20358"
             d="m 537.79,409.14 -0.02,-0.07 -0.01,-0.08 -0.02,-0.07 -0.02,-0.08 -0.03,-0.16 -0.04,-0.16 -0.04,-0.16 -0.03,-0.16 -0.04,-0.16 -0.04,-0.16 -0.01,-0.08 -0.02,-0.07 -0.02,-0.07 -0.01,-0.07 -0.02,-0.07 -0.01,-0.07 -0.01,-0.06 -0.02,-0.06 -0.01,-0.06 -0.01,-0.05 0,-0.05 -0.01,-0.04 -0.01,-0.04 0,-0.04 0,-0.03 0,-0.02 c 0,-0.89 0.7,-1.35 1.43,-1.35 0.61,0 1.5,0.39 1.85,1.39 0.11,0.21 1.79,6.99 2,7.88 0.39,1.64 1.29,5.12 1.59,6.48 0.2,0.64 1.59,2.99 2.78,4.08 0.41,0.34 1.85,1.64 4,1.64 1.28,0 2.03,-0.59 2.08,-0.59 -1.48,-0.25 -2.58,-1.46 -2.58,-2.74 0,-0.79 0.55,-1.75 1.89,-1.75 1.35,0 2.74,1.14 2.74,2.94 0,1.75 -1.6,3.23 -4.13,3.23 -3.25,0 -5.44,-2.43 -6.39,-3.82 -0.39,2.23 -2.19,3.82 -4.53,3.82 -2.28,0 -3.23,-1.93 -3.69,-2.82 -0.89,-1.71 -1.54,-4.69 -1.54,-4.85 0,-0.5 0.5,-0.5 0.61,-0.5 0.5,0 0.54,0.07 0.84,1.16 0.84,3.53 1.84,5.92 3.64,5.92 0.84,0 1.55,-0.39 1.55,-2.28 0,-1.05 -0.16,-1.61 -0.8,-4.19 z"
             inkscape:connector-curvature="0"
             style="fill:#000000;stroke-width:0" /><path
             id="path20360"
             d="m 573.76,394.25 0,0.02 0,0.03 -0.01,0.01 0,0.02 0,0.01 -0.01,0.02 0,0.01 -0.01,0.02 -0.01,0.02 -0.01,0.02 -0.01,0.02 -0.01,0.03 -0.02,0.02 -0.02,0.03 -0.02,0.03 -0.02,0.03 -0.03,0.03 -0.03,0.04 -0.01,0.02 -0.02,0.02 -0.02,0.02 -0.02,0.02 -0.02,0.02 -0.02,0.03 -0.02,0.02 -0.02,0.02 -0.02,0.03 -0.02,0.02 -0.03,0.03 -0.02,0.03 -0.03,0.03 -0.03,0.03 -0.03,0.03 -0.03,0.03 -0.03,0.03 -0.03,0.03 -0.03,0.04 -0.04,0.03 -0.03,0.04 -0.04,0.03 -0.04,0.04 -0.04,0.04 c -6.21,6.28 -7.81,15.69 -7.81,23.31 0,8.67 1.89,17.35 8.02,23.56 0.64,0.61 0.64,0.71 0.64,0.86 0,0.35 -0.19,0.49 -0.49,0.49 -0.5,0 -4.98,-3.38 -7.92,-9.7 -2.55,-5.49 -3.14,-11.02 -3.14,-15.21 0,-3.89 0.55,-9.9 3.28,-15.54 2.99,-6.13 7.28,-9.36 7.78,-9.36 0.3,0 0.49,0.14 0.49,0.5 z"
             inkscape:connector-curvature="0"
             style="fill:#000000;stroke-width:0" /><path
             id="path20362"
             d="m 585.56,410.84 0.25,0.39 0.23,0.38 0.23,0.38 0.21,0.37 0.21,0.37 0.2,0.36 0.19,0.35 0.17,0.35 0.18,0.35 0.16,0.34 0.15,0.33 0.15,0.33 0.14,0.33 0.14,0.32 0.24,0.62 0.23,0.61 0.2,0.6 0.19,0.57 0.16,0.56 0.16,0.54 0.14,0.53 0.13,0.52 0.13,0.5 c 1.73,6.87 3.64,12.86 6.72,16.3 0.6,0.65 1,1.09 2.59,1.09 3.44,0 3.53,-3.44 3.53,-4.12 0,-0.91 -0.25,-1.6 -0.25,-1.85 0,-0.36 0.31,-0.36 0.36,-0.36 0.8,0 2.14,0.55 3.39,1.46 0.89,0.68 1.34,1.18 1.34,3.23 0,2.69 -1.4,4.73 -4.18,4.73 -1.6,0 -5.99,-0.4 -10.86,-5.32 -3.99,-4.1 -6.33,-13.07 -7.29,-16.8 -0.88,-3.44 -1.29,-4.99 -2.78,-7.97 -0.35,-0.59 -1.65,-2.8 -2.34,-3.44 -1.34,-1.25 -1.84,-2.14 -1.84,-2.39 0,-0.09 0.09,-0.29 0.45,-0.29 0.19,0 1.23,0.2 2.53,1.04 0.85,0.5 0.95,0.6 2.1,1.8 2.5,-0.06 4.23,-0.5 7.37,-1.41 2.55,-0.68 5.08,-1.43 7.63,-1.43 4.03,0 8.12,3.03 9.71,5.23 0.99,1.34 1.3,2.58 1.3,2.73 0,0.35 -0.31,0.35 -0.36,0.35 -0.8,0 -1.98,-0.55 -2.84,-1.14 -1.35,-0.85 -1.44,-1.14 -1.74,-2 -0.25,-0.8 -0.54,-1.19 -0.75,-1.49 -0.39,-0.59 -0.45,-0.59 -1.2,-0.59 -2.39,0 -4.87,0.73 -8.16,1.64 -1.4,0.39 -4.14,1.19 -6.64,1.19 -0.64,0 -1.34,-0.05 -1.98,-0.19 z"
             inkscape:connector-curvature="0"
             style="fill:#000000;stroke-width:0" /><path
             id="path20364"
             d="m 625.3,418.65 0,0.37 -0.01,0.39 -0.01,0.39 -0.01,0.41 -0.04,0.84 -0.06,0.88 -0.08,0.92 -0.11,0.95 -0.13,0.97 -0.17,1.01 -0.19,1.02 -0.23,1.03 -0.27,1.05 -0.31,1.06 -0.35,1.07 -0.39,1.07 -0.21,0.53 -0.23,0.53 -0.23,0.53 -0.25,0.53 c -2.99,6.12 -7.27,9.36 -7.77,9.36 -0.3,0 -0.5,-0.19 -0.5,-0.49 0,-0.15 0,-0.25 0.94,-1.15 4.89,-4.92 7.73,-12.85 7.73,-23.27 0,-8.51 -1.84,-17.28 -8.03,-23.56 -0.64,-0.59 -0.64,-0.7 -0.64,-0.84 0,-0.3 0.2,-0.5 0.5,-0.5 0.5,0 4.97,3.39 7.92,9.71 2.53,5.47 3.13,11 3.13,15.19 z"
             inkscape:connector-curvature="0"
             style="fill:#000000;stroke-width:0" /></g>      </g>
    </g>
  </g>
</svg>
