<?xml version="1.0" encoding="UTF-8" standalone="no"?>
<!-- Created with Inkscape (http://www.inkscape.org/) -->

<svg
   xmlns:dc="http://purl.org/dc/elements/1.1/"
   xmlns:cc="http://creativecommons.org/ns#"
   xmlns:rdf="http://www.w3.org/1999/02/22-rdf-syntax-ns#"
   xmlns:svg="http://www.w3.org/2000/svg"
   xmlns="http://www.w3.org/2000/svg"
   xmlns:sodipodi="http://sodipodi.sourceforge.net/DTD/sodipodi-0.dtd"
   xmlns:inkscape="http://www.inkscape.org/namespaces/inkscape"
   width="1042.3696"
   height="714.60413"
   id="svg6258"
   version="1.1"
   inkscape:version="0.48.3.1 r9886"
   sodipodi:docname="graphyonedaext.svg">
  <sodipodi:namedview
     id="base"
     pagecolor="#ffffff"
     bordercolor="#666666"
     borderopacity="1.0"
     inkscape:pageopacity="0.0"
     inkscape:pageshadow="2"
     inkscape:zoom="0.99831577"
     inkscape:cx="417.65575"
     inkscape:cy="359.30114"
     inkscape:document-units="px"
     inkscape:current-layer="layer1"
     showgrid="false"
     inkscape:window-width="1920"
     inkscape:window-height="1176"
     inkscape:window-x="0"
     inkscape:window-y="24"
     inkscape:window-maximized="1"
     fit-margin-top="5"
     fit-margin-right="5"
     fit-margin-bottom="5"
     fit-margin-left="5" />
  <defs
     id="defs6260">
    <marker
       style="overflow:visible"
       id="Arrow2Mstart"
       refX="0"
       refY="0"
       orient="auto"
       inkscape:stockid="Arrow2Mstart">
      <path
         transform="scale(0.6,0.6)"
         d="M 8.7185878,4.0337352 -2.2072895,0.01601326 8.7185884,-4.0017078 c -1.7454984,2.3720609 -1.7354408,5.6174519 -6e-7,8.035443 z"
         style="fill-rule:evenodd;stroke-width:0.625;stroke-linejoin:round"
         id="path6845"
         inkscape:connector-curvature="0" />
    </marker>
    <marker
       style="overflow:visible"
       id="Arrow1Mstart"
       refX="0"
       refY="0"
       orient="auto"
       inkscape:stockid="Arrow1Mstart">
      <path
         transform="matrix(0.4,0,0,0.4,4,0)"
         style="fill-rule:evenodd;stroke:#000000;stroke-width:1pt"
         d="M 0,0 5,-5 -12.5,0 5,5 0,0 z"
         id="path6827"
         inkscape:connector-curvature="0" />
    </marker>
    <marker
       style="overflow:visible"
       id="Arrow2Send"
       refX="0"
       refY="0"
       orient="auto"
       inkscape:stockid="Arrow2Send">
      <path
         inkscape:connector-curvature="0"
         transform="matrix(-0.3,0,0,-0.3,0.69,0)"
         d="M 8.7185878,4.0337352 -2.2072895,0.01601326 8.7185884,-4.0017078 c -1.7454984,2.3720609 -1.7354408,5.6174519 -6e-7,8.035443 z"
         style="fill-rule:evenodd;stroke-width:0.625;stroke-linejoin:round"
         id="path6854" />
    </marker>
    <marker
       style="overflow:visible"
       id="Arrow2Mend"
       refX="0"
       refY="0"
       orient="auto"
       inkscape:stockid="Arrow2Mend">
      <path
         inkscape:connector-curvature="0"
         transform="scale(-0.6,-0.6)"
         d="M 8.7185878,4.0337352 -2.2072895,0.01601326 8.7185884,-4.0017078 c -1.7454984,2.3720609 -1.7354408,5.6174519 -6e-7,8.035443 z"
         style="fill-rule:evenodd;stroke-width:0.625;stroke-linejoin:round"
         id="path6848" />
    </marker>
    <marker
       style="overflow:visible"
       id="Arrow2Mend-2"
       refX="0"
       refY="0"
       orient="auto"
       inkscape:stockid="Arrow2Mend">
      <path
         transform="scale(-0.6,-0.6)"
         d="M 8.7185878,4.0337352 -2.2072895,0.01601326 8.7185884,-4.0017078 c -1.7454984,2.3720609 -1.7354408,5.6174519 -6e-7,8.035443 z"
         style="fill-rule:evenodd;stroke-width:0.625;stroke-linejoin:round"
         id="path6848-2"
         inkscape:connector-curvature="0" />
    </marker>
    <marker
       style="overflow:visible"
       id="marker8203"
       refX="0"
       refY="0"
       orient="auto"
       inkscape:stockid="Arrow2Mend">
      <path
         transform="scale(-0.6,-0.6)"
         d="M 8.7185878,4.0337352 -2.2072895,0.01601326 8.7185884,-4.0017078 c -1.7454984,2.3720609 -1.7354408,5.6174519 -6e-7,8.035443 z"
         style="fill-rule:evenodd;stroke-width:0.625;stroke-linejoin:round"
         id="path8205"
         inkscape:connector-curvature="0" />
    </marker>
    <marker
       style="overflow:visible"
       id="marker8207"
       refX="0"
       refY="0"
       orient="auto"
       inkscape:stockid="Arrow2Mend">
      <path
         transform="scale(-0.6,-0.6)"
         d="M 8.7185878,4.0337352 -2.2072895,0.01601326 8.7185884,-4.0017078 c -1.7454984,2.3720609 -1.7354408,5.6174519 -6e-7,8.035443 z"
         style="fill-rule:evenodd;stroke-width:0.625;stroke-linejoin:round"
         id="path8209"
         inkscape:connector-curvature="0" />
    </marker>
    <marker
       style="overflow:visible"
       id="marker8211"
       refX="0"
       refY="0"
       orient="auto"
       inkscape:stockid="Arrow2Mend">
      <path
         transform="scale(-0.6,-0.6)"
         d="M 8.7185878,4.0337352 -2.2072895,0.01601326 8.7185884,-4.0017078 c -1.7454984,2.3720609 -1.7354408,5.6174519 -6e-7,8.035443 z"
         style="fill-rule:evenodd;stroke-width:0.625;stroke-linejoin:round"
         id="path8213"
         inkscape:connector-curvature="0" />
    </marker>
    <marker
       style="overflow:visible"
       id="Arrow2Mend-5"
       refX="0"
       refY="0"
       orient="auto"
       inkscape:stockid="Arrow2Mend">
      <path
         transform="scale(-0.6,-0.6)"
         d="M 8.7185878,4.0337352 -2.2072895,0.01601326 8.7185884,-4.0017078 c -1.7454984,2.3720609 -1.7354408,5.6174519 -6e-7,8.035443 z"
         style="fill-rule:evenodd;stroke-width:0.625;stroke-linejoin:round"
         id="path6848-4"
         inkscape:connector-curvature="0" />
    </marker>
    <marker
       style="overflow:visible"
       id="marker8203-0"
       refX="0"
       refY="0"
       orient="auto"
       inkscape:stockid="Arrow2Mend">
      <path
         transform="scale(-0.6,-0.6)"
         d="M 8.7185878,4.0337352 -2.2072895,0.01601326 8.7185884,-4.0017078 c -1.7454984,2.3720609 -1.7354408,5.6174519 -6e-7,8.035443 z"
         style="fill-rule:evenodd;stroke-width:0.625;stroke-linejoin:round"
         id="path8205-6"
         inkscape:connector-curvature="0" />
    </marker>
    <marker
       style="overflow:visible"
       id="marker8207-2"
       refX="0"
       refY="0"
       orient="auto"
       inkscape:stockid="Arrow2Mend">
      <path
         transform="scale(-0.6,-0.6)"
         d="M 8.7185878,4.0337352 -2.2072895,0.01601326 8.7185884,-4.0017078 c -1.7454984,2.3720609 -1.7354408,5.6174519 -6e-7,8.035443 z"
         style="fill-rule:evenodd;stroke-width:0.625;stroke-linejoin:round"
         id="path8209-2"
         inkscape:connector-curvature="0" />
    </marker>
    <marker
       style="overflow:visible"
       id="marker8211-4"
       refX="0"
       refY="0"
       orient="auto"
       inkscape:stockid="Arrow2Mend">
      <path
         transform="scale(-0.6,-0.6)"
         d="M 8.7185878,4.0337352 -2.2072895,0.01601326 8.7185884,-4.0017078 c -1.7454984,2.3720609 -1.7354408,5.6174519 -6e-7,8.035443 z"
         style="fill-rule:evenodd;stroke-width:0.625;stroke-linejoin:round"
         id="path8213-9"
         inkscape:connector-curvature="0" />
    </marker>
    <marker
       style="overflow:visible"
       id="Arrow2Mend-4"
       refX="0"
       refY="0"
       orient="auto"
       inkscape:stockid="Arrow2Mend">
      <path
         inkscape:connector-curvature="0"
         transform="scale(-0.6,-0.6)"
         d="M 8.7185878,4.0337352 -2.2072895,0.01601326 8.7185884,-4.0017078 c -1.7454984,2.3720609 -1.7354408,5.6174519 -6e-7,8.035443 z"
         style="fill-rule:evenodd;stroke-width:0.625;stroke-linejoin:round"
         id="path6848-1" />
    </marker>
    <marker
       style="overflow:visible"
       id="marker8319"
       refX="0"
       refY="0"
       orient="auto"
       inkscape:stockid="Arrow2Mend">
      <path
         inkscape:connector-curvature="0"
         transform="scale(-0.6,-0.6)"
         d="M 8.7185878,4.0337352 -2.2072895,0.01601326 8.7185884,-4.0017078 c -1.7454984,2.3720609 -1.7354408,5.6174519 -6e-7,8.035443 z"
         style="fill-rule:evenodd;stroke-width:0.625;stroke-linejoin:round"
         id="path8321" />
    </marker>
    <marker
       style="overflow:visible"
       id="marker8323"
       refX="0"
       refY="0"
       orient="auto"
       inkscape:stockid="Arrow2Mend">
      <path
         inkscape:connector-curvature="0"
         transform="scale(-0.6,-0.6)"
         d="M 8.7185878,4.0337352 -2.2072895,0.01601326 8.7185884,-4.0017078 c -1.7454984,2.3720609 -1.7354408,5.6174519 -6e-7,8.035443 z"
         style="fill-rule:evenodd;stroke-width:0.625;stroke-linejoin:round"
         id="path8325" />
    </marker>
    <marker
       style="overflow:visible"
       id="marker8327"
       refX="0"
       refY="0"
       orient="auto"
       inkscape:stockid="Arrow2Mend">
      <path
         inkscape:connector-curvature="0"
         transform="scale(-0.6,-0.6)"
         d="M 8.7185878,4.0337352 -2.2072895,0.01601326 8.7185884,-4.0017078 c -1.7454984,2.3720609 -1.7354408,5.6174519 -6e-7,8.035443 z"
         style="fill-rule:evenodd;stroke-width:0.625;stroke-linejoin:round"
         id="path8329" />
    </marker>
    <marker
       style="overflow:visible"
       id="marker8327-3"
       refX="0"
       refY="0"
       orient="auto"
       inkscape:stockid="Arrow2Mend">
      <path
         inkscape:connector-curvature="0"
         transform="scale(-0.6,-0.6)"
         d="M 8.7185878,4.0337352 -2.2072895,0.01601326 8.7185884,-4.0017078 c -1.7454984,2.3720609 -1.7354408,5.6174519 -6e-7,8.035443 z"
         style="fill-rule:evenodd;stroke-width:0.625;stroke-linejoin:round"
         id="path8329-9" />
    </marker>
    <marker
       style="overflow:visible"
       id="marker8645"
       refX="0"
       refY="0"
       orient="auto"
       inkscape:stockid="Arrow2Mend">
      <path
         inkscape:connector-curvature="0"
         transform="scale(-0.6,-0.6)"
         d="M 8.7185878,4.0337352 -2.2072895,0.01601326 8.7185884,-4.0017078 c -1.7454984,2.3720609 -1.7354408,5.6174519 -6e-7,8.035443 z"
         style="fill-rule:evenodd;stroke-width:0.625;stroke-linejoin:round"
         id="path8647" />
    </marker>
    <marker
       style="overflow:visible"
       id="marker8649"
       refX="0"
       refY="0"
       orient="auto"
       inkscape:stockid="Arrow2Mend">
      <path
         inkscape:connector-curvature="0"
         transform="scale(-0.6,-0.6)"
         d="M 8.7185878,4.0337352 -2.2072895,0.01601326 8.7185884,-4.0017078 c -1.7454984,2.3720609 -1.7354408,5.6174519 -6e-7,8.035443 z"
         style="fill-rule:evenodd;stroke-width:0.625;stroke-linejoin:round"
         id="path8651" />
    </marker>
    <marker
       style="overflow:visible"
       id="marker8653"
       refX="0"
       refY="0"
       orient="auto"
       inkscape:stockid="Arrow2Mend">
      <path
         inkscape:connector-curvature="0"
         transform="scale(-0.6,-0.6)"
         d="M 8.7185878,4.0337352 -2.2072895,0.01601326 8.7185884,-4.0017078 c -1.7454984,2.3720609 -1.7354408,5.6174519 -6e-7,8.035443 z"
         style="fill-rule:evenodd;stroke-width:0.625;stroke-linejoin:round"
         id="path8655" />
    </marker>
    <marker
       style="overflow:visible"
       id="marker8657"
       refX="0"
       refY="0"
       orient="auto"
       inkscape:stockid="Arrow2Mend">
      <path
         inkscape:connector-curvature="0"
         transform="scale(-0.6,-0.6)"
         d="M 8.7185878,4.0337352 -2.2072895,0.01601326 8.7185884,-4.0017078 c -1.7454984,2.3720609 -1.7354408,5.6174519 -6e-7,8.035443 z"
         style="fill-rule:evenodd;stroke-width:0.625;stroke-linejoin:round"
         id="path8659" />
    </marker>
    <marker
       style="overflow:visible"
       id="Arrow2Mend-8"
       refX="0"
       refY="0"
       orient="auto"
       inkscape:stockid="Arrow2Mend">
      <path
         inkscape:connector-curvature="0"
         transform="scale(-0.6,-0.6)"
         d="M 8.7185878,4.0337352 -2.2072895,0.01601326 8.7185884,-4.0017078 c -1.7454984,2.3720609 -1.7354408,5.6174519 -6e-7,8.035443 z"
         style="fill-rule:evenodd;stroke-width:0.625;stroke-linejoin:round"
         id="path6848-0" />
    </marker>
    <marker
       style="overflow:visible"
       id="marker8663"
       refX="0"
       refY="0"
       orient="auto"
       inkscape:stockid="Arrow2Mend">
      <path
         inkscape:connector-curvature="0"
         transform="scale(-0.6,-0.6)"
         d="M 8.7185878,4.0337352 -2.2072895,0.01601326 8.7185884,-4.0017078 c -1.7454984,2.3720609 -1.7354408,5.6174519 -6e-7,8.035443 z"
         style="fill-rule:evenodd;stroke-width:0.625;stroke-linejoin:round"
         id="path8665" />
    </marker>
    <marker
       style="overflow:visible"
       id="marker8667"
       refX="0"
       refY="0"
       orient="auto"
       inkscape:stockid="Arrow2Mend">
      <path
         inkscape:connector-curvature="0"
         transform="scale(-0.6,-0.6)"
         d="M 8.7185878,4.0337352 -2.2072895,0.01601326 8.7185884,-4.0017078 c -1.7454984,2.3720609 -1.7354408,5.6174519 -6e-7,8.035443 z"
         style="fill-rule:evenodd;stroke-width:0.625;stroke-linejoin:round"
         id="path8669" />
    </marker>
    <marker
       style="overflow:visible"
       id="marker8671"
       refX="0"
       refY="0"
       orient="auto"
       inkscape:stockid="Arrow2Mend">
      <path
         inkscape:connector-curvature="0"
         transform="scale(-0.6,-0.6)"
         d="M 8.7185878,4.0337352 -2.2072895,0.01601326 8.7185884,-4.0017078 c -1.7454984,2.3720609 -1.7354408,5.6174519 -6e-7,8.035443 z"
         style="fill-rule:evenodd;stroke-width:0.625;stroke-linejoin:round"
         id="path8673" />
    </marker>
    <marker
       style="overflow:visible"
       id="marker8671-3"
       refX="0"
       refY="0"
       orient="auto"
       inkscape:stockid="Arrow2Mend">
      <path
         inkscape:connector-curvature="0"
         transform="scale(-0.6,-0.6)"
         d="M 8.7185878,4.0337352 -2.2072895,0.01601326 8.7185884,-4.0017078 c -1.7454984,2.3720609 -1.7354408,5.6174519 -6e-7,8.035443 z"
         style="fill-rule:evenodd;stroke-width:0.625;stroke-linejoin:round"
         id="path8673-4" />
    </marker>
    <filter
       inkscape:collect="always"
       id="filter10199"
       color-interpolation-filters="sRGB">
      <feGaussianBlur
         inkscape:collect="always"
         stdDeviation="6.278259"
         id="feGaussianBlur10201" />
    </filter>
  </defs>
  <metadata
     id="metadata6263">
    <rdf:RDF>
      <cc:Work
         rdf:about="">
        <dc:format>image/svg+xml</dc:format>
        <dc:type
           rdf:resource="http://purl.org/dc/dcmitype/StillImage" />
        <dc:title />
      </cc:Work>
    </rdf:RDF>
  </metadata>
  <g
     transform="translate(-78.506123,-60.565653)"
     id="layer1"
     inkscape:groupmode="layer"
     inkscape:label="Layer 1">
    <path
       transform="matrix(0.08878384,0,0,0.08244214,194.68908,551.96288)"
       d="m 325.71429,540.93359 a 55.714287,60 0 1 1 -111.42858,0 55.714287,60 0 1 1 111.42858,0 z"
       sodipodi:ry="60"
       sodipodi:rx="55.714287"
       sodipodi:cy="540.93359"
       sodipodi:cx="270"
       id="path6266"
       style="opacity:0.98999999000000005;fill:#8c510a;fill-opacity:1;stroke:#000000;stroke-width:14.61061287000000064;stroke-linecap:round;stroke-linejoin:round;stroke-miterlimit:4;stroke-opacity:1;stroke-dasharray:none;stroke-dashoffset:0"
       sodipodi:type="arc" />
    <path
       transform="matrix(0.08878384,0,0,0.08244214,335.09393,610.41437)"
       d="m 325.71429,540.93359 a 55.714287,60 0 1 1 -111.42858,0 55.714287,60 0 1 1 111.42858,0 z"
       sodipodi:ry="60"
       sodipodi:rx="55.714287"
       sodipodi:cy="540.93359"
       sodipodi:cx="270"
       id="path6266-1"
       style="opacity:0.98999999000000005;fill:#8c510a;fill-opacity:1;stroke:#000000;stroke-width:14.61061287000000064;stroke-linecap:round;stroke-linejoin:round;stroke-miterlimit:4;stroke-opacity:1;stroke-dasharray:none;stroke-dashoffset:0"
       sodipodi:type="arc" />
    <path
       transform="matrix(0.08878384,0,0,0.08244214,240.84617,518.80376)"
       d="m 325.71429,540.93359 a 55.714287,60 0 1 1 -111.42858,0 55.714287,60 0 1 1 111.42858,0 z"
       sodipodi:ry="60"
       sodipodi:rx="55.714287"
       sodipodi:cy="540.93359"
       sodipodi:cx="270"
       id="path6266-4"
       style="opacity:0.98999999000000005;fill:#8c510a;fill-opacity:1;stroke:#000000;stroke-width:14.61061287000000064;stroke-linecap:round;stroke-linejoin:round;stroke-miterlimit:4;stroke-opacity:1;stroke-dasharray:none;stroke-dashoffset:0"
       sodipodi:type="arc" />
    <path
       transform="matrix(0.08878384,0,0,0.08244214,248.17316,677.67449)"
       d="m 325.71429,540.93359 a 55.714287,60 0 1 1 -111.42858,0 55.714287,60 0 1 1 111.42858,0 z"
       sodipodi:ry="60"
       sodipodi:rx="55.714287"
       sodipodi:cy="540.93359"
       sodipodi:cx="270"
       id="path6266-15"
       style="opacity:0.98999999000000005;fill:#8c510a;fill-opacity:1;stroke:#000000;stroke-width:14.61061287000000064;stroke-linecap:round;stroke-linejoin:round;stroke-miterlimit:4;stroke-opacity:1;stroke-dasharray:none;stroke-dashoffset:0"
       sodipodi:type="arc" />
    <path
       transform="matrix(0.08878384,0,0,0.08244214,346.50716,537.29155)"
       d="m 325.71429,540.93359 a 55.714287,60 0 1 1 -111.42858,0 55.714287,60 0 1 1 111.42858,0 z"
       sodipodi:ry="60"
       sodipodi:rx="55.714287"
       sodipodi:cy="540.93359"
       sodipodi:cx="270"
       id="path6266-12"
       style="opacity:0.98999999000000005;fill:#8c510a;fill-opacity:1;stroke:#000000;stroke-width:14.61061287000000064;stroke-linecap:round;stroke-linejoin:round;stroke-miterlimit:4;stroke-opacity:1;stroke-dasharray:none;stroke-dashoffset:0"
       sodipodi:type="arc" />
    <path
       sodipodi:nodetypes="cc"
       inkscape:connector-curvature="0"
       id="path6815"
       d="m 222.83798,592.71368 36.29426,-25.5398"
       style="fill:none;stroke:#000000;stroke-width:1.25;stroke-linecap:butt;stroke-linejoin:miter;stroke-miterlimit:4;stroke-opacity:1;stroke-dasharray:none;marker-end:url(#Arrow2Mend)" />
    <path
       inkscape:connector-curvature="0"
       id="path7631"
       d="m 276.80091,719.6711 77.81261,-60.9492"
       style="fill:none;stroke:#000000;stroke-width:1.25;stroke-linecap:butt;stroke-linejoin:miter;stroke-miterlimit:4;stroke-opacity:1;stroke-dasharray:none;marker-end:url(#Arrow2Mend)" />
    <path
       sodipodi:nodetypes="cc"
       inkscape:connector-curvature="0"
       id="path7817"
       d="M 269.81464,717.74385 220.18802,601.8681"
       style="fill:none;stroke:#000000;stroke-width:1.25;stroke-linecap:butt;stroke-linejoin:miter;stroke-miterlimit:4;stroke-opacity:1;stroke-dasharray:none;marker-end:url(#Arrow2Mend)" />
    <path
       sodipodi:nodetypes="cc"
       inkscape:connector-curvature="0"
       id="path8003"
       d="m 223.31979,597.7727 130.0892,55.16746"
       style="fill:none;stroke:#000000;stroke-width:1.25;stroke-linecap:butt;stroke-linejoin:miter;stroke-miterlimit:4;stroke-opacity:1;stroke-dasharray:none;marker-end:url(#Arrow2Mend)" />
    <path
       d="m 542.22006,605.85846 a 223.51056,146.4201 0 1 1 -447.021116,0 223.51056,146.4201 0 1 1 447.021116,0 z"
       sodipodi:ry="146.4201"
       sodipodi:rx="223.51056"
       sodipodi:cy="605.85846"
       sodipodi:cx="318.7095"
       id="path8189"
       style="opacity:0.98999999;fill:none;stroke:#000000;stroke-width:1.25;stroke-linecap:round;stroke-linejoin:round;stroke-miterlimit:4;stroke-opacity:1;stroke-dasharray:none;stroke-dashoffset:0"
       sodipodi:type="arc" />
    <path
       transform="matrix(0.08878384,0,0,0.08244214,748.65192,552.16125)"
       d="m 325.71429,540.93359 a 55.714287,60 0 1 1 -111.42858,0 55.714287,60 0 1 1 111.42858,0 z"
       sodipodi:ry="60"
       sodipodi:rx="55.714287"
       sodipodi:cy="540.93359"
       sodipodi:cx="270"
       id="path6266-8"
       style="opacity:0.98999999000000005;fill:#8c510a;fill-opacity:1;stroke:#000000;stroke-width:14.61061287000000064;stroke-linecap:round;stroke-linejoin:round;stroke-miterlimit:4;stroke-opacity:1;stroke-dasharray:none;stroke-dashoffset:0"
       sodipodi:type="arc" />
    <path
       transform="matrix(0.08878384,0,0,0.08244214,889.05677,610.61274)"
       d="m 325.71429,540.93359 a 55.714287,60 0 1 1 -111.42858,0 55.714287,60 0 1 1 111.42858,0 z"
       sodipodi:ry="60"
       sodipodi:rx="55.714287"
       sodipodi:cy="540.93359"
       sodipodi:cx="270"
       id="path6266-1-9"
       style="opacity:0.98999999000000005;fill:#8c510a;fill-opacity:1;stroke:#000000;stroke-width:14.61061287000000064;stroke-linecap:round;stroke-linejoin:round;stroke-miterlimit:4;stroke-opacity:1;stroke-dasharray:none;stroke-dashoffset:0"
       sodipodi:type="arc" />
    <path
       transform="matrix(0.08878384,0,0,0.08244214,794.80901,519.00213)"
       d="m 325.71429,540.93359 a 55.714287,60 0 1 1 -111.42858,0 55.714287,60 0 1 1 111.42858,0 z"
       sodipodi:ry="60"
       sodipodi:rx="55.714287"
       sodipodi:cy="540.93359"
       sodipodi:cx="270"
       id="path6266-4-7"
       style="opacity:0.98999999000000005;fill:#8c510a;fill-opacity:1;stroke:#000000;stroke-width:14.61061287000000064;stroke-linecap:round;stroke-linejoin:round;stroke-miterlimit:4;stroke-opacity:1;stroke-dasharray:none;stroke-dashoffset:0"
       sodipodi:type="arc" />
    <path
       transform="matrix(0.08878384,0,0,0.08244214,802.136,677.87286)"
       d="m 325.71429,540.93359 a 55.714287,60 0 1 1 -111.42858,0 55.714287,60 0 1 1 111.42858,0 z"
       sodipodi:ry="60"
       sodipodi:rx="55.714287"
       sodipodi:cy="540.93359"
       sodipodi:cx="270"
       id="path6266-15-3"
       style="opacity:0.98999999000000005;fill:#8c510a;fill-opacity:1;stroke:#000000;stroke-width:14.61061287000000064;stroke-linecap:round;stroke-linejoin:round;stroke-miterlimit:4;stroke-opacity:1;stroke-dasharray:none;stroke-dashoffset:0"
       sodipodi:type="arc" />
    <path
       transform="matrix(0.08878384,0,0,0.08244214,900.47,537.48992)"
       d="m 325.71429,540.93359 a 55.714287,60 0 1 1 -111.42858,0 55.714287,60 0 1 1 111.42858,0 z"
       sodipodi:ry="60"
       sodipodi:rx="55.714287"
       sodipodi:cy="540.93359"
       sodipodi:cx="270"
       id="path6266-12-0"
       style="opacity:0.98999999000000005;fill:#8c510a;fill-opacity:1;stroke:#000000;stroke-width:14.61061287000000064;stroke-linecap:round;stroke-linejoin:round;stroke-miterlimit:4;stroke-opacity:1;stroke-dasharray:none;stroke-dashoffset:0"
       sodipodi:type="arc" />
    <path
       sodipodi:nodetypes="cc"
       inkscape:connector-curvature="0"
       id="path6815-4"
       d="m 776.77334,593.48913 36.32174,-26.11688"
       style="fill:none;stroke:#000000;stroke-width:1.25;stroke-linecap:butt;stroke-linejoin:miter;stroke-miterlimit:4;stroke-opacity:1;stroke-dasharray:none;marker-end:url(#Arrow2Mend)" />
    <path
       inkscape:connector-curvature="0"
       id="path7631-2"
       d="m 830.76375,719.86947 77.81261,-60.9492"
       style="fill:none;stroke:#000000;stroke-width:1.25;stroke-linecap:butt;stroke-linejoin:miter;stroke-miterlimit:4;stroke-opacity:1;stroke-dasharray:none;marker-end:url(#Arrow2Mend)" />
    <path
       sodipodi:nodetypes="cc"
       inkscape:connector-curvature="0"
       id="path7817-4"
       d="M 823.77748,717.94222 775.05769,603.16566"
       style="fill:none;stroke:#000000;stroke-width:1.25;stroke-linecap:butt;stroke-linejoin:miter;stroke-miterlimit:4;stroke-opacity:1;stroke-dasharray:none;marker-end:url(#Arrow2Mend)" />
    <path
       sodipodi:nodetypes="cc"
       inkscape:connector-curvature="0"
       id="path8003-75"
       d="m 777.28263,597.97107 130.0892,55.16746"
       style="fill:none;stroke:#000000;stroke-width:1.25;stroke-linecap:butt;stroke-linejoin:miter;stroke-miterlimit:4;stroke-opacity:1;stroke-dasharray:none;marker-end:url(#Arrow2Mend)" />
    <path
       d="m 542.22006,605.85846 a 223.51056,146.4201 0 1 1 -447.021116,0 223.51056,146.4201 0 1 1 447.021116,0 z"
       sodipodi:ry="146.4201"
       sodipodi:rx="223.51056"
       sodipodi:cy="605.85846"
       sodipodi:cx="318.7095"
       id="path8189-6"
       style="opacity:0.98999999;fill:none;stroke:#000000;stroke-width:1.25;stroke-linecap:round;stroke-linejoin:round;stroke-miterlimit:4;stroke-opacity:1;stroke-dasharray:none;stroke-dashoffset:0"
       sodipodi:type="arc"
       transform="translate(553.96283,0.19837)" />
    <path
       transform="matrix(0.08878384,0,0,0.08244214,831.25321,452.9532)"
       d="m 325.71429,540.93359 a 55.714287,60 0 1 1 -111.42858,0 55.714287,60 0 1 1 111.42858,0 z"
       sodipodi:ry="60"
       sodipodi:rx="55.714287"
       sodipodi:cy="540.93359"
       sodipodi:cx="270"
       id="path6266-12-0-3"
       style="opacity:0.98999999000000005;fill:#01665e;fill-opacity:1;stroke:#000000;stroke-width:14.61061287000000064;stroke-linecap:round;stroke-linejoin:round;stroke-miterlimit:4;stroke-opacity:1;stroke-dasharray:none;stroke-dashoffset:0"
       sodipodi:type="arc" />
    <path
       transform="matrix(0.08878384,0,0,0.08244214,898.52145,452.9532)"
       d="m 325.71429,540.93359 a 55.714287,60 0 1 1 -111.42858,0 55.714287,60 0 1 1 111.42858,0 z"
       sodipodi:ry="60"
       sodipodi:rx="55.714287"
       sodipodi:cy="540.93359"
       sodipodi:cx="270"
       id="path6266-12-0-4"
       style="opacity:0.98999999000000005;fill:#01665e;fill-opacity:1;stroke:#000000;stroke-width:14.61061287000000064;stroke-linecap:round;stroke-linejoin:round;stroke-miterlimit:4;stroke-opacity:1;stroke-dasharray:none;stroke-dashoffset:0"
       sodipodi:type="arc" />
    <path
       sodipodi:nodetypes="cc"
       inkscape:connector-curvature="0"
       id="path8415"
       d="m 776.09216,592.44947 74.72166,-90.48951"
       style="fill:none;stroke:#01665e;stroke-width:1.50000000000000000;stroke-linecap:butt;stroke-linejoin:miter;stroke-miterlimit:4;stroke-opacity:1;stroke-dasharray:none;marker-end:url(#marker8327)" />
    <path
       sodipodi:nodetypes="cc"
       inkscape:connector-curvature="0"
       id="path8417"
       d="M 911.45177,649.93563 857.43036,503.6141"
       style="fill:none;stroke:#01665e;stroke-width:1.50000000000000000;stroke-linecap:butt;stroke-linejoin:miter;stroke-miterlimit:4;stroke-opacity:1;stroke-dasharray:none;marker-end:url(#marker8327)" />
    <path
       sodipodi:nodetypes="cc"
       inkscape:connector-curvature="0"
       id="path8419"
       d="M 827.17679,717.09395 853.01933,504.16548"
       style="fill:none;stroke:#01665e;stroke-width:1.50000000000000000;stroke-linecap:butt;stroke-linejoin:miter;stroke-miterlimit:4;stroke-opacity:1;stroke-dasharray:none;marker-end:url(#marker8327)" />
    <path
       sodipodi:nodetypes="cc"
       inkscape:connector-curvature="0"
       id="path8421"
       d="m 924.36884,576.561 -1.32438,-72.9469"
       style="fill:none;stroke:#01665e;stroke-width:1.50000000000000000;stroke-linecap:butt;stroke-linejoin:miter;stroke-miterlimit:4;stroke-opacity:1;stroke-dasharray:none;marker-end:url(#marker8327)" />
    <path
       inkscape:connector-curvature="0"
       id="path8423"
       d="m 822.69349,560.40613 94.2858,-60.10031"
       style="fill:none;stroke:#01665e;stroke-width:1.50000000000000000;stroke-linecap:butt;stroke-linejoin:miter;stroke-miterlimit:4;stroke-opacity:1;stroke-dasharray:none;marker-end:url(#marker8327)" />
    <path
       transform="matrix(0.08878384,0,0,0.08244214,459.10854,171.783)"
       d="m 325.71429,540.93359 a 55.714287,60 0 1 1 -111.42858,0 55.714287,60 0 1 1 111.42858,0 z"
       sodipodi:ry="60"
       sodipodi:rx="55.714287"
       sodipodi:cy="540.93359"
       sodipodi:cx="270"
       id="path6266-8-3"
       style="opacity:0.98999999000000005;fill:#8c510a;fill-opacity:1;stroke:#000000;stroke-width:14.61061287000000064;stroke-linecap:round;stroke-linejoin:round;stroke-miterlimit:4;stroke-opacity:1;stroke-dasharray:none;stroke-dashoffset:0"
       sodipodi:type="arc" />
    <path
       transform="matrix(0.08878384,0,0,0.08244214,599.51339,230.23449)"
       d="m 325.71429,540.93359 a 55.714287,60 0 1 1 -111.42858,0 55.714287,60 0 1 1 111.42858,0 z"
       sodipodi:ry="60"
       sodipodi:rx="55.714287"
       sodipodi:cy="540.93359"
       sodipodi:cx="270"
       id="path6266-1-9-4"
       style="opacity:0.98999999000000005;fill:#8c510a;fill-opacity:1;stroke:#000000;stroke-width:14.61061287000000064;stroke-linecap:round;stroke-linejoin:round;stroke-miterlimit:4;stroke-opacity:1;stroke-dasharray:none;stroke-dashoffset:0"
       sodipodi:type="arc" />
    <path
       transform="matrix(0.08878384,0,0,0.08244214,505.26563,138.62388)"
       d="m 325.71429,540.93359 a 55.714287,60 0 1 1 -111.42858,0 55.714287,60 0 1 1 111.42858,0 z"
       sodipodi:ry="60"
       sodipodi:rx="55.714287"
       sodipodi:cy="540.93359"
       sodipodi:cx="270"
       id="path6266-4-7-4"
       style="opacity:0.98999999000000005;fill:#8c510a;fill-opacity:1;stroke:#000000;stroke-width:14.61061287000000064;stroke-linecap:round;stroke-linejoin:round;stroke-miterlimit:4;stroke-opacity:1;stroke-dasharray:none;stroke-dashoffset:0"
       sodipodi:type="arc" />
    <path
       transform="matrix(0.08878384,0,0,0.08244214,512.59262,297.49461)"
       d="m 325.71429,540.93359 a 55.714287,60 0 1 1 -111.42858,0 55.714287,60 0 1 1 111.42858,0 z"
       sodipodi:ry="60"
       sodipodi:rx="55.714287"
       sodipodi:cy="540.93359"
       sodipodi:cx="270"
       id="path6266-15-3-9"
       style="opacity:0.98999999000000005;fill:#8c510a;fill-opacity:1;stroke:#000000;stroke-width:14.61061287000000064;stroke-linecap:round;stroke-linejoin:round;stroke-miterlimit:4;stroke-opacity:1;stroke-dasharray:none;stroke-dashoffset:0"
       sodipodi:type="arc" />
    <path
       transform="matrix(0.08878384,0,0,0.08244214,610.92662,157.11167)"
       d="m 325.71429,540.93359 a 55.714287,60 0 1 1 -111.42858,0 55.714287,60 0 1 1 111.42858,0 z"
       sodipodi:ry="60"
       sodipodi:rx="55.714287"
       sodipodi:cy="540.93359"
       sodipodi:cx="270"
       id="path6266-12-0-1"
       style="opacity:0.98999999000000005;fill:#8c510a;fill-opacity:1;stroke:#000000;stroke-width:14.61061287000000064;stroke-linecap:round;stroke-linejoin:round;stroke-miterlimit:4;stroke-opacity:1;stroke-dasharray:none;stroke-dashoffset:0"
       sodipodi:type="arc" />
    <path
       sodipodi:nodetypes="cc"
       inkscape:connector-curvature="0"
       id="path6815-4-1"
       d="M 487.22996,213.11088 523.5517,186.994"
       style="fill:none;stroke:#000000;stroke-width:1.25;stroke-linecap:butt;stroke-linejoin:miter;stroke-miterlimit:4;stroke-opacity:1;stroke-dasharray:none;marker-end:url(#Arrow2Mend)" />
    <path
       inkscape:connector-curvature="0"
       id="path7631-2-9"
       d="m 541.22037,339.49122 77.81261,-60.9492"
       style="fill:none;stroke:#000000;stroke-width:1.25;stroke-linecap:butt;stroke-linejoin:miter;stroke-miterlimit:4;stroke-opacity:1;stroke-dasharray:none;marker-end:url(#Arrow2Mend)" />
    <path
       sodipodi:nodetypes="cc"
       inkscape:connector-curvature="0"
       id="path7817-4-0"
       d="M 534.2341,337.56397 485.51431,222.78741"
       style="fill:none;stroke:#000000;stroke-width:1.25;stroke-linecap:butt;stroke-linejoin:miter;stroke-miterlimit:4;stroke-opacity:1;stroke-dasharray:none;marker-end:url(#Arrow2Mend)" />
    <path
       sodipodi:nodetypes="cc"
       inkscape:connector-curvature="0"
       id="path8003-75-2"
       d="m 487.73925,217.59282 130.0892,55.16746"
       style="fill:none;stroke:#000000;stroke-width:1.25;stroke-linecap:butt;stroke-linejoin:miter;stroke-miterlimit:4;stroke-opacity:1;stroke-dasharray:none;marker-end:url(#Arrow2Mend)" />
    <path
       d="m 542.22006,605.85846 a 223.51056,146.4201 0 1 1 -447.021116,0 223.51056,146.4201 0 1 1 447.021116,0 z"
       sodipodi:ry="146.4201"
       sodipodi:rx="223.51056"
       sodipodi:cy="605.85846"
       sodipodi:cx="318.7095"
       id="path8189-6-4"
       style="opacity:0.98999999;fill:none;stroke:#000000;stroke-width:1.25;stroke-linecap:round;stroke-linejoin:round;stroke-miterlimit:4;stroke-opacity:1;stroke-dasharray:none;stroke-dashoffset:0"
       sodipodi:type="arc"
       transform="translate(264.41944,-380.17988)" />
    <path
       transform="matrix(0.08878384,0,0,0.08244214,541.70983,72.574954)"
       d="m 325.71429,540.93359 a 55.714287,60 0 1 1 -111.42858,0 55.714287,60 0 1 1 111.42858,0 z"
       sodipodi:ry="60"
       sodipodi:rx="55.714287"
       sodipodi:cy="540.93359"
       sodipodi:cx="270"
       id="path6266-12-0-3-8"
       style="opacity:0.98999999000000005;fill:#01665e;fill-opacity:1;stroke:#000000;stroke-width:14.61061287000000064;stroke-linecap:round;stroke-linejoin:round;stroke-miterlimit:4;stroke-opacity:1;stroke-dasharray:none;stroke-dashoffset:0"
       sodipodi:type="arc" />
    <path
       sodipodi:nodetypes="cc"
       inkscape:connector-curvature="0"
       id="path8415-1"
       d="m 486.54878,212.07122 74.72166,-90.48951"
       style="fill:none;stroke:#01665e;stroke-width:1.50000000000000000;stroke-linecap:butt;stroke-linejoin:miter;stroke-miterlimit:4;stroke-opacity:1;stroke-dasharray:none;marker-end:url(#marker8327)" />
    <path
       sodipodi:nodetypes="cc"
       inkscape:connector-curvature="0"
       id="path8417-9"
       d="M 621.90839,269.55738 567.88698,123.23585"
       style="fill:none;stroke:#01665e;stroke-width:1.50000000000000000;stroke-linecap:butt;stroke-linejoin:miter;stroke-miterlimit:4;stroke-opacity:1;stroke-dasharray:none;marker-end:url(#marker8327)" />
    <path
       sodipodi:nodetypes="cc"
       inkscape:connector-curvature="0"
       id="path8419-2"
       d="M 537.63341,336.7157 563.47595,123.78723"
       style="fill:none;stroke:#01665e;stroke-width:1.50000000000000000;stroke-linecap:butt;stroke-linejoin:miter;stroke-miterlimit:4;stroke-opacity:1;stroke-dasharray:none;marker-end:url(#marker8327)" />
    <path
       sodipodi:nodetypes="cc"
       inkscape:connector-curvature="0"
       id="path8767"
       d="m 543.19979,607.11857 102.03203,-0.32681"
       style="fill:none;stroke:#000000;stroke-width:3;stroke-linecap:round;stroke-linejoin:miter;stroke-miterlimit:4;stroke-opacity:1;stroke-dasharray:none;marker-end:url(#marker8671)" />
    <path
       sodipodi:nodetypes="cc"
       inkscape:connector-curvature="0"
       id="path8769"
       d="M 881.72178,458.92325 764.04302,317.06857"
       style="fill:none;stroke:#000000;stroke-width:3;stroke-linecap:round;stroke-linejoin:miter;stroke-miterlimit:4;stroke-opacity:1;stroke-dasharray:none;marker-end:url(#marker8671)" />
    <path
       sodipodi:nodetypes="cc"
       inkscape:connector-curvature="0"
       id="path8769-8"
       d="M 285.31181,460.23618 395.2098,309.64591"
       style="fill:none;stroke:#000000;stroke-width:3;stroke-linecap:round;stroke-linejoin:miter;stroke-miterlimit:4;stroke-opacity:1;stroke-dasharray:none;marker-end:url(#marker8671)" />
    <path
       sodipodi:nodetypes="cc"
       inkscape:connector-curvature="0"
       id="path8769-3"
       d="M 837.16753,457.92881 736.9231,333.29448"
       style="fill:none;stroke:#000000;stroke-width:3;stroke-linecap:round;stroke-linejoin:miter;stroke-miterlimit:4;stroke-opacity:1;stroke-dasharray:none;marker-start:url(#Arrow2Mstart);marker-end:none" />
    <g
       id="g9835"
       transform="translate(579.38916,200.44882)">
      <g
         word-spacing="normal"
         letter-spacing="normal"
         font-size-adjust="none"
         font-stretch="normal"
         font-weight="normal"
         font-variant="normal"
         font-style="normal"
         stroke-miterlimit="10.433"
         xml:space="preserve"
         transform="matrix(0.9635314,0,0,-0.9635314,-168.61799,751.68308)"
         id="content"
         style="font-style:normal;font-variant:normal;font-weight:normal;font-stretch:normal;letter-spacing:normal;word-spacing:normal;text-anchor:start;fill:none;stroke:#000000;stroke-linecap:butt;stroke-linejoin:miter;stroke-miterlimit:10.43299961;stroke-opacity:1;stroke-dasharray:none;stroke-dashoffset:0"><path
           id="path9838"
           d="m 465.08,418.65 0,0.14 -0.01,0.13 -0.02,0.13 -0.02,0.13 -0.03,0.13 -0.04,0.13 -0.04,0.12 -0.05,0.12 -0.05,0.11 -0.06,0.12 -0.06,0.11 -0.07,0.11 -0.07,0.1 -0.08,0.1 -0.09,0.1 -0.08,0.09 -0.1,0.08 -0.09,0.09 -0.1,0.08 -0.1,0.07 -0.11,0.07 -0.11,0.06 -0.12,0.06 -0.11,0.05 -0.12,0.05 -0.13,0.04 -0.12,0.04 -0.13,0.03 -0.13,0.02 -0.13,0.02 -0.13,0.01 -0.14,0 c -1.44,0 -2.64,-1.18 -2.64,-2.64 0,-1.44 1.2,-2.64 2.64,-2.64 1.45,0 2.64,1.2 2.64,2.64 z"
           inkscape:connector-curvature="0"
           style="fill:#000000;stroke-width:0" /><path
           id="path9840"
           d="m 487.16,418.65 0,0.14 -0.01,0.13 -0.02,0.13 -0.02,0.13 -0.03,0.13 -0.04,0.13 -0.04,0.12 -0.05,0.12 -0.05,0.11 -0.06,0.12 -0.06,0.11 -0.07,0.11 -0.08,0.1 -0.07,0.1 -0.09,0.1 -0.09,0.09 -0.09,0.08 -0.09,0.09 -0.1,0.08 -0.11,0.07 -0.1,0.07 -0.11,0.06 -0.12,0.06 -0.11,0.05 -0.12,0.05 -0.13,0.04 -0.12,0.04 -0.13,0.03 -0.13,0.02 -0.13,0.02 -0.13,0.01 -0.14,0 c -1.44,0 -2.64,-1.18 -2.64,-2.64 0,-1.44 1.2,-2.64 2.64,-2.64 1.45,0 2.64,1.2 2.64,2.64 z"
           inkscape:connector-curvature="0"
           style="fill:#000000;stroke-width:0" /><path
           id="path9842"
           d="m 509.23,418.65 0,0.14 -0.01,0.13 -0.02,0.13 -0.02,0.13 -0.03,0.13 -0.04,0.13 -0.04,0.12 -0.04,0.12 -0.06,0.11 -0.06,0.12 -0.06,0.11 -0.07,0.11 -0.07,0.1 -0.08,0.1 -0.08,0.1 -0.09,0.09 -0.09,0.08 -0.1,0.09 -0.1,0.08 -0.1,0.07 -0.11,0.07 -0.11,0.06 -0.11,0.06 -0.12,0.05 -0.12,0.05 -0.12,0.04 -0.13,0.04 -0.13,0.03 -0.13,0.02 -0.13,0.02 -0.13,0.01 -0.14,0 c -1.43,0 -2.64,-1.18 -2.64,-2.64 0,-1.44 1.21,-2.64 2.64,-2.64 1.46,0 2.64,1.2 2.64,2.64 z"
           inkscape:connector-curvature="0"
           style="fill:#000000;stroke-width:0" /></g>    </g>
  </g>
</svg>
