<?xml version="1.0" encoding="UTF-8" standalone="no"?>
<!-- Created with Inkscape (http://www.inkscape.org/) -->

<svg
   xmlns:dc="http://purl.org/dc/elements/1.1/"
   xmlns:cc="http://creativecommons.org/ns#"
   xmlns:rdf="http://www.w3.org/1999/02/22-rdf-syntax-ns#"
   xmlns:svg="http://www.w3.org/2000/svg"
   xmlns="http://www.w3.org/2000/svg"
   xmlns:xlink="http://www.w3.org/1999/xlink"
   xmlns:sodipodi="http://sodipodi.sourceforge.net/DTD/sodipodi-0.dtd"
   xmlns:inkscape="http://www.inkscape.org/namespaces/inkscape"
   width="2183.0278"
   height="570.31384"
   id="svg3047"
   version="1.1"
   inkscape:version="0.48.3.1 r9886"
   sodipodi:docname="New document 1">
  <sodipodi:namedview
     id="base"
     pagecolor="#ffffff"
     bordercolor="#666666"
     borderopacity="1.0"
     inkscape:pageopacity="0.0"
     inkscape:pageshadow="2"
     inkscape:zoom="0.65734389"
     inkscape:cx="1091.5139"
     inkscape:cy="239.51142"
     inkscape:document-units="px"
     inkscape:current-layer="layer1"
     showgrid="false"
     inkscape:window-width="1920"
     inkscape:window-height="1176"
     inkscape:window-x="1920"
     inkscape:window-y="24"
     inkscape:window-maximized="1" />
  <defs
     id="defs3049">
    <linearGradient
       inkscape:collect="always"
       xlink:href="#linearGradient3155"
       id="linearGradient3161"
       x1="364.04123"
       y1="564.32269"
       x2="364.11716"
       y2="719.52771"
       gradientUnits="userSpaceOnUse" />
    <linearGradient
       id="linearGradient3155">
      <stop
         style="stop-color:#3755d3;stop-opacity:1;"
         offset="0"
         id="stop3157" />
      <stop
         style="stop-color:#183aca;stop-opacity:0;"
         offset="1"
         id="stop3159" />
    </linearGradient>
    <linearGradient
       inkscape:collect="always"
       xlink:href="#linearGradient3173"
       id="linearGradient3171"
       x1="253.98857"
       y1="683.08185"
       x2="253.98857"
       y2="624.09778"
       gradientUnits="userSpaceOnUse" />
    <linearGradient
       id="linearGradient3173">
      <stop
         id="stop3175"
         offset="0"
         style="stop-color:#ff0b0b;stop-opacity:1;" />
      <stop
         id="stop3177"
         offset="1"
         style="stop-color:#530909;stop-opacity:0.12941177;" />
    </linearGradient>
    <linearGradient
       inkscape:collect="always"
       xlink:href="#linearGradient3227"
       id="linearGradient3181"
       gradientUnits="userSpaceOnUse"
       x1="253.98857"
       y1="683.08185"
       x2="253.98857"
       y2="624.09778" />
    <linearGradient
       id="linearGradient3227">
      <stop
         style="stop-color:#1bde00;stop-opacity:1;"
         offset="0"
         id="stop3229" />
      <stop
         style="stop-color:#09530b;stop-opacity:0.12941177;"
         offset="1"
         id="stop3231" />
    </linearGradient>
    <linearGradient
       id="linearGradient3155-1">
      <stop
         style="stop-color:#3755d3;stop-opacity:1;"
         offset="0"
         id="stop3157-5" />
      <stop
         style="stop-color:#183aca;stop-opacity:0;"
         offset="1"
         id="stop3159-9" />
    </linearGradient>
    <linearGradient
       id="linearGradient3173-6">
      <stop
         id="stop3175-4"
         offset="0"
         style="stop-color:#ff0b0b;stop-opacity:1;" />
      <stop
         id="stop3177-0"
         offset="1"
         style="stop-color:#530909;stop-opacity:0.12941177;" />
    </linearGradient>
    <linearGradient
       id="linearGradient3227-1">
      <stop
         style="stop-color:#1bde00;stop-opacity:1;"
         offset="0"
         id="stop3229-7" />
      <stop
         style="stop-color:#09530b;stop-opacity:0.12941177;"
         offset="1"
         id="stop3231-4" />
    </linearGradient>
    <linearGradient
       id="linearGradient3094">
      <stop
         id="stop3096"
         offset="0"
         style="stop-color:#ff0b0b;stop-opacity:1;" />
      <stop
         id="stop3098"
         offset="1"
         style="stop-color:#530909;stop-opacity:0.12941177;" />
    </linearGradient>
    <linearGradient
       inkscape:collect="always"
       id="linearGradient3259">
      <stop
         style="stop-color:#000000;stop-opacity:1;"
         offset="0"
         id="stop3261" />
      <stop
         style="stop-color:#000000;stop-opacity:0;"
         offset="1"
         id="stop3263" />
    </linearGradient>
    <linearGradient
       id="linearGradient3105">
      <stop
         style="stop-color:#1bde00;stop-opacity:1;"
         offset="0"
         id="stop3107" />
      <stop
         style="stop-color:#09530b;stop-opacity:0.12941177;"
         offset="1"
         id="stop3109" />
    </linearGradient>
    <linearGradient
       inkscape:collect="always"
       xlink:href="#linearGradient3155-7"
       id="linearGradient3083"
       gradientUnits="userSpaceOnUse"
       x1="479.24316"
       y1="470.70312"
       x2="479.57663"
       y2="591.80707" />
    <linearGradient
       id="linearGradient3155-7">
      <stop
         style="stop-color:#3755d3;stop-opacity:1;"
         offset="0"
         id="stop3157-9" />
      <stop
         style="stop-color:#183aca;stop-opacity:0;"
         offset="1"
         id="stop3159-7" />
    </linearGradient>
    <linearGradient
       inkscape:collect="always"
       xlink:href="#linearGradient3314"
       id="linearGradient3085"
       gradientUnits="userSpaceOnUse"
       x1="471.19318"
       y1="592.52765"
       x2="467.90359"
       y2="446.26862" />
    <linearGradient
       inkscape:collect="always"
       id="linearGradient3314">
      <stop
         style="stop-color:#000000;stop-opacity:1;"
         offset="0"
         id="stop3316" />
      <stop
         style="stop-color:#000000;stop-opacity:0;"
         offset="1"
         id="stop3318" />
    </linearGradient>
    <clipPath
       clipPathUnits="userSpaceOnUse"
       id="clipPath3420">
      <path
         inkscape:connector-curvature="0"
         style="fill:none;stroke:#000000;stroke-width:1px;stroke-linecap:butt;stroke-linejoin:miter;stroke-opacity:1"
         d="m 343.28014,608.54476 44.38119,19.57994 304.79437,-5.22132 -0.65266,-158.59749 -350.48089,-0.65267 1.95799,144.89154 z"
         id="path3422" />
    </clipPath>
    <linearGradient
       inkscape:collect="always"
       xlink:href="#linearGradient3155-7"
       id="linearGradient3133"
       gradientUnits="userSpaceOnUse"
       gradientTransform="translate(2.1478355,-249.06369)"
       x1="227.95441"
       y1="627.0332"
       x2="231.28769"
       y2="755.80035" />
    <linearGradient
       id="linearGradient3194">
      <stop
         style="stop-color:#3755d3;stop-opacity:1;"
         offset="0"
         id="stop3196" />
      <stop
         style="stop-color:#183aca;stop-opacity:0;"
         offset="1"
         id="stop3198" />
    </linearGradient>
    <linearGradient
       inkscape:collect="always"
       xlink:href="#linearGradient3314"
       id="linearGradient3135"
       gradientUnits="userSpaceOnUse"
       gradientTransform="translate(2.1478355,-249.06369)"
       x1="257.64426"
       y1="754.98828"
       x2="258.54688"
       y2="612.86127" />
    <linearGradient
       inkscape:collect="always"
       xlink:href="#linearGradient3155-7"
       id="linearGradient3091"
       gradientUnits="userSpaceOnUse"
       x1="364.04123"
       y1="564.32269"
       x2="364.11716"
       y2="719.52771" />
    <linearGradient
       id="linearGradient3208">
      <stop
         style="stop-color:#3755d3;stop-opacity:1;"
         offset="0"
         id="stop3210" />
      <stop
         style="stop-color:#183aca;stop-opacity:0;"
         offset="1"
         id="stop3212" />
    </linearGradient>
    <linearGradient
       inkscape:collect="always"
       xlink:href="#linearGradient3173-4"
       id="linearGradient3093"
       gradientUnits="userSpaceOnUse"
       x1="253.98857"
       y1="683.08185"
       x2="253.98857"
       y2="624.09778" />
    <linearGradient
       id="linearGradient3173-4">
      <stop
         id="stop3175-3"
         offset="0"
         style="stop-color:#ff0b0b;stop-opacity:1;" />
      <stop
         id="stop3177-2"
         offset="1"
         style="stop-color:#530909;stop-opacity:0.12941177;" />
    </linearGradient>
    <linearGradient
       inkscape:collect="always"
       xlink:href="#linearGradient3227-6"
       id="linearGradient3095"
       gradientUnits="userSpaceOnUse"
       x1="253.98857"
       y1="683.08185"
       x2="253.98857"
       y2="624.09778" />
    <linearGradient
       id="linearGradient3227-6">
      <stop
         style="stop-color:#1bde00;stop-opacity:1;"
         offset="0"
         id="stop3229-8" />
      <stop
         style="stop-color:#09530b;stop-opacity:0.12941177;"
         offset="1"
         id="stop3231-2" />
    </linearGradient>
    <linearGradient
       inkscape:collect="always"
       xlink:href="#linearGradient3173-4"
       id="linearGradient3097"
       gradientUnits="userSpaceOnUse"
       x1="253.98857"
       y1="683.08185"
       x2="253.98857"
       y2="624.09778" />
    <linearGradient
       id="linearGradient3223">
      <stop
         id="stop3225"
         offset="0"
         style="stop-color:#ff0b0b;stop-opacity:1;" />
      <stop
         id="stop3227"
         offset="1"
         style="stop-color:#530909;stop-opacity:0.12941177;" />
    </linearGradient>
    <linearGradient
       inkscape:collect="always"
       xlink:href="#linearGradient3259-8"
       id="linearGradient3099"
       gradientUnits="userSpaceOnUse"
       x1="235.47993"
       y1="678.47736"
       x2="234.91006"
       y2="624.09778" />
    <linearGradient
       inkscape:collect="always"
       id="linearGradient3259-8">
      <stop
         style="stop-color:#000000;stop-opacity:1;"
         offset="0"
         id="stop3261-0" />
      <stop
         style="stop-color:#000000;stop-opacity:0;"
         offset="1"
         id="stop3263-2" />
    </linearGradient>
    <linearGradient
       inkscape:collect="always"
       xlink:href="#linearGradient3227-6"
       id="linearGradient3101"
       gradientUnits="userSpaceOnUse"
       x1="253.98857"
       y1="683.08185"
       x2="253.98857"
       y2="624.09778" />
    <linearGradient
       id="linearGradient3234">
      <stop
         style="stop-color:#1bde00;stop-opacity:1;"
         offset="0"
         id="stop3236" />
      <stop
         style="stop-color:#09530b;stop-opacity:0.12941177;"
         offset="1"
         id="stop3238" />
    </linearGradient>
    <linearGradient
       inkscape:collect="always"
       xlink:href="#linearGradient3259-8"
       id="linearGradient3103"
       gradientUnits="userSpaceOnUse"
       x1="235.47993"
       y1="678.47736"
       x2="234.91006"
       y2="624.09778" />
    <linearGradient
       inkscape:collect="always"
       xlink:href="#linearGradient3155-1"
       id="linearGradient3516"
       gradientUnits="userSpaceOnUse"
       x1="364.04123"
       y1="564.32269"
       x2="364.11716"
       y2="719.52771" />
    <linearGradient
       inkscape:collect="always"
       xlink:href="#linearGradient3173-6"
       id="linearGradient3518"
       gradientUnits="userSpaceOnUse"
       x1="253.98857"
       y1="683.08185"
       x2="253.98857"
       y2="624.09778" />
    <linearGradient
       inkscape:collect="always"
       xlink:href="#linearGradient3227-1"
       id="linearGradient3520"
       gradientUnits="userSpaceOnUse"
       x1="253.98857"
       y1="683.08185"
       x2="253.98857"
       y2="624.09778" />
    <linearGradient
       inkscape:collect="always"
       xlink:href="#linearGradient3173-6"
       id="linearGradient3522"
       gradientUnits="userSpaceOnUse"
       x1="253.98857"
       y1="683.08185"
       x2="253.98857"
       y2="624.09778" />
    <linearGradient
       inkscape:collect="always"
       xlink:href="#linearGradient3259"
       id="linearGradient3524"
       gradientUnits="userSpaceOnUse"
       x1="235.47993"
       y1="678.47736"
       x2="234.91006"
       y2="624.09778" />
    <linearGradient
       inkscape:collect="always"
       xlink:href="#linearGradient3227-1"
       id="linearGradient3526"
       gradientUnits="userSpaceOnUse"
       x1="253.98857"
       y1="683.08185"
       x2="253.98857"
       y2="624.09778" />
    <linearGradient
       inkscape:collect="always"
       xlink:href="#linearGradient3259"
       id="linearGradient3528"
       gradientUnits="userSpaceOnUse"
       x1="235.47993"
       y1="678.47736"
       x2="234.91006"
       y2="624.09778" />
    <linearGradient
       inkscape:collect="always"
       xlink:href="#linearGradient3155"
       id="linearGradient10383"
       gradientUnits="userSpaceOnUse"
       x1="364.04123"
       y1="564.32269"
       x2="364.11716"
       y2="719.52771" />
    <linearGradient
       inkscape:collect="always"
       xlink:href="#linearGradient3173"
       id="linearGradient10385"
       gradientUnits="userSpaceOnUse"
       x1="253.98857"
       y1="683.08185"
       x2="253.98857"
       y2="624.09778" />
    <linearGradient
       inkscape:collect="always"
       xlink:href="#linearGradient3227"
       id="linearGradient10387"
       gradientUnits="userSpaceOnUse"
       x1="253.98857"
       y1="683.08185"
       x2="253.98857"
       y2="624.09778" />
    <linearGradient
       inkscape:collect="always"
       xlink:href="#linearGradient3155-1"
       id="linearGradient10389"
       gradientUnits="userSpaceOnUse"
       x1="364.04123"
       y1="564.32269"
       x2="364.11716"
       y2="719.52771" />
    <linearGradient
       inkscape:collect="always"
       xlink:href="#linearGradient3173-6"
       id="linearGradient10391"
       gradientUnits="userSpaceOnUse"
       x1="253.98857"
       y1="683.08185"
       x2="253.98857"
       y2="624.09778" />
    <linearGradient
       inkscape:collect="always"
       xlink:href="#linearGradient3227-1"
       id="linearGradient10393"
       gradientUnits="userSpaceOnUse"
       x1="253.98857"
       y1="683.08185"
       x2="253.98857"
       y2="624.09778" />
    <linearGradient
       inkscape:collect="always"
       xlink:href="#linearGradient3173-6"
       id="linearGradient10395"
       gradientUnits="userSpaceOnUse"
       x1="253.98857"
       y1="683.08185"
       x2="253.98857"
       y2="624.09778" />
    <linearGradient
       inkscape:collect="always"
       xlink:href="#linearGradient3259"
       id="linearGradient10397"
       gradientUnits="userSpaceOnUse"
       x1="235.47993"
       y1="678.47736"
       x2="234.91006"
       y2="624.09778" />
    <linearGradient
       inkscape:collect="always"
       xlink:href="#linearGradient3227-1"
       id="linearGradient10399"
       gradientUnits="userSpaceOnUse"
       x1="253.98857"
       y1="683.08185"
       x2="253.98857"
       y2="624.09778" />
    <linearGradient
       inkscape:collect="always"
       xlink:href="#linearGradient3259"
       id="linearGradient10401"
       gradientUnits="userSpaceOnUse"
       x1="235.47993"
       y1="678.47736"
       x2="234.91006"
       y2="624.09778" />
    <linearGradient
       inkscape:collect="always"
       xlink:href="#linearGradient3155-7"
       id="linearGradient10403"
       gradientUnits="userSpaceOnUse"
       x1="479.24316"
       y1="470.70312"
       x2="479.57663"
       y2="591.80707" />
    <linearGradient
       inkscape:collect="always"
       xlink:href="#linearGradient3314"
       id="linearGradient10405"
       gradientUnits="userSpaceOnUse"
       x1="471.19318"
       y1="592.52765"
       x2="467.90359"
       y2="446.26862" />
    <linearGradient
       inkscape:collect="always"
       xlink:href="#linearGradient3155-7"
       id="linearGradient10407"
       gradientUnits="userSpaceOnUse"
       gradientTransform="translate(2.1478355,-249.06369)"
       x1="227.95441"
       y1="627.0332"
       x2="231.28769"
       y2="755.80035" />
    <linearGradient
       inkscape:collect="always"
       xlink:href="#linearGradient3314"
       id="linearGradient10409"
       gradientUnits="userSpaceOnUse"
       gradientTransform="translate(2.1478355,-249.06369)"
       x1="257.64426"
       y1="754.98828"
       x2="258.54688"
       y2="612.86127" />
    <linearGradient
       inkscape:collect="always"
       xlink:href="#linearGradient3155-7"
       id="linearGradient10411"
       gradientUnits="userSpaceOnUse"
       x1="364.04123"
       y1="564.32269"
       x2="364.11716"
       y2="719.52771" />
    <linearGradient
       inkscape:collect="always"
       xlink:href="#linearGradient3173-4"
       id="linearGradient10413"
       gradientUnits="userSpaceOnUse"
       x1="253.98857"
       y1="683.08185"
       x2="253.98857"
       y2="624.09778" />
    <linearGradient
       inkscape:collect="always"
       xlink:href="#linearGradient3227-6"
       id="linearGradient10415"
       gradientUnits="userSpaceOnUse"
       x1="253.98857"
       y1="683.08185"
       x2="253.98857"
       y2="624.09778" />
    <linearGradient
       inkscape:collect="always"
       xlink:href="#linearGradient3173-4"
       id="linearGradient10417"
       gradientUnits="userSpaceOnUse"
       x1="253.98857"
       y1="683.08185"
       x2="253.98857"
       y2="624.09778" />
    <linearGradient
       inkscape:collect="always"
       xlink:href="#linearGradient3259-8"
       id="linearGradient10419"
       gradientUnits="userSpaceOnUse"
       x1="235.47993"
       y1="678.47736"
       x2="234.91006"
       y2="624.09778" />
    <linearGradient
       inkscape:collect="always"
       xlink:href="#linearGradient3227-6"
       id="linearGradient10421"
       gradientUnits="userSpaceOnUse"
       x1="253.98857"
       y1="683.08185"
       x2="253.98857"
       y2="624.09778" />
    <linearGradient
       inkscape:collect="always"
       xlink:href="#linearGradient3259-8"
       id="linearGradient10423"
       gradientUnits="userSpaceOnUse"
       x1="235.47993"
       y1="678.47736"
       x2="234.91006"
       y2="624.09778" />
  </defs>
  <metadata
     id="metadata3052">
    <rdf:RDF>
      <cc:Work
         rdf:about="">
        <dc:format>image/svg+xml</dc:format>
        <dc:type
           rdf:resource="http://purl.org/dc/dcmitype/StillImage" />
        <dc:title></dc:title>
      </cc:Work>
    </rdf:RDF>
  </metadata>
  <g
     inkscape:label="Layer 1"
     inkscape:groupmode="layer"
     id="layer1"
     transform="translate(382.16044,163.49949)">
    <g
       transform="translate(-443.21453,-288.86474)"
       id="g3020">
      <path
         transform="translate(2.1478355,2.1478355)"
         d="m 686.54932,635.40485 c 0,31.1188 -140.10565,56.34558 -312.93473,56.34558 -172.82907,0 -312.934719,-25.22678 -312.934719,-56.34558 0,-31.11881 140.105649,-56.34559 312.934719,-56.34559 172.82908,0 312.93473,25.22678 312.93473,56.34559 z"
         sodipodi:ry="56.345585"
         sodipodi:rx="312.93472"
         sodipodi:cy="635.40485"
         sodipodi:cx="373.61459"
         id="path2383"
         style="fill:url(#linearGradient10383);fill-opacity:1;stroke:#000000;stroke-width:3.54330707;stroke-miterlimit:4;stroke-opacity:1;stroke-dasharray:none"
         sodipodi:type="arc" />
      <path
         transform="translate(-6.5207163,-15.189269)"
         d="m 372.74773,648.40765 c 0,12.44753 -53.17028,22.53824 -118.75916,22.53824 -65.58887,0 -118.75916,-10.09071 -118.75916,-22.53824 0,-12.44752 53.17029,-22.53823 118.75916,-22.53823 65.58888,0 118.75916,10.09071 118.75916,22.53823 z"
         sodipodi:ry="22.538235"
         sodipodi:rx="118.75916"
         sodipodi:cy="648.40765"
         sodipodi:cx="253.98857"
         id="path3163"
         style="fill:url(#linearGradient10385);fill-opacity:1;stroke:#000000;stroke-width:3.54330707;stroke-miterlimit:4;stroke-opacity:1;stroke-dasharray:none"
         sodipodi:type="arc" />
      <path
         sodipodi:type="arc"
         style="fill:url(#linearGradient10387);fill-opacity:1;stroke:#000000;stroke-width:3.54330707;stroke-miterlimit:4;stroke-opacity:1;stroke-dasharray:none"
         id="path3179"
         sodipodi:cx="253.98857"
         sodipodi:cy="648.40765"
         sodipodi:rx="118.75916"
         sodipodi:ry="22.538235"
         d="m 372.74773,648.40765 c 0,12.44753 -53.17028,22.53824 -118.75916,22.53824 -65.58887,0 -118.75916,-10.09071 -118.75916,-22.53824 0,-12.44752 53.17029,-22.53823 118.75916,-22.53823 65.58888,0 118.75916,10.09071 118.75916,22.53823 z"
         transform="translate(257.00326,-15.189269)" />
      <path
         transform="translate(5.8907411,1.0739178)"
         d="m 251.388,631.07056 c 0,1.915 -5.04536,3.46742 -11.26912,3.46742 -6.22376,0 -11.26912,-1.55242 -11.26912,-3.46742 0,-1.91501 5.04536,-3.46742 11.26912,-3.46742 6.22376,0 11.26912,1.55241 11.26912,3.46742 z"
         sodipodi:ry="3.4674208"
         sodipodi:rx="11.269117"
         sodipodi:cy="631.07056"
         sodipodi:cx="240.11888"
         id="path3183"
         style="fill:#000000;fill-opacity:1;stroke:#000000;stroke-width:3.54330707;stroke-miterlimit:4;stroke-opacity:1;stroke-dasharray:none"
         sodipodi:type="arc" />
      <path
         sodipodi:type="arc"
         style="fill:#000000;fill-opacity:1;stroke:#000000;stroke-width:3.54330707;stroke-miterlimit:4;stroke-opacity:1;stroke-dasharray:none"
         id="path3185"
         sodipodi:cx="240.11888"
         sodipodi:cy="631.07056"
         sodipodi:rx="11.269117"
         sodipodi:ry="3.4674208"
         d="m 251.388,631.07056 c 0,1.915 -5.04536,3.46742 -11.26912,3.46742 -6.22376,0 -11.26912,-1.55242 -11.26912,-3.46742 0,-1.91501 5.04536,-3.46742 11.26912,-3.46742 6.22376,0 11.26912,1.55241 11.26912,3.46742 z"
         transform="translate(277.23924,1.0739178)" />
      <rect
         ry="25.818733"
         y="218.43867"
         x="220.08833"
         height="259.70609"
         width="51.637466"
         id="rect3187"
         style="fill:none;stroke:#000000;stroke-width:3.54299998;stroke-miterlimit:4;stroke-opacity:1;stroke-dasharray:3.54299998, 3.54299998;stroke-dashoffset:0" />
      <path
         inkscape:connector-curvature="0"
         id="path3189"
         d="m 245.90707,477.38539 0,154.15302"
         style="fill:none;stroke:#000000;stroke-width:3.54299998;stroke-linecap:butt;stroke-linejoin:miter;stroke-miterlimit:4;stroke-opacity:1;stroke-dasharray:3.54299998, 3.54299998;stroke-dashoffset:0" />
      <path
         transform="translate(33.661884,5.9446747)"
         d="m 220.21861,243.24863 c 0,4.4036 -3.56983,7.97343 -7.97343,7.97343 -4.40361,0 -7.97343,-3.56983 -7.97343,-7.97343 0,-4.40361 3.56982,-7.97344 7.97343,-7.97344 4.4036,0 7.97343,3.56983 7.97343,7.97344 z"
         sodipodi:ry="7.9734325"
         sodipodi:rx="7.9734325"
         sodipodi:cy="243.24863"
         sodipodi:cx="212.24518"
         id="path3191"
         style="fill:#f10000;fill-opacity:1;stroke:none"
         sodipodi:type="arc" />
      <path
         transform="translate(33.661884,33.716098)"
         sodipodi:type="arc"
         style="fill:#f10000;fill-opacity:1;stroke:none"
         id="path3193"
         sodipodi:cx="212.24518"
         sodipodi:cy="243.24863"
         sodipodi:rx="7.9734325"
         sodipodi:ry="7.9734325"
         d="m 220.21861,243.24863 c 0,4.4036 -3.56983,7.97343 -7.97343,7.97343 -4.40361,0 -7.97343,-3.56983 -7.97343,-7.97343 0,-4.40361 3.56982,-7.97344 7.97343,-7.97344 4.4036,0 7.97343,3.56983 7.97343,7.97344 z" />
      <path
         d="m 220.21861,243.24863 c 0,4.4036 -3.56983,7.97343 -7.97343,7.97343 -4.40361,0 -7.97343,-3.56983 -7.97343,-7.97343 0,-4.40361 3.56982,-7.97344 7.97343,-7.97344 4.4036,0 7.97343,3.56983 7.97343,7.97344 z"
         sodipodi:ry="7.9734325"
         sodipodi:rx="7.9734325"
         sodipodi:cy="243.24863"
         sodipodi:cx="212.24518"
         id="path3195"
         style="fill:#f10000;fill-opacity:1;stroke:none"
         sodipodi:type="arc"
         transform="translate(33.661884,61.487521)" />
      <path
         transform="translate(33.661884,89.258945)"
         sodipodi:type="arc"
         style="fill:#f10000;fill-opacity:1;stroke:none"
         id="path3197"
         sodipodi:cx="212.24518"
         sodipodi:cy="243.24863"
         sodipodi:rx="7.9734325"
         sodipodi:ry="7.9734325"
         d="m 220.21861,243.24863 c 0,4.4036 -3.56983,7.97343 -7.97343,7.97343 -4.40361,0 -7.97343,-3.56983 -7.97343,-7.97343 0,-4.40361 3.56982,-7.97344 7.97343,-7.97344 4.4036,0 7.97343,3.56983 7.97343,7.97344 z" />
      <path
         d="m 220.21861,243.24863 c 0,4.4036 -3.56983,7.97343 -7.97343,7.97343 -4.40361,0 -7.97343,-3.56983 -7.97343,-7.97343 0,-4.40361 3.56982,-7.97344 7.97343,-7.97344 4.4036,0 7.97343,3.56983 7.97343,7.97344 z"
         sodipodi:ry="7.9734325"
         sodipodi:rx="7.9734325"
         sodipodi:cy="243.24863"
         sodipodi:cx="212.24518"
         id="path3199"
         style="fill:#f10000;fill-opacity:1;stroke:none"
         sodipodi:type="arc"
         transform="translate(33.661884,117.03037)" />
      <path
         transform="translate(33.661884,144.80179)"
         sodipodi:type="arc"
         style="fill:#f10000;fill-opacity:1;stroke:none"
         id="path3201"
         sodipodi:cx="212.24518"
         sodipodi:cy="243.24863"
         sodipodi:rx="7.9734325"
         sodipodi:ry="7.9734325"
         d="m 220.21861,243.24863 c 0,4.4036 -3.56983,7.97343 -7.97343,7.97343 -4.40361,0 -7.97343,-3.56983 -7.97343,-7.97343 0,-4.40361 3.56982,-7.97344 7.97343,-7.97344 4.4036,0 7.97343,3.56983 7.97343,7.97344 z" />
      <path
         d="m 220.21861,243.24863 c 0,4.4036 -3.56983,7.97343 -7.97343,7.97343 -4.40361,0 -7.97343,-3.56983 -7.97343,-7.97343 0,-4.40361 3.56982,-7.97344 7.97343,-7.97344 4.4036,0 7.97343,3.56983 7.97343,7.97344 z"
         sodipodi:ry="7.9734325"
         sodipodi:rx="7.9734325"
         sodipodi:cy="243.24863"
         sodipodi:cx="212.24518"
         id="path3203"
         style="fill:#f10000;fill-opacity:1;stroke:none"
         sodipodi:type="arc"
         transform="translate(33.661884,172.57322)" />
      <path
         transform="translate(33.661884,200.3446)"
         sodipodi:type="arc"
         style="fill:#f10000;fill-opacity:1;stroke:none"
         id="path3205"
         sodipodi:cx="212.24518"
         sodipodi:cy="243.24863"
         sodipodi:rx="7.9734325"
         sodipodi:ry="7.9734325"
         d="m 220.21861,243.24863 c 0,4.4036 -3.56983,7.97343 -7.97343,7.97343 -4.40361,0 -7.97343,-3.56983 -7.97343,-7.97343 0,-4.40361 3.56982,-7.97344 7.97343,-7.97344 4.4036,0 7.97343,3.56983 7.97343,7.97344 z" />
      <rect
         style="fill:none;stroke:#000000;stroke-width:3.54299998;stroke-miterlimit:4;stroke-opacity:1;stroke-dasharray:3.54299998, 3.54299998;stroke-dashoffset:0"
         id="rect3207"
         width="51.637466"
         height="259.70609"
         x="490.42566"
         y="218.43867"
         ry="25.818733" />
      <path
         inkscape:connector-curvature="0"
         style="fill:none;stroke:#000000;stroke-width:3.54299998;stroke-linecap:butt;stroke-linejoin:miter;stroke-miterlimit:4;stroke-opacity:1;stroke-dasharray:3.54299998, 3.54299998;stroke-dashoffset:0"
         d="m 516.2444,477.38539 0,154.15302"
         id="path3209" />
      <path
         sodipodi:type="arc"
         style="fill:#1ccb00;fill-opacity:1;stroke:none"
         id="path3211"
         sodipodi:cx="212.24518"
         sodipodi:cy="243.24863"
         sodipodi:rx="7.9734325"
         sodipodi:ry="7.9734325"
         d="m 220.21861,243.24863 c 0,4.4036 -3.56983,7.97343 -7.97343,7.97343 -4.40361,0 -7.97343,-3.56983 -7.97343,-7.97343 0,-4.40361 3.56982,-7.97344 7.97343,-7.97344 4.4036,0 7.97343,3.56983 7.97343,7.97344 z"
         transform="translate(303.99922,5.9446747)" />
      <path
         d="m 220.21861,243.24863 c 0,4.4036 -3.56983,7.97343 -7.97343,7.97343 -4.40361,0 -7.97343,-3.56983 -7.97343,-7.97343 0,-4.40361 3.56982,-7.97344 7.97343,-7.97344 4.4036,0 7.97343,3.56983 7.97343,7.97344 z"
         sodipodi:ry="7.9734325"
         sodipodi:rx="7.9734325"
         sodipodi:cy="243.24863"
         sodipodi:cx="212.24518"
         id="path3213"
         style="fill:#1ccb00;fill-opacity:1;stroke:none"
         sodipodi:type="arc"
         transform="translate(303.99922,33.716098)" />
      <path
         transform="translate(303.99922,61.487521)"
         sodipodi:type="arc"
         style="fill:#1ccb00;fill-opacity:1;stroke:none"
         id="path3215"
         sodipodi:cx="212.24518"
         sodipodi:cy="243.24863"
         sodipodi:rx="7.9734325"
         sodipodi:ry="7.9734325"
         d="m 220.21861,243.24863 c 0,4.4036 -3.56983,7.97343 -7.97343,7.97343 -4.40361,0 -7.97343,-3.56983 -7.97343,-7.97343 0,-4.40361 3.56982,-7.97344 7.97343,-7.97344 4.4036,0 7.97343,3.56983 7.97343,7.97344 z" />
      <path
         d="m 220.21861,243.24863 c 0,4.4036 -3.56983,7.97343 -7.97343,7.97343 -4.40361,0 -7.97343,-3.56983 -7.97343,-7.97343 0,-4.40361 3.56982,-7.97344 7.97343,-7.97344 4.4036,0 7.97343,3.56983 7.97343,7.97344 z"
         sodipodi:ry="7.9734325"
         sodipodi:rx="7.9734325"
         sodipodi:cy="243.24863"
         sodipodi:cx="212.24518"
         id="path3217"
         style="fill:#1ccb00;fill-opacity:1;stroke:none"
         sodipodi:type="arc"
         transform="translate(303.99922,89.258945)" />
      <path
         transform="translate(303.99922,117.03037)"
         sodipodi:type="arc"
         style="fill:#1ccb00;fill-opacity:1;stroke:none"
         id="path3219"
         sodipodi:cx="212.24518"
         sodipodi:cy="243.24863"
         sodipodi:rx="7.9734325"
         sodipodi:ry="7.9734325"
         d="m 220.21861,243.24863 c 0,4.4036 -3.56983,7.97343 -7.97343,7.97343 -4.40361,0 -7.97343,-3.56983 -7.97343,-7.97343 0,-4.40361 3.56982,-7.97344 7.97343,-7.97344 4.4036,0 7.97343,3.56983 7.97343,7.97344 z" />
      <path
         d="m 220.21861,243.24863 c 0,4.4036 -3.56983,7.97343 -7.97343,7.97343 -4.40361,0 -7.97343,-3.56983 -7.97343,-7.97343 0,-4.40361 3.56982,-7.97344 7.97343,-7.97344 4.4036,0 7.97343,3.56983 7.97343,7.97344 z"
         sodipodi:ry="7.9734325"
         sodipodi:rx="7.9734325"
         sodipodi:cy="243.24863"
         sodipodi:cx="212.24518"
         id="path3221"
         style="fill:#1ccb00;fill-opacity:1;stroke:none"
         sodipodi:type="arc"
         transform="translate(303.99922,144.80179)" />
      <path
         transform="translate(303.99922,172.57322)"
         sodipodi:type="arc"
         style="fill:#1ccb00;fill-opacity:1;stroke:none"
         id="path3223"
         sodipodi:cx="212.24518"
         sodipodi:cy="243.24863"
         sodipodi:rx="7.9734325"
         sodipodi:ry="7.9734325"
         d="m 220.21861,243.24863 c 0,4.4036 -3.56983,7.97343 -7.97343,7.97343 -4.40361,0 -7.97343,-3.56983 -7.97343,-7.97343 0,-4.40361 3.56982,-7.97344 7.97343,-7.97344 4.4036,0 7.97343,3.56983 7.97343,7.97344 z" />
      <path
         d="m 220.21861,243.24863 c 0,4.4036 -3.56983,7.97343 -7.97343,7.97343 -4.40361,0 -7.97343,-3.56983 -7.97343,-7.97343 0,-4.40361 3.56982,-7.97344 7.97343,-7.97344 4.4036,0 7.97343,3.56983 7.97343,7.97344 z"
         sodipodi:ry="7.9734325"
         sodipodi:rx="7.9734325"
         sodipodi:cy="243.24863"
         sodipodi:cx="212.24518"
         id="path3225"
         style="fill:#1ccb00;fill-opacity:1;stroke:none"
         sodipodi:type="arc"
         transform="translate(303.99922,200.3446)" />
    </g>
    <g
       transform="translate(-86.075395,-802.93701)"
       id="g3040">
      <g
         id="g3485"
         transform="translate(419.67163,514.07227)">
        <path
           d="m 220.21861,243.24863 c 0,4.4036 -3.56983,7.97343 -7.97343,7.97343 -4.40361,0 -7.97343,-3.56983 -7.97343,-7.97343 0,-4.40361 3.56982,-7.97344 7.97343,-7.97344 4.4036,0 7.97343,3.56983 7.97343,7.97344 z"
           sodipodi:ry="7.9734325"
           sodipodi:rx="7.9734325"
           sodipodi:cy="243.24863"
           sodipodi:cx="212.24518"
           id="path3215-5"
           style="fill:#1ccb00;fill-opacity:1;stroke:none"
           sodipodi:type="arc"
           transform="translate(303.99922,61.487521)" />
        <path
           transform="translate(303.99922,88.987124)"
           sodipodi:type="arc"
           style="fill:#1ccb00;fill-opacity:1;stroke:none"
           id="path3213-2"
           sodipodi:cx="212.24518"
           sodipodi:cy="243.24863"
           sodipodi:rx="7.9734325"
           sodipodi:ry="7.9734325"
           d="m 220.21861,243.24863 c 0,4.4036 -3.56983,7.97343 -7.97343,7.97343 -4.40361,0 -7.97343,-3.56983 -7.97343,-7.97343 0,-4.40361 3.56982,-7.97344 7.97343,-7.97344 4.4036,0 7.97343,3.56983 7.97343,7.97344 z" />
        <path
           sodipodi:type="arc"
           style="fill:url(#linearGradient10389);fill-opacity:1;stroke:#000000;stroke-width:3.54330707;stroke-miterlimit:4;stroke-opacity:1;stroke-dasharray:none"
           id="path2383-3"
           sodipodi:cx="373.61459"
           sodipodi:cy="635.40485"
           sodipodi:rx="312.93472"
           sodipodi:ry="56.345585"
           d="m 686.54932,635.40485 c 0,31.1188 -140.10565,56.34558 -312.93473,56.34558 -172.82907,0 -312.934719,-25.22678 -312.934719,-56.34558 0,-31.11881 140.105649,-56.34559 312.934719,-56.34559 172.82908,0 312.93473,25.22678 312.93473,56.34559 z"
           transform="translate(2.1478355,2.1478355)" />
        <path
           sodipodi:type="arc"
           style="fill:url(#linearGradient10391);fill-opacity:1;stroke:#000000;stroke-width:3.54330707;stroke-miterlimit:4;stroke-opacity:1;stroke-dasharray:none"
           id="path3163-8"
           sodipodi:cx="253.98857"
           sodipodi:cy="648.40765"
           sodipodi:rx="118.75916"
           sodipodi:ry="22.538235"
           d="m 372.74773,648.40765 c 0,12.44753 -53.17028,22.53824 -118.75916,22.53824 -65.58887,0 -118.75916,-10.09071 -118.75916,-22.53824 0,-12.44752 53.17029,-22.53823 118.75916,-22.53823 65.58888,0 118.75916,10.09071 118.75916,22.53823 z"
           transform="translate(-6.5207163,-15.189269)" />
        <path
           transform="translate(257.00326,-15.189269)"
           d="m 372.74773,648.40765 c 0,12.44753 -53.17028,22.53824 -118.75916,22.53824 -65.58887,0 -118.75916,-10.09071 -118.75916,-22.53824 0,-12.44752 53.17029,-22.53823 118.75916,-22.53823 65.58888,0 118.75916,10.09071 118.75916,22.53823 z"
           sodipodi:ry="22.538235"
           sodipodi:rx="118.75916"
           sodipodi:cy="648.40765"
           sodipodi:cx="253.98857"
           id="path3179-9"
           style="fill:url(#linearGradient10393);fill-opacity:1;stroke:#000000;stroke-width:3.54330707;stroke-miterlimit:4;stroke-opacity:1;stroke-dasharray:none"
           sodipodi:type="arc" />
        <path
           sodipodi:type="arc"
           style="fill:#000000;fill-opacity:1;stroke:#000000;stroke-width:3.54330707;stroke-miterlimit:4;stroke-opacity:1;stroke-dasharray:none"
           id="path3183-2"
           sodipodi:cx="240.11888"
           sodipodi:cy="631.07056"
           sodipodi:rx="11.269117"
           sodipodi:ry="3.4674208"
           d="m 251.388,631.07056 c 0,1.915 -5.04536,3.46742 -11.26912,3.46742 -6.22376,0 -11.26912,-1.55242 -11.26912,-3.46742 0,-1.91501 5.04536,-3.46742 11.26912,-3.46742 6.22376,0 11.26912,1.55241 11.26912,3.46742 z"
           transform="translate(5.8907411,1.0739178)" />
        <path
           transform="translate(277.23924,1.0739178)"
           d="m 251.388,631.07056 c 0,1.915 -5.04536,3.46742 -11.26912,3.46742 -6.22376,0 -11.26912,-1.55242 -11.26912,-3.46742 0,-1.91501 5.04536,-3.46742 11.26912,-3.46742 6.22376,0 11.26912,1.55241 11.26912,3.46742 z"
           sodipodi:ry="3.4674208"
           sodipodi:rx="11.269117"
           sodipodi:cy="631.07056"
           sodipodi:cx="240.11888"
           id="path3185-9"
           style="fill:#000000;fill-opacity:1;stroke:#000000;stroke-width:3.54330707;stroke-miterlimit:4;stroke-opacity:1;stroke-dasharray:none"
           sodipodi:type="arc" />
        <rect
           style="fill:none;stroke:#000000;stroke-width:3.54299998;stroke-miterlimit:4;stroke-opacity:1;stroke-dasharray:3.54299998, 3.54299998;stroke-dashoffset:0"
           id="rect3187-3"
           width="51.637466"
           height="259.70609"
           x="220.08833"
           y="218.43867"
           ry="25.818733" />
        <path
           style="fill:none;stroke:#000000;stroke-width:3.54299998;stroke-linecap:butt;stroke-linejoin:miter;stroke-miterlimit:4;stroke-opacity:1;stroke-dasharray:3.54299998, 3.54299998;stroke-dashoffset:0"
           d="m 245.90707,477.38539 0,154.15302"
           id="path3189-1"
           inkscape:connector-curvature="0" />
        <path
           sodipodi:type="arc"
           style="fill:#f10000;fill-opacity:1;stroke:none"
           id="path3191-6"
           sodipodi:cx="212.24518"
           sodipodi:cy="243.24863"
           sodipodi:rx="7.9734325"
           sodipodi:ry="7.9734325"
           d="m 220.21861,243.24863 c 0,4.4036 -3.56983,7.97343 -7.97343,7.97343 -4.40361,0 -7.97343,-3.56983 -7.97343,-7.97343 0,-4.40361 3.56982,-7.97344 7.97343,-7.97344 4.4036,0 7.97343,3.56983 7.97343,7.97344 z"
           transform="translate(33.661884,5.9446747)" />
        <path
           d="m 220.21861,243.24863 c 0,4.4036 -3.56983,7.97343 -7.97343,7.97343 -4.40361,0 -7.97343,-3.56983 -7.97343,-7.97343 0,-4.40361 3.56982,-7.97344 7.97343,-7.97344 4.4036,0 7.97343,3.56983 7.97343,7.97344 z"
           sodipodi:ry="7.9734325"
           sodipodi:rx="7.9734325"
           sodipodi:cy="243.24863"
           sodipodi:cx="212.24518"
           id="path3193-6"
           style="fill:#f10000;fill-opacity:1;stroke:none"
           sodipodi:type="arc"
           transform="translate(33.661884,33.716098)" />
        <path
           transform="translate(33.661884,61.487521)"
           sodipodi:type="arc"
           style="fill:#f10000;fill-opacity:1;stroke:none"
           id="path3195-9"
           sodipodi:cx="212.24518"
           sodipodi:cy="243.24863"
           sodipodi:rx="7.9734325"
           sodipodi:ry="7.9734325"
           d="m 220.21861,243.24863 c 0,4.4036 -3.56983,7.97343 -7.97343,7.97343 -4.40361,0 -7.97343,-3.56983 -7.97343,-7.97343 0,-4.40361 3.56982,-7.97344 7.97343,-7.97344 4.4036,0 7.97343,3.56983 7.97343,7.97344 z" />
        <path
           d="m 220.21861,243.24863 c 0,4.4036 -3.56983,7.97343 -7.97343,7.97343 -4.40361,0 -7.97343,-3.56983 -7.97343,-7.97343 0,-4.40361 3.56982,-7.97344 7.97343,-7.97344 4.4036,0 7.97343,3.56983 7.97343,7.97344 z"
           sodipodi:ry="7.9734325"
           sodipodi:rx="7.9734325"
           sodipodi:cy="243.24863"
           sodipodi:cx="212.24518"
           id="path3197-0"
           style="fill:#f10000;fill-opacity:1;stroke:none"
           sodipodi:type="arc"
           transform="translate(33.661884,89.258945)" />
        <path
           transform="translate(33.661884,117.03037)"
           sodipodi:type="arc"
           style="fill:#f10000;fill-opacity:1;stroke:none"
           id="path3199-8"
           sodipodi:cx="212.24518"
           sodipodi:cy="243.24863"
           sodipodi:rx="7.9734325"
           sodipodi:ry="7.9734325"
           d="m 220.21861,243.24863 c 0,4.4036 -3.56983,7.97343 -7.97343,7.97343 -4.40361,0 -7.97343,-3.56983 -7.97343,-7.97343 0,-4.40361 3.56982,-7.97344 7.97343,-7.97344 4.4036,0 7.97343,3.56983 7.97343,7.97344 z" />
        <path
           transform="translate(33.661884,172.57322)"
           sodipodi:type="arc"
           style="fill:#f10000;fill-opacity:1;stroke:none"
           id="path3203-6"
           sodipodi:cx="212.24518"
           sodipodi:cy="243.24863"
           sodipodi:rx="7.9734325"
           sodipodi:ry="7.9734325"
           d="m 220.21861,243.24863 c 0,4.4036 -3.56983,7.97343 -7.97343,7.97343 -4.40361,0 -7.97343,-3.56983 -7.97343,-7.97343 0,-4.40361 3.56982,-7.97344 7.97343,-7.97344 4.4036,0 7.97343,3.56983 7.97343,7.97344 z" />
        <rect
           ry="25.818733"
           y="218.43867"
           x="490.42566"
           height="259.70609"
           width="51.637466"
           id="rect3207-9"
           style="fill:none;stroke:#000000;stroke-width:3.54299998;stroke-miterlimit:4;stroke-opacity:1;stroke-dasharray:3.54299998, 3.54299998;stroke-dashoffset:0" />
        <path
           id="path3209-8"
           d="m 516.2444,477.38539 0,154.15302"
           style="fill:none;stroke:#000000;stroke-width:3.54299998;stroke-linecap:butt;stroke-linejoin:miter;stroke-miterlimit:4;stroke-opacity:1;stroke-dasharray:3.54299998, 3.54299998;stroke-dashoffset:0"
           inkscape:connector-curvature="0" />
        <path
           transform="translate(303.99922,5.9446747)"
           d="m 220.21861,243.24863 c 0,4.4036 -3.56983,7.97343 -7.97343,7.97343 -4.40361,0 -7.97343,-3.56983 -7.97343,-7.97343 0,-4.40361 3.56982,-7.97344 7.97343,-7.97344 4.4036,0 7.97343,3.56983 7.97343,7.97344 z"
           sodipodi:ry="7.9734325"
           sodipodi:rx="7.9734325"
           sodipodi:cy="243.24863"
           sodipodi:cx="212.24518"
           id="path3211-9"
           style="fill:#1ccb00;fill-opacity:1;stroke:none"
           sodipodi:type="arc" />
        <path
           transform="translate(303.99922,89.258945)"
           sodipodi:type="arc"
           style="fill:none;stroke:none"
           id="path3217-9"
           sodipodi:cx="212.24518"
           sodipodi:cy="243.24863"
           sodipodi:rx="7.9734325"
           sodipodi:ry="7.9734325"
           d="m 220.21861,243.24863 c 0,4.4036 -3.56983,7.97343 -7.97343,7.97343 -4.40361,0 -7.97343,-3.56983 -7.97343,-7.97343 0,-4.40361 3.56982,-7.97344 7.97343,-7.97344 4.4036,0 7.97343,3.56983 7.97343,7.97344 z" />
        <path
           d="m 220.21861,243.24863 c 0,4.4036 -3.56983,7.97343 -7.97343,7.97343 -4.40361,0 -7.97343,-3.56983 -7.97343,-7.97343 0,-4.40361 3.56982,-7.97344 7.97343,-7.97344 4.4036,0 7.97343,3.56983 7.97343,7.97344 z"
           sodipodi:ry="7.9734325"
           sodipodi:rx="7.9734325"
           sodipodi:cy="243.24863"
           sodipodi:cx="212.24518"
           id="path3219-0"
           style="fill:#1ccb00;fill-opacity:1;stroke:none"
           sodipodi:type="arc"
           transform="translate(303.99922,117.03037)" />
        <path
           transform="translate(303.99922,144.80179)"
           sodipodi:type="arc"
           style="fill:#1ccb00;fill-opacity:1;stroke:none"
           id="path3221-0"
           sodipodi:cx="212.24518"
           sodipodi:cy="243.24863"
           sodipodi:rx="7.9734325"
           sodipodi:ry="7.9734325"
           d="m 220.21861,243.24863 c 0,4.4036 -3.56983,7.97343 -7.97343,7.97343 -4.40361,0 -7.97343,-3.56983 -7.97343,-7.97343 0,-4.40361 3.56982,-7.97344 7.97343,-7.97344 4.4036,0 7.97343,3.56983 7.97343,7.97344 z" />
        <path
           d="m 220.21861,243.24863 c 0,4.4036 -3.56983,7.97343 -7.97343,7.97343 -4.40361,0 -7.97343,-3.56983 -7.97343,-7.97343 0,-4.40361 3.56982,-7.97344 7.97343,-7.97344 4.4036,0 7.97343,3.56983 7.97343,7.97344 z"
           sodipodi:ry="7.9734325"
           sodipodi:rx="7.9734325"
           sodipodi:cy="243.24863"
           sodipodi:cx="212.24518"
           id="path3223-6"
           style="fill:#1ccb00;fill-opacity:1;stroke:none"
           sodipodi:type="arc"
           transform="translate(303.99922,172.57322)" />
        <path
           transform="translate(303.99922,200.3446)"
           sodipodi:type="arc"
           style="fill:#1ccb00;fill-opacity:1;stroke:none"
           id="path3225-0"
           sodipodi:cx="212.24518"
           sodipodi:cy="243.24863"
           sodipodi:rx="7.9734325"
           sodipodi:ry="7.9734325"
           d="m 220.21861,243.24863 c 0,4.4036 -3.56983,7.97343 -7.97343,7.97343 -4.40361,0 -7.97343,-3.56983 -7.97343,-7.97343 0,-4.40361 3.56982,-7.97344 7.97343,-7.97344 4.4036,0 7.97343,3.56983 7.97343,7.97344 z" />
        <path
           transform="translate(-6.5207163,-206.81027)"
           d="m 372.74773,648.40765 c 0,12.44753 -53.17028,22.53824 -118.75916,22.53824 -65.58887,0 -118.75916,-10.09071 -118.75916,-22.53824 0,-12.44752 53.17029,-22.53823 118.75916,-22.53823 65.58888,0 118.75916,10.09071 118.75916,22.53823 z"
           sodipodi:ry="22.538235"
           sodipodi:rx="118.75916"
           sodipodi:cy="648.40765"
           sodipodi:cx="253.98857"
           id="path3253"
           style="fill:url(#linearGradient10395);fill-opacity:1;stroke:url(#linearGradient10397);stroke-width:3.54330707;stroke-miterlimit:4;stroke-opacity:1;stroke-dasharray:none"
           sodipodi:type="arc" />
        <path
           d="m 220.21861,243.24863 c 0,4.4036 -3.56983,7.97343 -7.97343,7.97343 -4.40361,0 -7.97343,-3.56983 -7.97343,-7.97343 0,-4.40361 3.56982,-7.97344 7.97343,-7.97344 4.4036,0 7.97343,3.56983 7.97343,7.97344 z"
           sodipodi:ry="7.9734325"
           sodipodi:rx="7.9734325"
           sodipodi:cy="243.24863"
           sodipodi:cx="212.24518"
           id="path3201-5"
           style="fill:none;stroke:none"
           sodipodi:type="arc"
           transform="translate(33.661884,144.80179)" />
        <path
           transform="translate(5.8907411,-187.11277)"
           d="m 251.388,631.07056 c 0,1.915 -5.04536,3.46742 -11.26912,3.46742 -6.22376,0 -11.26912,-1.55242 -11.26912,-3.46742 0,-1.91501 5.04536,-3.46742 11.26912,-3.46742 6.22376,0 11.26912,1.55241 11.26912,3.46742 z"
           sodipodi:ry="3.4674208"
           sodipodi:rx="11.269117"
           sodipodi:cy="631.07056"
           sodipodi:cx="240.11888"
           id="path3257"
           style="fill:#a30000;fill-opacity:1;stroke:#a30000;stroke-width:3.54330707;stroke-miterlimit:4;stroke-opacity:1;stroke-dasharray:none"
           sodipodi:type="arc" />
        <path
           sodipodi:type="arc"
           style="fill:url(#linearGradient10399);fill-opacity:1;stroke:url(#linearGradient10401);stroke-width:3.54330707;stroke-miterlimit:4;stroke-opacity:1;stroke-dasharray:none"
           id="path3267"
           sodipodi:cx="253.98857"
           sodipodi:cy="648.40765"
           sodipodi:rx="118.75916"
           sodipodi:ry="22.538235"
           d="m 372.74773,648.40765 c 0,12.44753 -53.17028,22.53824 -118.75916,22.53824 -65.58887,0 -118.75916,-10.09071 -118.75916,-22.53824 0,-12.44752 53.17029,-22.53823 118.75916,-22.53823 65.58888,0 118.75916,10.09071 118.75916,22.53823 z"
           transform="translate(263.0109,-370.44309)" />
        <path
           sodipodi:type="arc"
           style="fill:#185700;fill-opacity:1;stroke:#185700;stroke-width:3.54330707;stroke-miterlimit:4;stroke-opacity:1;stroke-dasharray:none"
           id="path3271"
           sodipodi:cx="240.11888"
           sodipodi:cy="631.07056"
           sodipodi:rx="11.269117"
           sodipodi:ry="3.4674208"
           d="m 251.388,631.07056 c 0,1.915 -5.04536,3.46742 -11.26912,3.46742 -6.22376,0 -11.26912,-1.55242 -11.26912,-3.46742 0,-1.91501 5.04536,-3.46742 11.26912,-3.46742 6.22376,0 11.26912,1.55241 11.26912,3.46742 z"
           transform="translate(275.42236,-353.46723)" />
        <path
           d="m 220.21861,243.24863 c 0,4.4036 -3.56983,7.97343 -7.97343,7.97343 -4.40361,0 -7.97343,-3.56983 -7.97343,-7.97343 0,-4.40361 3.56982,-7.97344 7.97343,-7.97344 4.4036,0 7.97343,3.56983 7.97343,7.97344 z"
           sodipodi:ry="7.9734325"
           sodipodi:rx="7.9734325"
           sodipodi:cy="243.24863"
           sodipodi:cx="212.24518"
           id="path3205-2"
           style="fill:#f10000;fill-opacity:1;stroke:none"
           sodipodi:type="arc"
           transform="translate(33.661884,143.62858)" />
      </g>
    </g>
    <g
       transform="translate(1110.4071,-288.86474)"
       id="g3140">
      <path
         transform="translate(303.99922,61.487521)"
         sodipodi:type="arc"
         style="fill:#1ccb00;fill-opacity:1;stroke:none"
         id="path3215-1"
         sodipodi:cx="212.24518"
         sodipodi:cy="243.24863"
         sodipodi:rx="7.9734325"
         sodipodi:ry="7.9734325"
         d="m 220.21861,243.24863 c 0,4.4036 -3.56983,7.97343 -7.97343,7.97343 -4.40361,0 -7.97343,-3.56983 -7.97343,-7.97343 0,-4.40361 3.56982,-7.97344 7.97343,-7.97344 4.4036,0 7.97343,3.56983 7.97343,7.97344 z" />
      <path
         d="m 220.21861,243.24863 c 0,4.4036 -3.56983,7.97343 -7.97343,7.97343 -4.40361,0 -7.97343,-3.56983 -7.97343,-7.97343 0,-4.40361 3.56982,-7.97344 7.97343,-7.97344 4.4036,0 7.97343,3.56983 7.97343,7.97344 z"
         sodipodi:ry="7.9734325"
         sodipodi:rx="7.9734325"
         sodipodi:cy="243.24863"
         sodipodi:cx="212.24518"
         id="path3213-1"
         style="fill:#1ccb00;fill-opacity:1;stroke:none"
         sodipodi:type="arc"
         transform="translate(303.99922,88.987124)" />
      <path
         mask="none"
         clip-path="url(#clipPath3420)"
         sodipodi:nodetypes="csssssssssc"
         id="path3297"
         d="m 686.54932,528.75587 c 0,15.55138 -35.04869,29.63778 -91.68988,39.83632 -28.32059,5.09928 -62.03931,9.22659 -99.47412,12.07909 -18.71741,1.42625 -48.15912,6.46406 -74.22481,15.24192 -25.28963,8.51651 -34.75859,23.48176 -38.87596,46.82843 -1.76698,10.01928 -75.17968,-6.37375 -44.07177,-24.11546 12.83492,-7.32011 12.19039,-55.9266 19.50687,-87.85321 4.82322,-21.04691 28.83042,-33.82655 55.1973,-42.1614 25.90415,-8.18857 52.65566,-12.5447 82.46837,-11.77111 37.53013,0.99563 68.54287,5.67448 99.47412,12.07909 56.35659,11.66917 91.68988,24.28495 91.68988,39.83633 z"
         style="fill:url(#linearGradient10403);fill-opacity:1;stroke:url(#linearGradient10405);stroke-width:3.54330707;stroke-miterlimit:4;stroke-opacity:1"
         transform="translate(2.1478355,-249.06369)"
         inkscape:connector-curvature="0" />
      <path
         style="fill:url(#linearGradient10407);fill-opacity:1;stroke:url(#linearGradient10409);stroke-width:3.54330707;stroke-miterlimit:4;stroke-opacity:1"
         d="m 387.69571,392.37261 c -0.03,20.34778 14.78421,63.72718 -18.22373,82.13996 -23.79664,13.27446 -96.76286,20.08003 -115.48027,18.65378 -37.43482,-2.8525 -71.15353,-6.97981 -99.47412,-12.07909 -56.641194,-10.19854 -91.689884,-24.28494 -91.689884,-39.83632 0,-15.55138 35.04869,-29.63778 91.689884,-39.83633 28.32059,-5.09928 62.0393,-9.2266 99.47412,-12.07909 18.71741,-1.42625 83.95017,-4.50859 92.22815,-29.86284 6.407,-19.62372 10.86155,-62.70337 13.24967,-80.25529 1.15538,-8.4917 -4.83421,18.7945 32.21001,34.53628 29.63822,12.59463 94.8172,17.93459 91.13473,18.48342 -59.46233,8.86231 -95.06205,20.93847 -95.11856,60.13552 z"
         id="path3407"
         sodipodi:nodetypes="csssssssssss"
         inkscape:connector-curvature="0" />
      <path
         transform="translate(2.1478355,2.1478355)"
         d="m 686.54932,635.40485 c 0,31.1188 -140.10565,56.34558 -312.93473,56.34558 -172.82907,0 -312.934719,-25.22678 -312.934719,-56.34558 0,-31.11881 140.105649,-56.34559 312.934719,-56.34559 172.82908,0 312.93473,25.22678 312.93473,56.34559 z"
         sodipodi:ry="56.345585"
         sodipodi:rx="312.93472"
         sodipodi:cy="635.40485"
         sodipodi:cx="373.61459"
         id="path2383-0"
         style="fill:url(#linearGradient10411);fill-opacity:1;stroke:#000000;stroke-width:3.54330707;stroke-miterlimit:4;stroke-opacity:1;stroke-dasharray:none"
         sodipodi:type="arc" />
      <path
         transform="translate(-6.5207163,-15.189269)"
         d="m 372.74773,648.40765 c 0,12.44753 -53.17028,22.53824 -118.75916,22.53824 -65.58887,0 -118.75916,-10.09071 -118.75916,-22.53824 0,-12.44752 53.17029,-22.53823 118.75916,-22.53823 65.58888,0 118.75916,10.09071 118.75916,22.53823 z"
         sodipodi:ry="22.538235"
         sodipodi:rx="118.75916"
         sodipodi:cy="648.40765"
         sodipodi:cx="253.98857"
         id="path3163-0"
         style="fill:url(#linearGradient10413);fill-opacity:1;stroke:#000000;stroke-width:3.54330707;stroke-miterlimit:4;stroke-opacity:1;stroke-dasharray:none"
         sodipodi:type="arc" />
      <path
         sodipodi:type="arc"
         style="fill:url(#linearGradient10415);fill-opacity:1;stroke:#000000;stroke-width:3.54330707;stroke-miterlimit:4;stroke-opacity:1;stroke-dasharray:none"
         id="path3179-2"
         sodipodi:cx="253.98857"
         sodipodi:cy="648.40765"
         sodipodi:rx="118.75916"
         sodipodi:ry="22.538235"
         d="m 372.74773,648.40765 c 0,12.44753 -53.17028,22.53824 -118.75916,22.53824 -65.58887,0 -118.75916,-10.09071 -118.75916,-22.53824 0,-12.44752 53.17029,-22.53823 118.75916,-22.53823 65.58888,0 118.75916,10.09071 118.75916,22.53823 z"
         transform="translate(257.00326,-15.189269)" />
      <path
         transform="translate(5.8907411,1.0739178)"
         d="m 251.388,631.07056 c 0,1.915 -5.04536,3.46742 -11.26912,3.46742 -6.22376,0 -11.26912,-1.55242 -11.26912,-3.46742 0,-1.91501 5.04536,-3.46742 11.26912,-3.46742 6.22376,0 11.26912,1.55241 11.26912,3.46742 z"
         sodipodi:ry="3.4674208"
         sodipodi:rx="11.269117"
         sodipodi:cy="631.07056"
         sodipodi:cx="240.11888"
         id="path3183-0"
         style="fill:#000000;fill-opacity:1;stroke:#000000;stroke-width:3.54330707;stroke-miterlimit:4;stroke-opacity:1;stroke-dasharray:none"
         sodipodi:type="arc" />
      <path
         sodipodi:type="arc"
         style="fill:#000000;fill-opacity:1;stroke:#000000;stroke-width:3.54330707;stroke-miterlimit:4;stroke-opacity:1;stroke-dasharray:none"
         id="path3185-8"
         sodipodi:cx="240.11888"
         sodipodi:cy="631.07056"
         sodipodi:rx="11.269117"
         sodipodi:ry="3.4674208"
         d="m 251.388,631.07056 c 0,1.915 -5.04536,3.46742 -11.26912,3.46742 -6.22376,0 -11.26912,-1.55242 -11.26912,-3.46742 0,-1.91501 5.04536,-3.46742 11.26912,-3.46742 6.22376,0 11.26912,1.55241 11.26912,3.46742 z"
         transform="translate(277.23924,1.0739178)" />
      <rect
         ry="25.818733"
         y="218.43867"
         x="220.08833"
         height="259.70609"
         width="51.637466"
         id="rect3187-1"
         style="fill:none;stroke:#000000;stroke-width:3.54299998;stroke-miterlimit:4;stroke-opacity:1;stroke-dasharray:3.54299998, 3.54299998;stroke-dashoffset:0" />
      <path
         id="path3189-2"
         d="m 245.90707,477.38539 0,154.15302"
         style="fill:none;stroke:#000000;stroke-width:3.54299998;stroke-linecap:butt;stroke-linejoin:miter;stroke-miterlimit:4;stroke-opacity:1;stroke-dasharray:3.54299998, 3.54299998;stroke-dashoffset:0"
         inkscape:connector-curvature="0" />
      <path
         transform="translate(33.661884,5.9446747)"
         d="m 220.21861,243.24863 c 0,4.4036 -3.56983,7.97343 -7.97343,7.97343 -4.40361,0 -7.97343,-3.56983 -7.97343,-7.97343 0,-4.40361 3.56982,-7.97344 7.97343,-7.97344 4.4036,0 7.97343,3.56983 7.97343,7.97344 z"
         sodipodi:ry="7.9734325"
         sodipodi:rx="7.9734325"
         sodipodi:cy="243.24863"
         sodipodi:cx="212.24518"
         id="path3191-60"
         style="fill:#f10000;fill-opacity:1;stroke:none"
         sodipodi:type="arc" />
      <path
         transform="translate(33.661884,33.716098)"
         sodipodi:type="arc"
         style="fill:#f10000;fill-opacity:1;stroke:none"
         id="path3193-3"
         sodipodi:cx="212.24518"
         sodipodi:cy="243.24863"
         sodipodi:rx="7.9734325"
         sodipodi:ry="7.9734325"
         d="m 220.21861,243.24863 c 0,4.4036 -3.56983,7.97343 -7.97343,7.97343 -4.40361,0 -7.97343,-3.56983 -7.97343,-7.97343 0,-4.40361 3.56982,-7.97344 7.97343,-7.97344 4.4036,0 7.97343,3.56983 7.97343,7.97344 z" />
      <path
         d="m 220.21861,243.24863 c 0,4.4036 -3.56983,7.97343 -7.97343,7.97343 -4.40361,0 -7.97343,-3.56983 -7.97343,-7.97343 0,-4.40361 3.56982,-7.97344 7.97343,-7.97344 4.4036,0 7.97343,3.56983 7.97343,7.97344 z"
         sodipodi:ry="7.9734325"
         sodipodi:rx="7.9734325"
         sodipodi:cy="243.24863"
         sodipodi:cx="212.24518"
         id="path3195-90"
         style="fill:#f10000;fill-opacity:1;stroke:none"
         sodipodi:type="arc"
         transform="translate(33.661884,61.487521)" />
      <path
         transform="translate(33.661884,89.258945)"
         sodipodi:type="arc"
         style="fill:#f10000;fill-opacity:1;stroke:none"
         id="path3197-01"
         sodipodi:cx="212.24518"
         sodipodi:cy="243.24863"
         sodipodi:rx="7.9734325"
         sodipodi:ry="7.9734325"
         d="m 220.21861,243.24863 c 0,4.4036 -3.56983,7.97343 -7.97343,7.97343 -4.40361,0 -7.97343,-3.56983 -7.97343,-7.97343 0,-4.40361 3.56982,-7.97344 7.97343,-7.97344 4.4036,0 7.97343,3.56983 7.97343,7.97344 z" />
      <path
         d="m 220.21861,243.24863 c 0,4.4036 -3.56983,7.97343 -7.97343,7.97343 -4.40361,0 -7.97343,-3.56983 -7.97343,-7.97343 0,-4.40361 3.56982,-7.97344 7.97343,-7.97344 4.4036,0 7.97343,3.56983 7.97343,7.97344 z"
         sodipodi:ry="7.9734325"
         sodipodi:rx="7.9734325"
         sodipodi:cy="243.24863"
         sodipodi:cx="212.24518"
         id="path3199-82"
         style="fill:#f10000;fill-opacity:1;stroke:none"
         sodipodi:type="arc"
         transform="translate(33.661884,117.03037)" />
      <path
         d="m 220.21861,243.24863 c 0,4.4036 -3.56983,7.97343 -7.97343,7.97343 -4.40361,0 -7.97343,-3.56983 -7.97343,-7.97343 0,-4.40361 3.56982,-7.97344 7.97343,-7.97344 4.4036,0 7.97343,3.56983 7.97343,7.97344 z"
         sodipodi:ry="7.9734325"
         sodipodi:rx="7.9734325"
         sodipodi:cy="243.24863"
         sodipodi:cx="212.24518"
         id="path3203-7"
         style="fill:#f10000;fill-opacity:1;stroke:none"
         sodipodi:type="arc"
         transform="translate(33.661884,172.57322)" />
      <rect
         style="fill:none;stroke:#000000;stroke-width:3.54299998;stroke-miterlimit:4;stroke-opacity:1;stroke-dasharray:3.54299998, 3.54299998;stroke-dashoffset:0"
         id="rect3207-5"
         width="51.637466"
         height="259.70609"
         x="490.42566"
         y="218.43867"
         ry="25.818733" />
      <path
         style="fill:none;stroke:#000000;stroke-width:3.54299998;stroke-linecap:butt;stroke-linejoin:miter;stroke-miterlimit:4;stroke-opacity:1;stroke-dasharray:3.54299998, 3.54299998;stroke-dashoffset:0"
         d="m 516.2444,477.38539 0,154.15302"
         id="path3209-3"
         inkscape:connector-curvature="0" />
      <path
         sodipodi:type="arc"
         style="fill:#1ccb00;fill-opacity:1;stroke:none"
         id="path3211-5"
         sodipodi:cx="212.24518"
         sodipodi:cy="243.24863"
         sodipodi:rx="7.9734325"
         sodipodi:ry="7.9734325"
         d="m 220.21861,243.24863 c 0,4.4036 -3.56983,7.97343 -7.97343,7.97343 -4.40361,0 -7.97343,-3.56983 -7.97343,-7.97343 0,-4.40361 3.56982,-7.97344 7.97343,-7.97344 4.4036,0 7.97343,3.56983 7.97343,7.97344 z"
         transform="translate(303.99922,5.9446747)" />
      <path
         d="m 220.21861,243.24863 c 0,4.4036 -3.56983,7.97343 -7.97343,7.97343 -4.40361,0 -7.97343,-3.56983 -7.97343,-7.97343 0,-4.40361 3.56982,-7.97344 7.97343,-7.97344 4.4036,0 7.97343,3.56983 7.97343,7.97344 z"
         sodipodi:ry="7.9734325"
         sodipodi:rx="7.9734325"
         sodipodi:cy="243.24863"
         sodipodi:cx="212.24518"
         id="path3217-2"
         style="fill:none;stroke:none"
         sodipodi:type="arc"
         transform="translate(303.99922,89.258945)" />
      <path
         transform="translate(303.99922,117.03037)"
         sodipodi:type="arc"
         style="fill:#1ccb00;fill-opacity:1;stroke:none"
         id="path3219-9"
         sodipodi:cx="212.24518"
         sodipodi:cy="243.24863"
         sodipodi:rx="7.9734325"
         sodipodi:ry="7.9734325"
         d="m 220.21861,243.24863 c 0,4.4036 -3.56983,7.97343 -7.97343,7.97343 -4.40361,0 -7.97343,-3.56983 -7.97343,-7.97343 0,-4.40361 3.56982,-7.97344 7.97343,-7.97344 4.4036,0 7.97343,3.56983 7.97343,7.97344 z" />
      <path
         d="m 220.21861,243.24863 c 0,4.4036 -3.56983,7.97343 -7.97343,7.97343 -4.40361,0 -7.97343,-3.56983 -7.97343,-7.97343 0,-4.40361 3.56982,-7.97344 7.97343,-7.97344 4.4036,0 7.97343,3.56983 7.97343,7.97344 z"
         sodipodi:ry="7.9734325"
         sodipodi:rx="7.9734325"
         sodipodi:cy="243.24863"
         sodipodi:cx="212.24518"
         id="path3221-9"
         style="fill:#1ccb00;fill-opacity:1;stroke:none"
         sodipodi:type="arc"
         transform="translate(303.99922,144.80179)" />
      <path
         transform="translate(303.99922,172.57322)"
         sodipodi:type="arc"
         style="fill:#1ccb00;fill-opacity:1;stroke:none"
         id="path3223-0"
         sodipodi:cx="212.24518"
         sodipodi:cy="243.24863"
         sodipodi:rx="7.9734325"
         sodipodi:ry="7.9734325"
         d="m 220.21861,243.24863 c 0,4.4036 -3.56983,7.97343 -7.97343,7.97343 -4.40361,0 -7.97343,-3.56983 -7.97343,-7.97343 0,-4.40361 3.56982,-7.97344 7.97343,-7.97344 4.4036,0 7.97343,3.56983 7.97343,7.97344 z" />
      <path
         d="m 220.21861,243.24863 c 0,4.4036 -3.56983,7.97343 -7.97343,7.97343 -4.40361,0 -7.97343,-3.56983 -7.97343,-7.97343 0,-4.40361 3.56982,-7.97344 7.97343,-7.97344 4.4036,0 7.97343,3.56983 7.97343,7.97344 z"
         sodipodi:ry="7.9734325"
         sodipodi:rx="7.9734325"
         sodipodi:cy="243.24863"
         sodipodi:cx="212.24518"
         id="path3225-7"
         style="fill:#1ccb00;fill-opacity:1;stroke:none"
         sodipodi:type="arc"
         transform="translate(303.99922,200.3446)" />
      <path
         sodipodi:type="arc"
         style="fill:url(#linearGradient10417);fill-opacity:1;stroke:url(#linearGradient10419);stroke-width:3.54330707;stroke-miterlimit:4;stroke-opacity:1;stroke-dasharray:none"
         id="path3253-2"
         sodipodi:cx="253.98857"
         sodipodi:cy="648.40765"
         sodipodi:rx="118.75916"
         sodipodi:ry="22.538235"
         d="m 372.74773,648.40765 c 0,12.44753 -53.17028,22.53824 -118.75916,22.53824 -65.58887,0 -118.75916,-10.09071 -118.75916,-22.53824 0,-12.44752 53.17029,-22.53823 118.75916,-22.53823 65.58888,0 118.75916,10.09071 118.75916,22.53823 z"
         transform="translate(-6.5207163,-206.81027)" />
      <path
         transform="translate(33.661884,144.80179)"
         sodipodi:type="arc"
         style="fill:none;stroke:none"
         id="path3201-8"
         sodipodi:cx="212.24518"
         sodipodi:cy="243.24863"
         sodipodi:rx="7.9734325"
         sodipodi:ry="7.9734325"
         d="m 220.21861,243.24863 c 0,4.4036 -3.56983,7.97343 -7.97343,7.97343 -4.40361,0 -7.97343,-3.56983 -7.97343,-7.97343 0,-4.40361 3.56982,-7.97344 7.97343,-7.97344 4.4036,0 7.97343,3.56983 7.97343,7.97344 z" />
      <path
         sodipodi:type="arc"
         style="fill:#a30000;fill-opacity:1;stroke:#a30000;stroke-width:3.54330707;stroke-miterlimit:4;stroke-opacity:1;stroke-dasharray:none"
         id="path3257-8"
         sodipodi:cx="240.11888"
         sodipodi:cy="631.07056"
         sodipodi:rx="11.269117"
         sodipodi:ry="3.4674208"
         d="m 251.388,631.07056 c 0,1.915 -5.04536,3.46742 -11.26912,3.46742 -6.22376,0 -11.26912,-1.55242 -11.26912,-3.46742 0,-1.91501 5.04536,-3.46742 11.26912,-3.46742 6.22376,0 11.26912,1.55241 11.26912,3.46742 z"
         transform="translate(5.8907411,-187.11277)" />
      <path
         transform="translate(263.0109,-370.44309)"
         d="m 372.74773,648.40765 c 0,12.44753 -53.17028,22.53824 -118.75916,22.53824 -65.58887,0 -118.75916,-10.09071 -118.75916,-22.53824 0,-12.44752 53.17029,-22.53823 118.75916,-22.53823 65.58888,0 118.75916,10.09071 118.75916,22.53823 z"
         sodipodi:ry="22.538235"
         sodipodi:rx="118.75916"
         sodipodi:cy="648.40765"
         sodipodi:cx="253.98857"
         id="path3267-6"
         style="fill:url(#linearGradient10421);fill-opacity:1;stroke:url(#linearGradient10423);stroke-width:3.54330707;stroke-miterlimit:4;stroke-opacity:1;stroke-dasharray:none"
         sodipodi:type="arc" />
      <path
         transform="translate(275.42236,-353.46723)"
         d="m 251.388,631.07056 c 0,1.915 -5.04536,3.46742 -11.26912,3.46742 -6.22376,0 -11.26912,-1.55242 -11.26912,-3.46742 0,-1.91501 5.04536,-3.46742 11.26912,-3.46742 6.22376,0 11.26912,1.55241 11.26912,3.46742 z"
         sodipodi:ry="3.4674208"
         sodipodi:rx="11.269117"
         sodipodi:cy="631.07056"
         sodipodi:cx="240.11888"
         id="path3271-2"
         style="fill:#185700;fill-opacity:1;stroke:#185700;stroke-width:3.54330707;stroke-miterlimit:4;stroke-opacity:1;stroke-dasharray:none"
         sodipodi:type="arc" />
      <path
         transform="translate(33.661884,143.62858)"
         sodipodi:type="arc"
         style="fill:#f10000;fill-opacity:1;stroke:none"
         id="path3205-1"
         sodipodi:cx="212.24518"
         sodipodi:cy="243.24863"
         sodipodi:rx="7.9734325"
         sodipodi:ry="7.9734325"
         d="m 220.21861,243.24863 c 0,4.4036 -3.56983,7.97343 -7.97343,7.97343 -4.40361,0 -7.97343,-3.56983 -7.97343,-7.97343 0,-4.40361 3.56982,-7.97344 7.97343,-7.97344 4.4036,0 7.97343,3.56983 7.97343,7.97344 z" />
    </g>
    <g
       transform="matrix(2.0736,0,0,2.0736,170.55549,-2966.026)"
       id="g9363">
      <g
         style="font-style:normal;font-variant:normal;font-weight:normal;font-stretch:normal;letter-spacing:normal;word-spacing:normal;text-anchor:start;fill:none;stroke:#000000;stroke-width:0.48225307;stroke-linecap:butt;stroke-linejoin:miter;stroke-miterlimit:10.43299961;stroke-opacity:1;stroke-dasharray:none;stroke-dashoffset:0"
         word-spacing="normal"
         letter-spacing="normal"
         font-size-adjust="none"
         font-stretch="normal"
         font-weight="normal"
         font-variant="normal"
         font-style="normal"
         stroke-miterlimit="10.433"
         xml:space="preserve"
         transform="matrix(0.68431833,0,0,-0.68431833,-109.77452,1652.9556)"
         id="g9365"><path
           style="fill:#000000;stroke-width:0"
           inkscape:connector-curvature="0"
           id="path9367"
           d="m 465.88,415.87 0.11,-0.02 0.13,-0.02 0.14,-0.03 0.16,-0.04 0.16,-0.04 0.18,-0.04 0.19,-0.05 0.2,-0.06 0.21,-0.06 0.21,-0.07 0.21,-0.08 0.22,-0.08 0.22,-0.1 0.22,-0.1 0.22,-0.11 0.22,-0.12 0.22,-0.14 0.21,-0.14 0.2,-0.15 0.2,-0.16 0.19,-0.18 0.18,-0.19 0.17,-0.2 0.16,-0.21 0.14,-0.22 0.07,-0.12 0.06,-0.12 0.06,-0.13 0.05,-0.12 0.05,-0.14 0.05,-0.13 0.04,-0.14 0.03,-0.14 0.03,-0.15 0.03,-0.15 0.02,-0.16 0.01,-0.15 0.01,-0.17 0.01,-0.16 c 0,-2.53 -1.75,-4.53 -5.63,-4.53 -4.19,0 -5.98,2.84 -6.94,7.07 -0.14,0.64 -0.18,0.85 -0.68,0.85 -0.66,0 -0.66,-0.35 -0.66,-1.25 v -6.58 c 0,-0.84 0,-1.19 0.55,-1.19 0.25,0 0.29,0.05 1.25,1 0.09,0.1 0.09,0.19 1,1.14 2.18,-2.09 4.43,-2.14 5.48,-2.14 5.72,0 8.02,3.35 8.02,6.92 0,2.64 -1.5,4.14 -2.1,4.74 -1.64,1.59 -3.59,2 -5.68,2.39 -2.79,0.55 -6.13,1.2 -6.13,4.09 0,1.74 1.3,3.78 5.58,3.78 5.48,0 5.73,-4.48 5.83,-6.03 0.06,-0.45 0.5,-0.45 0.61,-0.45 0.64,0 0.64,0.25 0.64,1.2 v 5.03 c 0,0.85 0,1.19 -0.55,1.19 -0.25,0 -0.34,0 -1,-0.59 -0.14,-0.21 -0.64,-0.64 -0.84,-0.8 -1.89,1.39 -3.94,1.39 -4.69,1.39 -6.08,0 -7.97,-3.33 -7.97,-6.12 0,-1.74 0.8,-3.14 2.14,-4.24 1.59,-1.29 3,-1.59 6.58,-2.28 z" /><path
           style="fill:#000000;stroke-width:0"
           inkscape:connector-curvature="0"
           id="path9369"
           d="m 480.73,417.71 0.05,1.05 c 0.29,7.42 4.48,8.66 6.18,8.66 5.13,0 5.63,-6.72 5.63,-8.66 h -11.81 l -0.05,-1.05 h 13.91 c 1.09,0 1.23,0 1.23,1.05 0,4.92 -2.69,9.75 -8.91,9.75 -5.78,0 -10.37,-5.12 -10.37,-11.36 0,-6.67 5.23,-11.5 10.97,-11.5 6.08,0 8.31,5.53 8.31,6.47 0,0.5 -0.39,0.61 -0.64,0.61 -0.45,0 -0.55,-0.3 -0.66,-0.7 -1.73,-5.13 -6.21,-5.13 -6.71,-5.13 -2.5,0 -4.49,1.49 -5.63,3.33 -1.5,2.39 -1.5,5.69 -1.5,7.48 z" /><path
           style="fill:#000000;stroke-width:0"
           inkscape:connector-curvature="0"
           id="path9371"
           d="m 503.11,417.06 0,0.38 0.01,0.36 0.01,0.36 0.02,0.35 0.03,0.34 0.03,0.34 0.03,0.32 0.05,0.32 0.04,0.31 0.05,0.3 0.06,0.29 0.06,0.29 0.13,0.55 0.16,0.51 0.16,0.49 0.19,0.46 0.19,0.43 0.21,0.4 0.22,0.38 0.23,0.35 0.24,0.32 0.25,0.3 0.26,0.28 0.26,0.26 0.27,0.23 0.28,0.21 0.28,0.19 0.28,0.16 0.28,0.15 0.28,0.13 0.29,0.12 0.28,0.09 0.28,0.08 0.27,0.06 0.27,0.05 0.27,0.03 0.26,0.02 0.25,0.01 c 0.44,0 3.58,-0.05 5.33,-1.85 -2.05,-0.15 -2.35,-1.64 -2.35,-2.29 0,-1.3 0.9,-2.3 2.3,-2.3 1.28,0 2.28,0.86 2.28,2.34 0,3.39 -3.78,5.33 -7.62,5.33 -6.22,0 -10.82,-5.37 -10.82,-11.55 0,-6.37 4.94,-11.31 10.72,-11.31 6.67,0 8.27,5.99 8.27,6.47 0,0.5 -0.5,0.5 -0.64,0.5 -0.46,0 -0.55,-0.19 -0.66,-0.5 -1.43,-4.62 -4.67,-5.22 -6.51,-5.22 -2.64,0 -7.03,2.14 -7.03,10.16 z" /><path
           style="fill:#000000;stroke-width:0"
           inkscape:connector-curvature="0"
           id="path9373"
           d="m 527.98,426.12 h 7.12 v 1.55 h -7.12 v 9.17 h -1.25 c -0.05,-4.08 -1.55,-9.42 -6.42,-9.61 v -1.11 h 4.23 v -13.75 c 0,-6.12 4.63,-6.72 6.43,-6.72 3.53,0 4.93,3.53 4.93,6.72 v 2.84 h -1.25 v -2.73 c 0,-3.69 -1.5,-5.58 -3.34,-5.58 -3.33,0 -3.33,4.53 -3.33,5.38 z" /><path
           style="fill:#000000;stroke-width:0"
           inkscape:connector-curvature="0"
           id="path9375"
           d="m 547.48,428.21 -6.96,-0.54 v -1.55 c 3.23,0 3.68,-0.3 3.68,-2.73 v -13.41 c 0,-2.23 -0.54,-2.23 -3.89,-2.23 v -1.55 c 1.6,0.05 4.28,0.16 5.49,0.16 1.75,0 3.48,-0.11 5.18,-0.16 v 1.55 c -3.29,0 -3.5,0.25 -3.5,2.18 z" /><path
           style="fill:#000000;stroke-width:0"
           inkscape:connector-curvature="0"
           id="path9377"
           d="m 547.69,436.89 -0.01,0.14 -0.01,0.15 -0.01,0.14 -0.03,0.14 -0.03,0.13 -0.04,0.13 -0.04,0.13 -0.05,0.12 -0.05,0.12 -0.06,0.12 -0.07,0.11 -0.07,0.1 -0.08,0.1 -0.08,0.1 -0.08,0.1 -0.09,0.08 -0.09,0.09 -0.1,0.08 -0.1,0.07 -0.11,0.07 -0.1,0.07 -0.11,0.06 -0.12,0.05 -0.11,0.05 -0.12,0.04 -0.12,0.04 -0.13,0.03 -0.12,0.03 -0.13,0.02 -0.12,0.01 -0.13,0.01 -0.13,0.01 c -1.55,0 -2.64,-1.35 -2.64,-2.64 0,-1.35 1.09,-2.64 2.64,-2.64 1.39,0 2.64,1.04 2.64,2.64 z" /><path
           style="fill:#000000;stroke-width:0"
           inkscape:connector-curvature="0"
           id="path9379"
           d="m 575.94,416.86 -0.02,0.59 -0.04,0.59 -0.07,0.58 -0.1,0.57 -0.12,0.56 -0.15,0.55 -0.18,0.54 -0.2,0.53 -0.22,0.51 -0.24,0.5 -0.27,0.49 -0.29,0.47 -0.31,0.46 -0.32,0.44 -0.35,0.43 -0.37,0.4 -0.38,0.39 -0.4,0.37 -0.42,0.35 -0.43,0.32 -0.45,0.31 -0.46,0.28 -0.48,0.26 -0.48,0.24 -0.5,0.21 -0.51,0.18 -0.52,0.16 -0.53,0.13 -0.54,0.11 -0.55,0.07 -0.56,0.05 -0.56,0.01 -0.04,-1.09 c 2.18,0 4.32,-1.1 5.62,-3.24 1.3,-2.14 1.3,-5.03 1.3,-6.92 0,-1.8 0,-4.48 -1.1,-6.67 -1.09,-2.25 -3.28,-3.69 -5.78,-3.69 h 0 c -2.14,0 -4.33,1.05 -5.67,3.33 -1.25,2.2 -1.25,5.23 -1.25,7.03 0,1.94 0,4.63 1.19,6.83 1.36,2.28 3.69,3.33 5.69,3.33 l 0.04,1.09 c -6.22,0 -11.06,-5.42 -11.06,-11.65 0,-6.43 5.19,-11.21 11.02,-11.21 6.03,0 11.06,4.88 11.06,11.21 z" /><path
           style="fill:#000000;stroke-width:0"
           inkscape:connector-curvature="0"
           id="path9381"
           d="m 582.91,423.34 v -13.36 c 0,-2.23 -0.55,-2.23 -3.89,-2.23 v -1.55 c 1.75,0.05 4.28,0.16 5.63,0.16 1.29,0 3.88,-0.11 5.57,-0.16 v 1.55 c -3.32,0 -3.87,0 -3.87,2.23 v 9.17 c 0,5.19 3.53,7.97 6.72,7.97 3.14,0 3.68,-2.69 3.68,-5.53 v -11.61 c 0,-2.23 -0.54,-2.23 -3.89,-2.23 v -1.55 c 1.75,0.05 4.3,0.16 5.64,0.16 1.3,0 3.88,-0.11 5.58,-0.16 v 1.55 c -2.59,0 -3.84,0 -3.89,1.5 v 9.51 c 0,4.28 0,5.83 -1.54,7.61 -0.69,0.86 -2.35,1.84 -5.22,1.84 -3.65,0 -5.99,-2.14 -7.38,-5.21 v 5.21 l -7.03,-0.54 v -1.55 c 3.48,0 3.89,-0.34 3.89,-2.78 z" /><path
           style="fill:#000000;stroke-width:0"
           inkscape:connector-curvature="0"
           id="path9383"
           d="m 615.5,415.87 0.12,-0.02 0.12,-0.02 0.14,-0.03 0.16,-0.04 0.17,-0.04 0.18,-0.04 0.19,-0.05 0.2,-0.06 0.2,-0.06 0.21,-0.07 0.22,-0.08 0.22,-0.08 0.22,-0.1 0.22,-0.1 0.22,-0.11 0.22,-0.12 0.21,-0.14 0.21,-0.14 0.21,-0.15 0.2,-0.16 0.19,-0.18 0.18,-0.19 0.17,-0.2 0.15,-0.21 0.15,-0.22 0.06,-0.12 0.07,-0.12 0.05,-0.13 0.06,-0.12 0.05,-0.14 0.04,-0.13 0.04,-0.14 0.04,-0.14 0.03,-0.15 0.02,-0.15 0.02,-0.16 0.02,-0.15 0.01,-0.17 0,-0.16 c 0,-2.53 -1.75,-4.53 -5.62,-4.53 -4.19,0 -5.99,2.84 -6.94,7.07 -0.14,0.64 -0.19,0.85 -0.69,0.85 -0.66,0 -0.66,-0.35 -0.66,-1.25 v -6.58 c 0,-0.84 0,-1.19 0.55,-1.19 0.25,0 0.3,0.05 1.25,1 0.1,0.1 0.1,0.19 1,1.14 2.19,-2.09 4.44,-2.14 5.49,-2.14 5.71,0 8.01,3.35 8.01,6.92 0,2.64 -1.5,4.14 -2.09,4.74 -1.64,1.59 -3.59,2 -5.69,2.39 -2.78,0.55 -6.12,1.2 -6.12,4.09 0,1.74 1.29,3.78 5.57,3.78 5.49,0 5.74,-4.48 5.83,-6.03 0.07,-0.45 0.5,-0.45 0.61,-0.45 0.64,0 0.64,0.25 0.64,1.2 v 5.03 c 0,0.85 0,1.19 -0.55,1.19 -0.25,0 -0.34,0 -1,-0.59 -0.13,-0.21 -0.63,-0.64 -0.84,-0.8 -1.89,1.39 -3.94,1.39 -4.69,1.39 -6.07,0 -7.97,-3.33 -7.97,-6.12 0,-1.74 0.8,-3.14 2.15,-4.24 1.59,-1.29 3,-1.59 6.57,-2.28 z" /></g>    </g>
    <g
       transform="matrix(2.0736,0,0,2.0736,1007.3341,-2932.2322)"
       id="g9771">
      <g
         style="font-style:normal;font-variant:normal;font-weight:normal;font-stretch:normal;letter-spacing:normal;word-spacing:normal;text-anchor:start;fill:none;stroke:#000000;stroke-width:0.48225307;stroke-linecap:butt;stroke-linejoin:miter;stroke-miterlimit:10.43299961;stroke-opacity:1;stroke-dasharray:none;stroke-dashoffset:0"
         id="g9773"
         transform="matrix(0.68431833,0,0,-0.68431833,-119.75571,1637.2709)"
         xml:space="preserve"
         stroke-miterlimit="10.433"
         font-style="normal"
         font-variant="normal"
         font-weight="normal"
         font-stretch="normal"
         font-size-adjust="none"
         letter-spacing="normal"
         word-spacing="normal"><path
           style="fill:#000000;stroke-width:0"
           inkscape:connector-curvature="0"
           d="m 465.88,415.87 0.11,-0.02 0.13,-0.02 0.14,-0.03 0.16,-0.04 0.16,-0.04 0.18,-0.04 0.19,-0.05 0.2,-0.06 0.21,-0.06 0.21,-0.07 0.21,-0.08 0.22,-0.08 0.22,-0.1 0.22,-0.1 0.22,-0.11 0.22,-0.12 0.22,-0.14 0.21,-0.14 0.2,-0.15 0.2,-0.16 0.19,-0.18 0.18,-0.19 0.17,-0.2 0.16,-0.21 0.14,-0.22 0.07,-0.12 0.06,-0.12 0.06,-0.13 0.05,-0.12 0.05,-0.14 0.05,-0.13 0.04,-0.14 0.03,-0.14 0.03,-0.15 0.03,-0.15 0.02,-0.16 0.01,-0.15 0.01,-0.17 0.01,-0.16 c 0,-2.53 -1.75,-4.53 -5.63,-4.53 -4.19,0 -5.98,2.84 -6.94,7.07 -0.14,0.64 -0.18,0.85 -0.68,0.85 -0.66,0 -0.66,-0.35 -0.66,-1.25 v -6.58 c 0,-0.84 0,-1.19 0.55,-1.19 0.25,0 0.29,0.05 1.25,1 0.09,0.1 0.09,0.19 1,1.14 2.18,-2.09 4.43,-2.14 5.48,-2.14 5.72,0 8.02,3.35 8.02,6.92 0,2.64 -1.5,4.14 -2.1,4.74 -1.64,1.59 -3.59,2 -5.68,2.39 -2.79,0.55 -6.13,1.2 -6.13,4.09 0,1.74 1.3,3.78 5.58,3.78 5.48,0 5.73,-4.48 5.83,-6.03 0.06,-0.45 0.5,-0.45 0.61,-0.45 0.64,0 0.64,0.25 0.64,1.2 v 5.03 c 0,0.85 0,1.19 -0.55,1.19 -0.25,0 -0.34,0 -1,-0.59 -0.14,-0.21 -0.64,-0.64 -0.84,-0.8 -1.89,1.39 -3.94,1.39 -4.69,1.39 -6.08,0 -7.97,-3.33 -7.97,-6.12 0,-1.74 0.8,-3.14 2.14,-4.24 1.59,-1.29 3,-1.59 6.58,-2.28 z"
           id="path9775" /><path
           style="fill:#000000;stroke-width:0"
           inkscape:connector-curvature="0"
           d="m 480.68,409.98 0,-0.1 0,-0.1 0,-0.19 -0.01,-0.18 -0.02,-0.17 -0.01,-0.15 -0.03,-0.15 -0.03,-0.13 -0.03,-0.12 -0.05,-0.11 -0.04,-0.11 -0.06,-0.09 -0.07,-0.09 -0.07,-0.08 -0.08,-0.07 -0.09,-0.06 -0.1,-0.05 -0.11,-0.05 -0.12,-0.05 -0.13,-0.03 -0.14,-0.04 -0.15,-0.02 -0.16,-0.03 -0.18,-0.01 -0.09,-0.01 -0.1,-0.01 -0.1,-0.01 -0.1,0 -0.11,-0.01 -0.11,0 -0.11,0 -0.12,-0.01 -0.12,0 -0.12,0 -0.13,0 -0.13,0 -0.13,0 -0.14,0 -0.14,0 -0.15,0 -0.15,0 -0.16,0 v -1.55 c 1.75,0.05 4.28,0.16 5.63,0.16 1.29,0 3.89,-0.11 5.58,-0.16 v 1.55 c -3.33,0 -3.88,0 -3.88,2.23 v 9.17 c 0,5.19 3.53,7.97 6.72,7.97 3.14,0 3.69,-2.69 3.69,-5.53 v -11.61 c 0,-2.23 -0.55,-2.23 -3.89,-2.23 v -1.55 c 1.75,0.05 4.29,0.16 5.64,0.16 1.29,0 3.87,-0.11 5.58,-0.16 v 1.55 c -2.6,0 -3.85,0 -3.9,1.5 v 9.51 c 0,4.28 0,5.83 -1.54,7.61 -0.69,0.86 -2.35,1.84 -5.22,1.84 -4.19,0 -6.39,-2.98 -7.24,-4.87 v 17.44 l -7.17,-0.55 v -1.55 c 3.49,0 3.89,-0.34 3.89,-2.79 z"
           id="path9777" /><path
           style="fill:#000000;stroke-width:0"
           inkscape:connector-curvature="0"
           d="m 508.45,417.71 0.05,1.05 c 0.29,7.42 4.48,8.66 6.18,8.66 5.13,0 5.63,-6.72 5.63,-8.66 H 508.5 l -0.05,-1.05 h 13.9 c 1.1,0 1.24,0 1.24,1.05 0,4.92 -2.69,9.75 -8.91,9.75 -5.78,0 -10.37,-5.12 -10.37,-11.36 0,-6.67 5.23,-11.5 10.97,-11.5 6.07,0 8.31,5.53 8.31,6.47 0,0.5 -0.39,0.61 -0.64,0.61 -0.45,0 -0.55,-0.3 -0.66,-0.7 -1.73,-5.13 -6.22,-5.13 -6.72,-5.13 -2.5,0 -4.48,1.49 -5.62,3.33 -1.5,2.39 -1.5,5.69 -1.5,7.48 z"
           id="path9779" /><path
           style="fill:#000000;stroke-width:0"
           inkscape:connector-curvature="0"
           d="m 541.59,409.98 0.02,-0.19 0.03,-0.18 0.04,-0.19 0.04,-0.18 0.05,-0.19 0.05,-0.18 0.07,-0.18 0.06,-0.18 0.08,-0.18 0.08,-0.17 0.09,-0.18 0.09,-0.16 0.1,-0.16 0.11,-0.16 0.11,-0.16 0.12,-0.14 0.13,-0.14 0.13,-0.14 0.14,-0.13 0.14,-0.12 0.15,-0.12 0.16,-0.1 0.16,-0.1 0.17,-0.09 0.18,-0.08 0.18,-0.07 0.19,-0.06 0.19,-0.05 0.2,-0.04 0.2,-0.03 0.21,-0.02 0.22,-0.01 c 1.03,0 4.08,0.71 4.08,4.74 v 2.78 h -1.25 v -2.78 c 0,-2.89 -1.24,-3.19 -1.8,-3.19 -1.64,0 -1.84,2.23 -1.84,2.48 v 9.97 c 0,2.1 0,4.03 -1.78,5.88 -1.96,1.93 -4.44,2.73 -6.83,2.73 -4.09,0 -7.53,-2.33 -7.53,-5.62 0,-1.49 1,-2.35 2.29,-2.35 1.4,0 2.3,1 2.3,2.3 0,0.59 -0.25,2.23 -2.55,2.3 1.35,1.73 3.78,2.28 5.38,2.28 2.45,0 5.28,-1.94 5.28,-6.38 v -1.84 -1.05 -4.98 c 0,-4.74 -3.58,-6.42 -5.83,-6.42 -2.43,0 -4.48,1.75 -4.48,4.23 0,2.73 2.09,6.88 10.31,7.17 h 0 v 1.05 c -2.53,-0.14 -6.01,-0.3 -9.16,-1.8 -3.73,-1.69 -4.98,-4.28 -4.98,-6.47 0,-4.03 4.83,-5.28 7.97,-5.28 3.29,0 5.58,1.99 6.53,4.33 z"
           id="path9781" /><path
           style="fill:#000000;stroke-width:0"
           inkscape:connector-curvature="0"
           d="m 558.67,427.67 v 5.78 c 0,4.39 2.39,6.78 4.58,6.78 0.16,0 0.91,0 1.66,-0.36 -0.61,-0.19 -1.5,-0.84 -1.5,-2.08 0,-1.15 0.79,-2.15 2.14,-2.15 1.43,0 2.18,1 2.18,2.2 0,1.84 -1.84,3.48 -4.48,3.48 -3.48,0 -7.72,-2.64 -7.72,-7.92 v -5.73 h -3.94 v -1.55 h 3.94 v -16.14 c 0,-2.23 -0.55,-2.23 -3.89,-2.23 v -1.55 c 1.95,0.05 4.3,0.16 5.69,0.16 1.98,0 4.33,0 6.33,-0.16 v 1.55 h -1.05 c -3.69,0 -3.78,0.54 -3.78,2.34 v 16.03 h 5.67 v 1.55 z"
           id="path9783" /></g>    </g>
    <g
       id="g10173"
       transform="matrix(2.0736,0,0,2.0736,-553.20502,-2932.6153)">
      <g
         word-spacing="normal"
         letter-spacing="normal"
         font-size-adjust="none"
         font-stretch="normal"
         font-weight="normal"
         font-variant="normal"
         font-style="normal"
         stroke-miterlimit="10.433"
         xml:space="preserve"
         transform="matrix(0.68431833,0,0,-0.68431833,-119.75571,1637.2709)"
         id="content"
         style="font-style:normal;font-variant:normal;font-weight:normal;font-stretch:normal;letter-spacing:normal;word-spacing:normal;text-anchor:start;fill:none;stroke:#000000;stroke-width:0.48225307;stroke-linecap:butt;stroke-linejoin:miter;stroke-miterlimit:10.43299961;stroke-opacity:1;stroke-dasharray:none;stroke-dashoffset:0"><path
           id="path10176"
           d="m 465.88,415.87 0.11,-0.02 0.13,-0.02 0.14,-0.03 0.16,-0.04 0.16,-0.04 0.18,-0.04 0.19,-0.05 0.2,-0.06 0.21,-0.06 0.21,-0.07 0.21,-0.08 0.22,-0.08 0.22,-0.1 0.22,-0.1 0.22,-0.11 0.22,-0.12 0.22,-0.14 0.21,-0.14 0.2,-0.15 0.2,-0.16 0.19,-0.18 0.18,-0.19 0.17,-0.2 0.16,-0.21 0.14,-0.22 0.07,-0.12 0.06,-0.12 0.06,-0.13 0.05,-0.12 0.05,-0.14 0.05,-0.13 0.04,-0.14 0.03,-0.14 0.03,-0.15 0.03,-0.15 0.02,-0.16 0.01,-0.15 0.01,-0.17 0.01,-0.16 c 0,-2.53 -1.75,-4.53 -5.63,-4.53 -4.19,0 -5.98,2.84 -6.94,7.07 -0.14,0.64 -0.18,0.85 -0.68,0.85 -0.66,0 -0.66,-0.35 -0.66,-1.25 v -6.58 c 0,-0.84 0,-1.19 0.55,-1.19 0.25,0 0.29,0.05 1.25,1 0.09,0.1 0.09,0.19 1,1.14 2.18,-2.09 4.43,-2.14 5.48,-2.14 5.72,0 8.02,3.35 8.02,6.92 0,2.64 -1.5,4.14 -2.1,4.74 -1.64,1.59 -3.59,2 -5.68,2.39 -2.79,0.55 -6.13,1.2 -6.13,4.09 0,1.74 1.3,3.78 5.58,3.78 5.48,0 5.73,-4.48 5.83,-6.03 0.06,-0.45 0.5,-0.45 0.61,-0.45 0.64,0 0.64,0.25 0.64,1.2 v 5.03 c 0,0.85 0,1.19 -0.55,1.19 -0.25,0 -0.34,0 -1,-0.59 -0.14,-0.21 -0.64,-0.64 -0.84,-0.8 -1.89,1.39 -3.94,1.39 -4.69,1.39 -6.08,0 -7.97,-3.33 -7.97,-6.12 0,-1.74 0.8,-3.14 2.14,-4.24 1.59,-1.29 3,-1.59 6.58,-2.28 z"
           inkscape:connector-curvature="0"
           style="fill:#000000;stroke-width:0" /><path
           id="path10178"
           d="m 483.82,426.12 h 7.13 v 1.55 h -7.13 v 9.17 h -1.25 c -0.04,-4.08 -1.54,-9.42 -6.42,-9.61 v -1.11 h 4.24 v -13.75 c 0,-6.12 4.62,-6.72 6.42,-6.72 3.53,0 4.94,3.53 4.94,6.72 v 2.84 h -1.25 v -2.73 c 0,-3.69 -1.5,-5.58 -3.35,-5.58 -3.33,0 -3.33,4.53 -3.33,5.38 z"
           inkscape:connector-curvature="0"
           style="fill:#000000;stroke-width:0" /><path
           id="path10180"
           d="m 511.11,409.98 0.02,-0.19 0.03,-0.18 0.04,-0.19 0.04,-0.18 0.05,-0.19 0.05,-0.18 0.06,-0.18 0.07,-0.18 0.08,-0.18 0.08,-0.17 0.09,-0.18 0.09,-0.16 0.1,-0.16 0.11,-0.16 0.11,-0.16 0.12,-0.14 0.13,-0.14 0.13,-0.14 0.14,-0.13 0.14,-0.12 0.15,-0.12 0.16,-0.1 0.16,-0.1 0.17,-0.09 0.18,-0.08 0.18,-0.07 0.19,-0.06 0.19,-0.05 0.2,-0.04 0.2,-0.03 0.21,-0.02 0.22,-0.01 c 1.03,0 4.08,0.71 4.08,4.74 v 2.78 h -1.25 v -2.78 c 0,-2.89 -1.24,-3.19 -1.8,-3.19 -1.64,0 -1.84,2.23 -1.84,2.48 v 9.97 c 0,2.1 0,4.03 -1.78,5.88 -1.96,1.93 -4.44,2.73 -6.83,2.73 -4.1,0 -7.53,-2.33 -7.53,-5.62 0,-1.49 1,-2.35 2.29,-2.35 1.39,0 2.3,1 2.3,2.3 0,0.59 -0.25,2.23 -2.55,2.3 1.35,1.73 3.79,2.28 5.38,2.28 2.45,0 5.28,-1.94 5.28,-6.38 v -1.84 -1.05 -4.98 c 0,-4.74 -3.58,-6.42 -5.83,-6.42 -2.44,0 -4.48,1.75 -4.48,4.23 0,2.73 2.09,6.88 10.31,7.17 h 0 v 1.05 c -2.53,-0.14 -6.02,-0.3 -9.16,-1.8 -3.73,-1.69 -4.98,-4.28 -4.98,-6.47 0,-4.03 4.83,-5.28 7.97,-5.28 3.3,0 5.58,1.99 6.53,4.33 z"
           inkscape:connector-curvature="0"
           style="fill:#000000;stroke-width:0" /><path
           id="path10182"
           d="m 528.28,440.78 -7.17,-0.55 v -1.55 c 3.49,0 3.89,-0.34 3.89,-2.79 v -25.91 c 0,-2.23 -0.54,-2.23 -3.89,-2.23 v -1.55 c 1.64,0.05 4.29,0.16 5.54,0.16 1.25,0 3.68,-0.11 5.53,-0.16 v 1.55 c -3.35,0 -3.9,0 -3.9,2.23 z"
           inkscape:connector-curvature="0"
           style="fill:#000000;stroke-width:0" /><path
           id="path10184"
           d="m 538.55,409.98 0,-0.1 0,-0.1 -0.01,-0.19 -0.01,-0.18 -0.01,-0.17 -0.02,-0.15 -0.02,-0.15 -0.03,-0.13 -0.04,-0.12 -0.04,-0.11 -0.05,-0.11 -0.05,-0.09 -0.07,-0.09 -0.07,-0.08 -0.08,-0.07 -0.09,-0.06 -0.1,-0.05 -0.11,-0.05 -0.12,-0.05 -0.13,-0.03 -0.14,-0.04 -0.15,-0.02 -0.17,-0.03 -0.17,-0.01 -0.1,-0.01 -0.09,-0.01 -0.1,-0.01 -0.1,0 -0.11,-0.01 -0.11,0 -0.11,0 -0.12,-0.01 -0.12,0 -0.12,0 -0.13,0 -0.13,0 -0.14,0 -0.14,0 -0.14,0 -0.14,0 -0.16,0 -0.15,0 v -1.55 c 1.66,0.05 3.99,0.16 5.44,0.16 1.48,0 3.48,-0.07 5.48,-0.16 v 1.55 c -3.34,0 -3.89,0 -3.89,2.23 v 5.14 l 3.19,2.74 c 3.83,-5.29 5.92,-8.07 5.92,-8.97 0,-0.94 -0.84,-1.14 -1.78,-1.14 v -1.55 c 1.39,0.05 4.33,0.16 5.38,0.16 1.43,0 2.88,-0.07 4.32,-0.16 v 1.55 c -1.84,0 -2.94,0 -4.82,2.64 l -6.33,8.92 c -0.05,0.09 -0.3,0.39 -0.3,0.55 0,0.18 3.53,3.18 4.03,3.57 3.14,2.55 5.23,2.64 6.28,2.69 v 1.55 c -1.43,-0.14 -2.09,-0.14 -3.48,-0.14 -1.8,0 -4.89,0.09 -5.58,0.14 v -1.55 c 0.94,-0.05 1.44,-0.59 1.44,-1.23 0,-1 -0.69,-1.6 -1.1,-1.96 l -7.03,-6.07 v 23.92 l -7.17,-0.55 v -1.55 c 3.49,0 3.89,-0.34 3.89,-2.79 z"
           inkscape:connector-curvature="0"
           style="fill:#000000;stroke-width:0" /><path
           id="path10186"
           d="m 569.91,415.87 0.11,-0.02 0.12,-0.02 0.15,-0.03 0.15,-0.04 0.17,-0.04 0.18,-0.04 0.19,-0.05 0.2,-0.06 0.2,-0.06 0.21,-0.07 0.22,-0.08 0.22,-0.08 0.22,-0.1 0.22,-0.1 0.22,-0.11 0.22,-0.12 0.22,-0.14 0.21,-0.14 0.2,-0.15 0.2,-0.16 0.19,-0.18 0.18,-0.19 0.17,-0.2 0.16,-0.21 0.14,-0.22 0.07,-0.12 0.06,-0.12 0.06,-0.13 0.05,-0.12 0.05,-0.14 0.05,-0.13 0.04,-0.14 0.03,-0.14 0.03,-0.15 0.03,-0.15 0.02,-0.16 0.01,-0.15 0.01,-0.17 0,-0.16 c 0,-2.53 -1.75,-4.53 -5.62,-4.53 -4.19,0 -5.99,2.84 -6.94,7.07 -0.14,0.64 -0.19,0.85 -0.69,0.85 -0.65,0 -0.65,-0.35 -0.65,-1.25 v -6.58 c 0,-0.84 0,-1.19 0.54,-1.19 0.25,0 0.3,0.05 1.25,1 0.1,0.1 0.1,0.19 1,1.14 2.19,-2.09 4.44,-2.14 5.49,-2.14 5.72,0 8.01,3.35 8.01,6.92 0,2.64 -1.5,4.14 -2.09,4.74 -1.64,1.59 -3.59,2 -5.69,2.39 -2.78,0.55 -6.12,1.2 -6.12,4.09 0,1.74 1.3,3.78 5.58,3.78 5.48,0 5.73,-4.48 5.82,-6.03 0.07,-0.45 0.5,-0.45 0.61,-0.45 0.64,0 0.64,0.25 0.64,1.2 v 5.03 c 0,0.85 0,1.19 -0.54,1.19 -0.25,0 -0.35,0 -1,-0.59 -0.14,-0.21 -0.64,-0.64 -0.85,-0.8 -1.89,1.39 -3.93,1.39 -4.68,1.39 -6.08,0 -7.97,-3.33 -7.97,-6.12 0,-1.74 0.79,-3.14 2.14,-4.24 1.59,-1.29 3,-1.59 6.58,-2.28 z"
           inkscape:connector-curvature="0"
           style="fill:#000000;stroke-width:0" /></g>    </g>
  </g>
</svg>
