<?xml version="1.0" encoding="UTF-8" standalone="no"?>
<!-- Created with Inkscape (http://www.inkscape.org/) -->

<svg
   xmlns:dc="http://purl.org/dc/elements/1.1/"
   xmlns:cc="http://creativecommons.org/ns#"
   xmlns:rdf="http://www.w3.org/1999/02/22-rdf-syntax-ns#"
   xmlns:svg="http://www.w3.org/2000/svg"
   xmlns="http://www.w3.org/2000/svg"
   xmlns:xlink="http://www.w3.org/1999/xlink"
   xmlns:sodipodi="http://sodipodi.sourceforge.net/DTD/sodipodi-0.dtd"
   xmlns:inkscape="http://www.inkscape.org/namespaces/inkscape"
   width="635"
   height="485"
   id="svg2"
   sodipodi:version="0.32"
   inkscape:version="0.48.3.1 r9886"
   version="1.0"
   sodipodi:docname="sheafex3_gluing.svg"
   inkscape:output_extension="org.inkscape.output.svg.inkscape">
  <defs
     id="defs4">
    <linearGradient
       inkscape:collect="always"
       id="linearGradient3314">
      <stop
         style="stop-color:#000000;stop-opacity:1;"
         offset="0"
         id="stop3316" />
      <stop
         style="stop-color:#000000;stop-opacity:0;"
         offset="1"
         id="stop3318" />
    </linearGradient>
    <linearGradient
       inkscape:collect="always"
       id="linearGradient3259">
      <stop
         style="stop-color:#000000;stop-opacity:1;"
         offset="0"
         id="stop3261" />
      <stop
         style="stop-color:#000000;stop-opacity:0;"
         offset="1"
         id="stop3263" />
    </linearGradient>
    <linearGradient
       id="linearGradient3227">
      <stop
         style="stop-color:#1bde00;stop-opacity:1;"
         offset="0"
         id="stop3229" />
      <stop
         style="stop-color:#09530b;stop-opacity:0.12941177;"
         offset="1"
         id="stop3231" />
    </linearGradient>
    <linearGradient
       id="linearGradient3173">
      <stop
         id="stop3175"
         offset="0"
         style="stop-color:#ff0b0b;stop-opacity:1;" />
      <stop
         id="stop3177"
         offset="1"
         style="stop-color:#530909;stop-opacity:0.12941177;" />
    </linearGradient>
    <linearGradient
       id="linearGradient3155">
      <stop
         style="stop-color:#3755d3;stop-opacity:1;"
         offset="0"
         id="stop3157" />
      <stop
         style="stop-color:#183aca;stop-opacity:0;"
         offset="1"
         id="stop3159" />
    </linearGradient>
    <inkscape:perspective
       sodipodi:type="inkscape:persp3d"
       inkscape:vp_x="0 : 526.18109 : 1"
       inkscape:vp_y="0 : 1000 : 0"
       inkscape:vp_z="744.09448 : 526.18109 : 1"
       inkscape:persp3d-origin="372.04724 : 350.78739 : 1"
       id="perspective10" />
    <linearGradient
       inkscape:collect="always"
       xlink:href="#linearGradient3155"
       id="linearGradient3161"
       x1="364.04123"
       y1="564.32269"
       x2="364.11716"
       y2="719.52771"
       gradientUnits="userSpaceOnUse" />
    <linearGradient
       inkscape:collect="always"
       xlink:href="#linearGradient3173"
       id="linearGradient3171"
       x1="253.98857"
       y1="683.08185"
       x2="253.98857"
       y2="624.09778"
       gradientUnits="userSpaceOnUse" />
    <linearGradient
       inkscape:collect="always"
       xlink:href="#linearGradient3227"
       id="linearGradient3181"
       gradientUnits="userSpaceOnUse"
       x1="253.98857"
       y1="683.08185"
       x2="253.98857"
       y2="624.09778" />
    <linearGradient
       inkscape:collect="always"
       xlink:href="#linearGradient3173"
       id="linearGradient3255"
       gradientUnits="userSpaceOnUse"
       x1="253.98857"
       y1="683.08185"
       x2="253.98857"
       y2="624.09778" />
    <linearGradient
       inkscape:collect="always"
       xlink:href="#linearGradient3259"
       id="linearGradient3265"
       x1="235.47993"
       y1="678.47736"
       x2="234.91006"
       y2="624.09778"
       gradientUnits="userSpaceOnUse" />
    <linearGradient
       inkscape:collect="always"
       xlink:href="#linearGradient3227"
       id="linearGradient3273"
       gradientUnits="userSpaceOnUse"
       x1="253.98857"
       y1="683.08185"
       x2="253.98857"
       y2="624.09778" />
    <linearGradient
       inkscape:collect="always"
       xlink:href="#linearGradient3259"
       id="linearGradient3275"
       gradientUnits="userSpaceOnUse"
       x1="235.47993"
       y1="678.47736"
       x2="234.91006"
       y2="624.09778" />
    <linearGradient
       inkscape:collect="always"
       xlink:href="#linearGradient3155"
       id="linearGradient3302"
       gradientUnits="userSpaceOnUse"
       x1="227.95441"
       y1="627.0332"
       x2="231.28769"
       y2="755.80035" />
    <linearGradient
       inkscape:collect="always"
       xlink:href="#linearGradient3314"
       id="linearGradient3320"
       x1="257.64426"
       y1="754.98828"
       x2="258.54688"
       y2="612.86127"
       gradientUnits="userSpaceOnUse" />
    <linearGradient
       inkscape:collect="always"
       xlink:href="#linearGradient3155"
       id="linearGradient3344"
       gradientUnits="userSpaceOnUse"
       x1="479.24316"
       y1="470.70312"
       x2="479.57663"
       y2="591.80707" />
    <linearGradient
       inkscape:collect="always"
       xlink:href="#linearGradient3314"
       id="linearGradient3346"
       gradientUnits="userSpaceOnUse"
       x1="471.19318"
       y1="592.52765"
       x2="467.90359"
       y2="446.26862" />
    <linearGradient
       inkscape:collect="always"
       xlink:href="#linearGradient3155"
       id="linearGradient3396"
       gradientUnits="userSpaceOnUse"
       x1="227.95441"
       y1="627.0332"
       x2="231.28769"
       y2="755.80035" />
    <linearGradient
       inkscape:collect="always"
       xlink:href="#linearGradient3314"
       id="linearGradient3398"
       gradientUnits="userSpaceOnUse"
       x1="257.64426"
       y1="754.98828"
       x2="258.54688"
       y2="612.86127" />
    <linearGradient
       inkscape:collect="always"
       xlink:href="#linearGradient3155"
       id="linearGradient3401"
       gradientUnits="userSpaceOnUse"
       x1="227.95441"
       y1="627.0332"
       x2="231.28769"
       y2="755.80035"
       gradientTransform="translate(2.1478355,-249.06369)" />
    <linearGradient
       inkscape:collect="always"
       xlink:href="#linearGradient3314"
       id="linearGradient3403"
       gradientUnits="userSpaceOnUse"
       x1="257.64426"
       y1="754.98828"
       x2="258.54688"
       y2="612.86127"
       gradientTransform="translate(2.1478355,-249.06369)" />
    <linearGradient
       inkscape:collect="always"
       xlink:href="#linearGradient3155"
       id="linearGradient3409"
       gradientUnits="userSpaceOnUse"
       x1="227.95441"
       y1="627.0332"
       x2="231.28769"
       y2="755.80035" />
    <linearGradient
       inkscape:collect="always"
       xlink:href="#linearGradient3314"
       id="linearGradient3411"
       gradientUnits="userSpaceOnUse"
       x1="257.64426"
       y1="754.98828"
       x2="258.54688"
       y2="612.86127" />
    <linearGradient
       inkscape:collect="always"
       xlink:href="#linearGradient3155"
       id="linearGradient3414"
       gradientUnits="userSpaceOnUse"
       x1="227.95441"
       y1="627.0332"
       x2="231.28769"
       y2="755.80035"
       gradientTransform="translate(2.1478355,-249.06369)" />
    <linearGradient
       inkscape:collect="always"
       xlink:href="#linearGradient3314"
       id="linearGradient3416"
       gradientUnits="userSpaceOnUse"
       x1="257.64426"
       y1="754.98828"
       x2="258.54688"
       y2="612.86127"
       gradientTransform="translate(2.1478355,-249.06369)" />
    <clipPath
       clipPathUnits="userSpaceOnUse"
       id="clipPath3420">
      <path
         style="fill:none;fill-rule:evenodd;stroke:#000000;stroke-width:1px;stroke-linecap:butt;stroke-linejoin:miter;stroke-opacity:1"
         d="M 343.28014,608.54476 L 387.66133,628.1247 L 692.4557,622.90338 L 691.80304,464.30589 L 341.32215,463.65322 L 343.28014,608.54476 z"
         id="path3422" />
    </clipPath>
    <linearGradient
       inkscape:collect="always"
       xlink:href="#linearGradient3155"
       id="linearGradient3083"
       gradientUnits="userSpaceOnUse"
       x1="479.24316"
       y1="470.70312"
       x2="479.57663"
       y2="591.80707" />
    <linearGradient
       inkscape:collect="always"
       xlink:href="#linearGradient3314"
       id="linearGradient3085"
       gradientUnits="userSpaceOnUse"
       x1="471.19318"
       y1="592.52765"
       x2="467.90359"
       y2="446.26862" />
    <linearGradient
       inkscape:collect="always"
       xlink:href="#linearGradient3155"
       id="linearGradient3087"
       gradientUnits="userSpaceOnUse"
       gradientTransform="translate(2.1478355,-249.06369)"
       x1="227.95441"
       y1="627.0332"
       x2="231.28769"
       y2="755.80035" />
    <linearGradient
       inkscape:collect="always"
       xlink:href="#linearGradient3314"
       id="linearGradient3089"
       gradientUnits="userSpaceOnUse"
       gradientTransform="translate(2.1478355,-249.06369)"
       x1="257.64426"
       y1="754.98828"
       x2="258.54688"
       y2="612.86127" />
    <linearGradient
       inkscape:collect="always"
       xlink:href="#linearGradient3155"
       id="linearGradient3091"
       gradientUnits="userSpaceOnUse"
       x1="364.04123"
       y1="564.32269"
       x2="364.11716"
       y2="719.52771" />
    <linearGradient
       inkscape:collect="always"
       xlink:href="#linearGradient3173"
       id="linearGradient3093"
       gradientUnits="userSpaceOnUse"
       x1="253.98857"
       y1="683.08185"
       x2="253.98857"
       y2="624.09778" />
    <linearGradient
       inkscape:collect="always"
       xlink:href="#linearGradient3227"
       id="linearGradient3095"
       gradientUnits="userSpaceOnUse"
       x1="253.98857"
       y1="683.08185"
       x2="253.98857"
       y2="624.09778" />
    <linearGradient
       inkscape:collect="always"
       xlink:href="#linearGradient3173"
       id="linearGradient3097"
       gradientUnits="userSpaceOnUse"
       x1="253.98857"
       y1="683.08185"
       x2="253.98857"
       y2="624.09778" />
    <linearGradient
       inkscape:collect="always"
       xlink:href="#linearGradient3259"
       id="linearGradient3099"
       gradientUnits="userSpaceOnUse"
       x1="235.47993"
       y1="678.47736"
       x2="234.91006"
       y2="624.09778" />
    <linearGradient
       inkscape:collect="always"
       xlink:href="#linearGradient3227"
       id="linearGradient3101"
       gradientUnits="userSpaceOnUse"
       x1="253.98857"
       y1="683.08185"
       x2="253.98857"
       y2="624.09778" />
    <linearGradient
       inkscape:collect="always"
       xlink:href="#linearGradient3259"
       id="linearGradient3103"
       gradientUnits="userSpaceOnUse"
       x1="235.47993"
       y1="678.47736"
       x2="234.91006"
       y2="624.09778" />
    <linearGradient
       inkscape:collect="always"
       xlink:href="#linearGradient3155"
       id="linearGradient3133"
       gradientUnits="userSpaceOnUse"
       gradientTransform="translate(2.1478355,-249.06369)"
       x1="227.95441"
       y1="627.0332"
       x2="231.28769"
       y2="755.80035" />
    <linearGradient
       inkscape:collect="always"
       xlink:href="#linearGradient3314"
       id="linearGradient3135"
       gradientUnits="userSpaceOnUse"
       gradientTransform="translate(2.1478355,-249.06369)"
       x1="257.64426"
       y1="754.98828"
       x2="258.54688"
       y2="612.86127" />
  </defs>
  <sodipodi:namedview
     id="base"
     pagecolor="#ffffff"
     bordercolor="#666666"
     borderopacity="1.0"
     gridtolerance="10000"
     guidetolerance="10"
     objecttolerance="10"
     inkscape:pageopacity="0.0"
     inkscape:pageshadow="2"
     inkscape:zoom="1.0834152"
     inkscape:cx="300.23997"
     inkscape:cy="287.73273"
     inkscape:document-units="px"
     inkscape:current-layer="layer1"
     showgrid="false"
     inkscape:window-width="1440"
     inkscape:window-height="821"
     inkscape:window-x="375"
     inkscape:window-y="154"
     inkscape:window-maximized="0" />
  <metadata
     id="metadata7">
    <rdf:RDF>
      <cc:Work
         rdf:about="">
        <dc:format>image/svg+xml</dc:format>
        <dc:type
           rdf:resource="http://purl.org/dc/dcmitype/StillImage" />
        <dc:title></dc:title>
      </cc:Work>
    </rdf:RDF>
  </metadata>
  <g
     inkscape:label="Layer 1"
     inkscape:groupmode="layer"
     id="layer1"
     transform="translate(-58.908217,-214.51933)">
    <g
       id="g3140">
      <path
         transform="translate(303.99922,61.487521)"
         sodipodi:type="arc"
         style="fill:#1ccb00;fill-opacity:1;stroke:none"
         id="path3215"
         sodipodi:cx="212.24518"
         sodipodi:cy="243.24863"
         sodipodi:rx="7.9734325"
         sodipodi:ry="7.9734325"
         d="m 220.21861,243.24863 a 7.9734325,7.9734325 0 1 1 -15.94686,0 7.9734325,7.9734325 0 1 1 15.94686,0 z" />
      <path
         d="m 220.21861,243.24863 a 7.9734325,7.9734325 0 1 1 -15.94686,0 7.9734325,7.9734325 0 1 1 15.94686,0 z"
         sodipodi:ry="7.9734325"
         sodipodi:rx="7.9734325"
         sodipodi:cy="243.24863"
         sodipodi:cx="212.24518"
         id="path3213"
         style="fill:#1ccb00;fill-opacity:1;stroke:none"
         sodipodi:type="arc"
         transform="translate(303.99922,88.987124)" />
      <path
         mask="none"
         clip-path="url(#clipPath3420)"
         sodipodi:nodetypes="csssssssssc"
         id="path3297"
         d="m 686.54932,528.75587 c 0,15.55138 -35.04869,29.63778 -91.68988,39.83632 -28.32059,5.09928 -62.03931,9.22659 -99.47412,12.07909 -18.71741,1.42625 -48.15912,6.46406 -74.22481,15.24192 -25.28963,8.51651 -34.75859,23.48176 -38.87596,46.82843 -1.76698,10.01928 -75.17968,-6.37375 -44.07177,-24.11546 12.83492,-7.32011 12.19039,-55.9266 19.50687,-87.85321 4.82322,-21.04691 28.83042,-33.82655 55.1973,-42.1614 25.90415,-8.18857 52.65566,-12.5447 82.46837,-11.77111 37.53013,0.99563 68.54287,5.67448 99.47412,12.07909 56.35659,11.66917 91.68988,24.28495 91.68988,39.83633 z"
         style="fill:url(#linearGradient3083);fill-opacity:1;stroke:url(#linearGradient3085);stroke-width:3.54330707;stroke-miterlimit:4;stroke-opacity:1"
         transform="translate(2.1478355,-249.06369)"
         inkscape:connector-curvature="0" />
      <path
         style="fill:url(#linearGradient3133);fill-opacity:1;stroke:url(#linearGradient3135);stroke-width:3.54330707;stroke-miterlimit:4;stroke-opacity:1"
         d="m 387.69571,392.37261 c -0.03,20.34778 14.78421,63.72718 -18.22373,82.13996 -23.79664,13.27446 -96.76286,20.08003 -115.48027,18.65378 -37.43482,-2.8525 -71.15353,-6.97981 -99.47412,-12.07909 -56.641194,-10.19854 -91.689884,-24.28494 -91.689884,-39.83632 0,-15.55138 35.04869,-29.63778 91.689884,-39.83633 28.32059,-5.09928 62.0393,-9.2266 99.47412,-12.07909 18.71741,-1.42625 83.95017,-4.50859 92.22815,-29.86284 6.407,-19.62372 10.86155,-62.70337 13.24967,-80.25529 1.15538,-8.4917 -4.83421,18.7945 32.21001,34.53628 29.63822,12.59463 94.8172,17.93459 91.13473,18.48342 -59.46233,8.86231 -95.06205,20.93847 -95.11856,60.13552 z"
         id="path3407"
         sodipodi:nodetypes="csssssssssss"
         inkscape:connector-curvature="0" />
      <path
         transform="translate(2.1478355,2.1478355)"
         d="m 686.54932,635.40485 a 312.93472,56.345585 0 1 1 -625.869449,0 312.93472,56.345585 0 1 1 625.869449,0 z"
         sodipodi:ry="56.345585"
         sodipodi:rx="312.93472"
         sodipodi:cy="635.40485"
         sodipodi:cx="373.61459"
         id="path2383"
         style="fill:url(#linearGradient3091);fill-opacity:1;stroke:#000000;stroke-width:3.54330707;stroke-miterlimit:4;stroke-opacity:1;stroke-dasharray:none"
         sodipodi:type="arc" />
      <path
         transform="translate(-6.5207163,-15.189269)"
         d="m 372.74773,648.40765 a 118.75916,22.538235 0 1 1 -237.51832,0 118.75916,22.538235 0 1 1 237.51832,0 z"
         sodipodi:ry="22.538235"
         sodipodi:rx="118.75916"
         sodipodi:cy="648.40765"
         sodipodi:cx="253.98857"
         id="path3163"
         style="fill:url(#linearGradient3093);fill-opacity:1;stroke:#000000;stroke-width:3.54330707;stroke-miterlimit:4;stroke-opacity:1;stroke-dasharray:none"
         sodipodi:type="arc" />
      <path
         sodipodi:type="arc"
         style="fill:url(#linearGradient3095);fill-opacity:1;stroke:#000000;stroke-width:3.54330707;stroke-miterlimit:4;stroke-opacity:1;stroke-dasharray:none"
         id="path3179"
         sodipodi:cx="253.98857"
         sodipodi:cy="648.40765"
         sodipodi:rx="118.75916"
         sodipodi:ry="22.538235"
         d="m 372.74773,648.40765 a 118.75916,22.538235 0 1 1 -237.51832,0 118.75916,22.538235 0 1 1 237.51832,0 z"
         transform="translate(257.00326,-15.189269)" />
      <path
         transform="translate(5.8907411,1.0739178)"
         d="m 251.388,631.07056 a 11.269117,3.4674208 0 1 1 -22.53824,0 11.269117,3.4674208 0 1 1 22.53824,0 z"
         sodipodi:ry="3.4674208"
         sodipodi:rx="11.269117"
         sodipodi:cy="631.07056"
         sodipodi:cx="240.11888"
         id="path3183"
         style="fill:#000000;fill-opacity:1;stroke:#000000;stroke-width:3.54330707;stroke-miterlimit:4;stroke-opacity:1;stroke-dasharray:none"
         sodipodi:type="arc" />
      <path
         sodipodi:type="arc"
         style="fill:#000000;fill-opacity:1;stroke:#000000;stroke-width:3.54330707;stroke-miterlimit:4;stroke-opacity:1;stroke-dasharray:none"
         id="path3185"
         sodipodi:cx="240.11888"
         sodipodi:cy="631.07056"
         sodipodi:rx="11.269117"
         sodipodi:ry="3.4674208"
         d="m 251.388,631.07056 a 11.269117,3.4674208 0 1 1 -22.53824,0 11.269117,3.4674208 0 1 1 22.53824,0 z"
         transform="translate(277.23924,1.0739178)" />
      <rect
         ry="25.818733"
         y="218.43867"
         x="220.08833"
         height="259.70609"
         width="51.637466"
         id="rect3187"
         style="fill:none;stroke:#000000;stroke-width:3.54299998;stroke-miterlimit:4;stroke-opacity:1;stroke-dasharray:3.54299998, 3.54299998;stroke-dashoffset:0" />
      <path
         id="path3189"
         d="m 245.90707,477.38539 0,154.15302"
         style="fill:none;stroke:#000000;stroke-width:3.54299998;stroke-linecap:butt;stroke-linejoin:miter;stroke-miterlimit:4;stroke-opacity:1;stroke-dasharray:3.54299998, 3.54299998;stroke-dashoffset:0"
         inkscape:connector-curvature="0" />
      <path
         transform="translate(33.661884,5.9446747)"
         d="m 220.21861,243.24863 a 7.9734325,7.9734325 0 1 1 -15.94686,0 7.9734325,7.9734325 0 1 1 15.94686,0 z"
         sodipodi:ry="7.9734325"
         sodipodi:rx="7.9734325"
         sodipodi:cy="243.24863"
         sodipodi:cx="212.24518"
         id="path3191"
         style="fill:#f10000;fill-opacity:1;stroke:none"
         sodipodi:type="arc" />
      <path
         transform="translate(33.661884,33.716098)"
         sodipodi:type="arc"
         style="fill:#f10000;fill-opacity:1;stroke:none"
         id="path3193"
         sodipodi:cx="212.24518"
         sodipodi:cy="243.24863"
         sodipodi:rx="7.9734325"
         sodipodi:ry="7.9734325"
         d="m 220.21861,243.24863 a 7.9734325,7.9734325 0 1 1 -15.94686,0 7.9734325,7.9734325 0 1 1 15.94686,0 z" />
      <path
         d="m 220.21861,243.24863 a 7.9734325,7.9734325 0 1 1 -15.94686,0 7.9734325,7.9734325 0 1 1 15.94686,0 z"
         sodipodi:ry="7.9734325"
         sodipodi:rx="7.9734325"
         sodipodi:cy="243.24863"
         sodipodi:cx="212.24518"
         id="path3195"
         style="fill:#f10000;fill-opacity:1;stroke:none"
         sodipodi:type="arc"
         transform="translate(33.661884,61.487521)" />
      <path
         transform="translate(33.661884,89.258945)"
         sodipodi:type="arc"
         style="fill:#f10000;fill-opacity:1;stroke:none"
         id="path3197"
         sodipodi:cx="212.24518"
         sodipodi:cy="243.24863"
         sodipodi:rx="7.9734325"
         sodipodi:ry="7.9734325"
         d="m 220.21861,243.24863 a 7.9734325,7.9734325 0 1 1 -15.94686,0 7.9734325,7.9734325 0 1 1 15.94686,0 z" />
      <path
         d="m 220.21861,243.24863 a 7.9734325,7.9734325 0 1 1 -15.94686,0 7.9734325,7.9734325 0 1 1 15.94686,0 z"
         sodipodi:ry="7.9734325"
         sodipodi:rx="7.9734325"
         sodipodi:cy="243.24863"
         sodipodi:cx="212.24518"
         id="path3199"
         style="fill:#f10000;fill-opacity:1;stroke:none"
         sodipodi:type="arc"
         transform="translate(33.661884,117.03037)" />
      <path
         d="m 220.21861,243.24863 a 7.9734325,7.9734325 0 1 1 -15.94686,0 7.9734325,7.9734325 0 1 1 15.94686,0 z"
         sodipodi:ry="7.9734325"
         sodipodi:rx="7.9734325"
         sodipodi:cy="243.24863"
         sodipodi:cx="212.24518"
         id="path3203"
         style="fill:#f10000;fill-opacity:1;stroke:none"
         sodipodi:type="arc"
         transform="translate(33.661884,172.57322)" />
      <rect
         style="fill:none;stroke:#000000;stroke-width:3.54299998;stroke-miterlimit:4;stroke-opacity:1;stroke-dasharray:3.54299998, 3.54299998;stroke-dashoffset:0"
         id="rect3207"
         width="51.637466"
         height="259.70609"
         x="490.42566"
         y="218.43867"
         ry="25.818733" />
      <path
         style="fill:none;stroke:#000000;stroke-width:3.54299998;stroke-linecap:butt;stroke-linejoin:miter;stroke-miterlimit:4;stroke-opacity:1;stroke-dasharray:3.54299998, 3.54299998;stroke-dashoffset:0"
         d="m 516.2444,477.38539 0,154.15302"
         id="path3209"
         inkscape:connector-curvature="0" />
      <path
         sodipodi:type="arc"
         style="fill:#1ccb00;fill-opacity:1;stroke:none"
         id="path3211"
         sodipodi:cx="212.24518"
         sodipodi:cy="243.24863"
         sodipodi:rx="7.9734325"
         sodipodi:ry="7.9734325"
         d="m 220.21861,243.24863 a 7.9734325,7.9734325 0 1 1 -15.94686,0 7.9734325,7.9734325 0 1 1 15.94686,0 z"
         transform="translate(303.99922,5.9446747)" />
      <path
         d="m 220.21861,243.24863 a 7.9734325,7.9734325 0 1 1 -15.94686,0 7.9734325,7.9734325 0 1 1 15.94686,0 z"
         sodipodi:ry="7.9734325"
         sodipodi:rx="7.9734325"
         sodipodi:cy="243.24863"
         sodipodi:cx="212.24518"
         id="path3217"
         style="fill:none;stroke:none"
         sodipodi:type="arc"
         transform="translate(303.99922,89.258945)" />
      <path
         transform="translate(303.99922,117.03037)"
         sodipodi:type="arc"
         style="fill:#1ccb00;fill-opacity:1;stroke:none"
         id="path3219"
         sodipodi:cx="212.24518"
         sodipodi:cy="243.24863"
         sodipodi:rx="7.9734325"
         sodipodi:ry="7.9734325"
         d="m 220.21861,243.24863 a 7.9734325,7.9734325 0 1 1 -15.94686,0 7.9734325,7.9734325 0 1 1 15.94686,0 z" />
      <path
         d="m 220.21861,243.24863 a 7.9734325,7.9734325 0 1 1 -15.94686,0 7.9734325,7.9734325 0 1 1 15.94686,0 z"
         sodipodi:ry="7.9734325"
         sodipodi:rx="7.9734325"
         sodipodi:cy="243.24863"
         sodipodi:cx="212.24518"
         id="path3221"
         style="fill:#1ccb00;fill-opacity:1;stroke:none"
         sodipodi:type="arc"
         transform="translate(303.99922,144.80179)" />
      <path
         transform="translate(303.99922,172.57322)"
         sodipodi:type="arc"
         style="fill:#1ccb00;fill-opacity:1;stroke:none"
         id="path3223"
         sodipodi:cx="212.24518"
         sodipodi:cy="243.24863"
         sodipodi:rx="7.9734325"
         sodipodi:ry="7.9734325"
         d="m 220.21861,243.24863 a 7.9734325,7.9734325 0 1 1 -15.94686,0 7.9734325,7.9734325 0 1 1 15.94686,0 z" />
      <path
         d="m 220.21861,243.24863 a 7.9734325,7.9734325 0 1 1 -15.94686,0 7.9734325,7.9734325 0 1 1 15.94686,0 z"
         sodipodi:ry="7.9734325"
         sodipodi:rx="7.9734325"
         sodipodi:cy="243.24863"
         sodipodi:cx="212.24518"
         id="path3225"
         style="fill:#1ccb00;fill-opacity:1;stroke:none"
         sodipodi:type="arc"
         transform="translate(303.99922,200.3446)" />
      <path
         sodipodi:type="arc"
         style="fill:url(#linearGradient3097);fill-opacity:1;stroke:url(#linearGradient3099);stroke-width:3.54330707;stroke-miterlimit:4;stroke-opacity:1;stroke-dasharray:none"
         id="path3253"
         sodipodi:cx="253.98857"
         sodipodi:cy="648.40765"
         sodipodi:rx="118.75916"
         sodipodi:ry="22.538235"
         d="m 372.74773,648.40765 a 118.75916,22.538235 0 1 1 -237.51832,0 118.75916,22.538235 0 1 1 237.51832,0 z"
         transform="translate(-6.5207163,-206.81027)" />
      <path
         transform="translate(33.661884,144.80179)"
         sodipodi:type="arc"
         style="fill:none;stroke:none"
         id="path3201"
         sodipodi:cx="212.24518"
         sodipodi:cy="243.24863"
         sodipodi:rx="7.9734325"
         sodipodi:ry="7.9734325"
         d="m 220.21861,243.24863 a 7.9734325,7.9734325 0 1 1 -15.94686,0 7.9734325,7.9734325 0 1 1 15.94686,0 z" />
      <path
         sodipodi:type="arc"
         style="fill:#a30000;fill-opacity:1;stroke:#a30000;stroke-width:3.54330707;stroke-miterlimit:4;stroke-opacity:1;stroke-dasharray:none"
         id="path3257"
         sodipodi:cx="240.11888"
         sodipodi:cy="631.07056"
         sodipodi:rx="11.269117"
         sodipodi:ry="3.4674208"
         d="m 251.388,631.07056 a 11.269117,3.4674208 0 1 1 -22.53824,0 11.269117,3.4674208 0 1 1 22.53824,0 z"
         transform="translate(5.8907411,-187.11277)" />
      <path
         transform="translate(263.0109,-370.44309)"
         d="m 372.74773,648.40765 a 118.75916,22.538235 0 1 1 -237.51832,0 118.75916,22.538235 0 1 1 237.51832,0 z"
         sodipodi:ry="22.538235"
         sodipodi:rx="118.75916"
         sodipodi:cy="648.40765"
         sodipodi:cx="253.98857"
         id="path3267"
         style="fill:url(#linearGradient3101);fill-opacity:1;stroke:url(#linearGradient3103);stroke-width:3.54330707;stroke-miterlimit:4;stroke-opacity:1;stroke-dasharray:none"
         sodipodi:type="arc" />
      <path
         transform="translate(275.42236,-353.46723)"
         d="m 251.388,631.07056 a 11.269117,3.4674208 0 1 1 -22.53824,0 11.269117,3.4674208 0 1 1 22.53824,0 z"
         sodipodi:ry="3.4674208"
         sodipodi:rx="11.269117"
         sodipodi:cy="631.07056"
         sodipodi:cx="240.11888"
         id="path3271"
         style="fill:#185700;fill-opacity:1;stroke:#185700;stroke-width:3.54330707;stroke-miterlimit:4;stroke-opacity:1;stroke-dasharray:none"
         sodipodi:type="arc" />
      <path
         transform="translate(33.661884,143.62858)"
         sodipodi:type="arc"
         style="fill:#f10000;fill-opacity:1;stroke:none"
         id="path3205"
         sodipodi:cx="212.24518"
         sodipodi:cy="243.24863"
         sodipodi:rx="7.9734325"
         sodipodi:ry="7.9734325"
         d="m 220.21861,243.24863 a 7.9734325,7.9734325 0 1 1 -15.94686,0 7.9734325,7.9734325 0 1 1 15.94686,0 z" />
    </g>
  </g>
</svg>
