<?xml version="1.0" encoding="UTF-8" standalone="no"?>
<!-- Created with Inkscape (http://www.inkscape.org/) -->

<svg
   xmlns:dc="http://purl.org/dc/elements/1.1/"
   xmlns:cc="http://creativecommons.org/ns#"
   xmlns:rdf="http://www.w3.org/1999/02/22-rdf-syntax-ns#"
   xmlns:svg="http://www.w3.org/2000/svg"
   xmlns="http://www.w3.org/2000/svg"
   xmlns:xlink="http://www.w3.org/1999/xlink"
   xmlns:sodipodi="http://sodipodi.sourceforge.net/DTD/sodipodi-0.dtd"
   xmlns:inkscape="http://www.inkscape.org/namespaces/inkscape"
   width="635"
   height="485"
   id="svg2"
   sodipodi:version="0.32"
   inkscape:version="0.48.3.1 r9886"
   version="1.0"
   sodipodi:docname="sheafex1.svg"
   inkscape:output_extension="org.inkscape.output.svg.inkscape">
  <defs
     id="defs4">
    <linearGradient
       id="linearGradient3227">
      <stop
         style="stop-color:#1bde00;stop-opacity:1;"
         offset="0"
         id="stop3229" />
      <stop
         style="stop-color:#09530b;stop-opacity:0.12941177;"
         offset="1"
         id="stop3231" />
    </linearGradient>
    <linearGradient
       id="linearGradient3173">
      <stop
         id="stop3175"
         offset="0"
         style="stop-color:#ff0b0b;stop-opacity:1;" />
      <stop
         id="stop3177"
         offset="1"
         style="stop-color:#530909;stop-opacity:0.12941177;" />
    </linearGradient>
    <linearGradient
       id="linearGradient3155">
      <stop
         style="stop-color:#3755d3;stop-opacity:1;"
         offset="0"
         id="stop3157" />
      <stop
         style="stop-color:#183aca;stop-opacity:0;"
         offset="1"
         id="stop3159" />
    </linearGradient>
    <inkscape:perspective
       sodipodi:type="inkscape:persp3d"
       inkscape:vp_x="0 : 526.18109 : 1"
       inkscape:vp_y="0 : 1000 : 0"
       inkscape:vp_z="744.09448 : 526.18109 : 1"
       inkscape:persp3d-origin="372.04724 : 350.78739 : 1"
       id="perspective10" />
    <linearGradient
       inkscape:collect="always"
       xlink:href="#linearGradient3155"
       id="linearGradient3161"
       x1="364.04123"
       y1="564.32269"
       x2="364.11716"
       y2="719.52771"
       gradientUnits="userSpaceOnUse" />
    <linearGradient
       inkscape:collect="always"
       xlink:href="#linearGradient3173"
       id="linearGradient3171"
       x1="253.98857"
       y1="683.08185"
       x2="253.98857"
       y2="624.09778"
       gradientUnits="userSpaceOnUse" />
    <linearGradient
       inkscape:collect="always"
       xlink:href="#linearGradient3227"
       id="linearGradient3181"
       gradientUnits="userSpaceOnUse"
       x1="253.98857"
       y1="683.08185"
       x2="253.98857"
       y2="624.09778" />
  </defs>
  <sodipodi:namedview
     id="base"
     pagecolor="#ffffff"
     bordercolor="#666666"
     borderopacity="1.0"
     gridtolerance="10000"
     guidetolerance="10"
     objecttolerance="10"
     inkscape:pageopacity="0.0"
     inkscape:pageshadow="2"
     inkscape:zoom="0.93117001"
     inkscape:cx="387.52094"
     inkscape:cy="310.68128"
     inkscape:document-units="px"
     inkscape:current-layer="layer1"
     showgrid="false"
     inkscape:window-width="1440"
     inkscape:window-height="821"
     inkscape:window-x="2127"
     inkscape:window-y="137"
     inkscape:window-maximized="0" />
  <metadata
     id="metadata7">
    <rdf:RDF>
      <cc:Work
         rdf:about="">
        <dc:format>image/svg+xml</dc:format>
        <dc:type
           rdf:resource="http://purl.org/dc/dcmitype/StillImage" />
        <dc:title></dc:title>
      </cc:Work>
    </rdf:RDF>
  </metadata>
  <g
     inkscape:label="Layer 1"
     inkscape:groupmode="layer"
     id="layer1"
     transform="translate(-58.908217,-214.51933)">
    <g
       id="g3020">
      <path
         transform="translate(2.1478355,2.1478355)"
         d="m 686.54932,635.40485 c 0,31.1188 -140.10565,56.34558 -312.93473,56.34558 -172.82907,0 -312.934719,-25.22678 -312.934719,-56.34558 0,-31.11881 140.105649,-56.34559 312.934719,-56.34559 172.82908,0 312.93473,25.22678 312.93473,56.34559 z"
         sodipodi:ry="56.345585"
         sodipodi:rx="312.93472"
         sodipodi:cy="635.40485"
         sodipodi:cx="373.61459"
         id="path2383"
         style="fill:url(#linearGradient3161);fill-opacity:1;stroke:#000000;stroke-width:3.54330707;stroke-miterlimit:4;stroke-dasharray:none;stroke-opacity:1"
         sodipodi:type="arc" />
      <path
         transform="translate(-6.5207163,-15.189269)"
         d="m 372.74773,648.40765 c 0,12.44753 -53.17028,22.53824 -118.75916,22.53824 -65.58887,0 -118.75916,-10.09071 -118.75916,-22.53824 0,-12.44752 53.17029,-22.53823 118.75916,-22.53823 65.58888,0 118.75916,10.09071 118.75916,22.53823 z"
         sodipodi:ry="22.538235"
         sodipodi:rx="118.75916"
         sodipodi:cy="648.40765"
         sodipodi:cx="253.98857"
         id="path3163"
         style="fill:url(#linearGradient3171);fill-opacity:1;stroke:#000000;stroke-width:3.54330707;stroke-miterlimit:4;stroke-dasharray:none;stroke-opacity:1"
         sodipodi:type="arc" />
      <path
         sodipodi:type="arc"
         style="fill:url(#linearGradient3181);fill-opacity:1;stroke:#000000;stroke-width:3.54330707;stroke-miterlimit:4;stroke-dasharray:none;stroke-opacity:1"
         id="path3179"
         sodipodi:cx="253.98857"
         sodipodi:cy="648.40765"
         sodipodi:rx="118.75916"
         sodipodi:ry="22.538235"
         d="m 372.74773,648.40765 c 0,12.44753 -53.17028,22.53824 -118.75916,22.53824 -65.58887,0 -118.75916,-10.09071 -118.75916,-22.53824 0,-12.44752 53.17029,-22.53823 118.75916,-22.53823 65.58888,0 118.75916,10.09071 118.75916,22.53823 z"
         transform="translate(257.00326,-15.189269)" />
      <path
         transform="translate(5.8907411,1.0739178)"
         d="m 251.388,631.07056 c 0,1.915 -5.04536,3.46742 -11.26912,3.46742 -6.22376,0 -11.26912,-1.55242 -11.26912,-3.46742 0,-1.91501 5.04536,-3.46742 11.26912,-3.46742 6.22376,0 11.26912,1.55241 11.26912,3.46742 z"
         sodipodi:ry="3.4674208"
         sodipodi:rx="11.269117"
         sodipodi:cy="631.07056"
         sodipodi:cx="240.11888"
         id="path3183"
         style="fill:#000000;fill-opacity:1;stroke:#000000;stroke-width:3.54330707;stroke-miterlimit:4;stroke-dasharray:none;stroke-opacity:1"
         sodipodi:type="arc" />
      <path
         sodipodi:type="arc"
         style="fill:#000000;fill-opacity:1;stroke:#000000;stroke-width:3.54330707;stroke-miterlimit:4;stroke-dasharray:none;stroke-opacity:1"
         id="path3185"
         sodipodi:cx="240.11888"
         sodipodi:cy="631.07056"
         sodipodi:rx="11.269117"
         sodipodi:ry="3.4674208"
         d="m 251.388,631.07056 c 0,1.915 -5.04536,3.46742 -11.26912,3.46742 -6.22376,0 -11.26912,-1.55242 -11.26912,-3.46742 0,-1.91501 5.04536,-3.46742 11.26912,-3.46742 6.22376,0 11.26912,1.55241 11.26912,3.46742 z"
         transform="translate(277.23924,1.0739178)" />
      <rect
         ry="25.818733"
         y="218.43867"
         x="220.08833"
         height="259.70609"
         width="51.637466"
         id="rect3187"
         style="fill:none;fill-opacity:1;stroke:#000000;stroke-width:3.54299998;stroke-miterlimit:4;stroke-dasharray:3.54299998, 3.54299998;stroke-dashoffset:0;stroke-opacity:1" />
      <path
         id="path3189"
         d="M 245.90707,477.38539 L 245.90707,631.53841"
         style="fill:none;fill-rule:evenodd;stroke:#000000;stroke-width:3.54299998;stroke-linecap:butt;stroke-linejoin:miter;stroke-miterlimit:4;stroke-dasharray:3.54299998, 3.54299998;stroke-dashoffset:0;stroke-opacity:1" />
      <path
         transform="translate(33.661884,5.9446747)"
         d="m 220.21861,243.24863 c 0,4.4036 -3.56983,7.97343 -7.97343,7.97343 -4.40361,0 -7.97343,-3.56983 -7.97343,-7.97343 0,-4.40361 3.56982,-7.97344 7.97343,-7.97344 4.4036,0 7.97343,3.56983 7.97343,7.97344 z"
         sodipodi:ry="7.9734325"
         sodipodi:rx="7.9734325"
         sodipodi:cy="243.24863"
         sodipodi:cx="212.24518"
         id="path3191"
         style="fill:#f10000;fill-opacity:1;stroke:none;stroke-width:3.54299998;stroke-miterlimit:4;stroke-dasharray:none;stroke-dashoffset:0;stroke-opacity:1"
         sodipodi:type="arc" />
      <path
         transform="translate(33.661884,33.716098)"
         sodipodi:type="arc"
         style="fill:#f10000;fill-opacity:1;stroke:none;stroke-width:3.54299998;stroke-miterlimit:4;stroke-dasharray:none;stroke-dashoffset:0;stroke-opacity:1"
         id="path3193"
         sodipodi:cx="212.24518"
         sodipodi:cy="243.24863"
         sodipodi:rx="7.9734325"
         sodipodi:ry="7.9734325"
         d="m 220.21861,243.24863 c 0,4.4036 -3.56983,7.97343 -7.97343,7.97343 -4.40361,0 -7.97343,-3.56983 -7.97343,-7.97343 0,-4.40361 3.56982,-7.97344 7.97343,-7.97344 4.4036,0 7.97343,3.56983 7.97343,7.97344 z" />
      <path
         d="m 220.21861,243.24863 c 0,4.4036 -3.56983,7.97343 -7.97343,7.97343 -4.40361,0 -7.97343,-3.56983 -7.97343,-7.97343 0,-4.40361 3.56982,-7.97344 7.97343,-7.97344 4.4036,0 7.97343,3.56983 7.97343,7.97344 z"
         sodipodi:ry="7.9734325"
         sodipodi:rx="7.9734325"
         sodipodi:cy="243.24863"
         sodipodi:cx="212.24518"
         id="path3195"
         style="fill:#f10000;fill-opacity:1;stroke:none;stroke-width:3.54299998;stroke-miterlimit:4;stroke-dasharray:none;stroke-dashoffset:0;stroke-opacity:1"
         sodipodi:type="arc"
         transform="translate(33.661884,61.487521)" />
      <path
         transform="translate(33.661884,89.258945)"
         sodipodi:type="arc"
         style="fill:#f10000;fill-opacity:1;stroke:none;stroke-width:3.54299998;stroke-miterlimit:4;stroke-dasharray:none;stroke-dashoffset:0;stroke-opacity:1"
         id="path3197"
         sodipodi:cx="212.24518"
         sodipodi:cy="243.24863"
         sodipodi:rx="7.9734325"
         sodipodi:ry="7.9734325"
         d="m 220.21861,243.24863 c 0,4.4036 -3.56983,7.97343 -7.97343,7.97343 -4.40361,0 -7.97343,-3.56983 -7.97343,-7.97343 0,-4.40361 3.56982,-7.97344 7.97343,-7.97344 4.4036,0 7.97343,3.56983 7.97343,7.97344 z" />
      <path
         d="m 220.21861,243.24863 c 0,4.4036 -3.56983,7.97343 -7.97343,7.97343 -4.40361,0 -7.97343,-3.56983 -7.97343,-7.97343 0,-4.40361 3.56982,-7.97344 7.97343,-7.97344 4.4036,0 7.97343,3.56983 7.97343,7.97344 z"
         sodipodi:ry="7.9734325"
         sodipodi:rx="7.9734325"
         sodipodi:cy="243.24863"
         sodipodi:cx="212.24518"
         id="path3199"
         style="fill:#f10000;fill-opacity:1;stroke:none;stroke-width:3.54299998;stroke-miterlimit:4;stroke-dasharray:none;stroke-dashoffset:0;stroke-opacity:1"
         sodipodi:type="arc"
         transform="translate(33.661884,117.03037)" />
      <path
         transform="translate(33.661884,144.80179)"
         sodipodi:type="arc"
         style="fill:#f10000;fill-opacity:1;stroke:none;stroke-width:3.54299998;stroke-miterlimit:4;stroke-dasharray:none;stroke-dashoffset:0;stroke-opacity:1"
         id="path3201"
         sodipodi:cx="212.24518"
         sodipodi:cy="243.24863"
         sodipodi:rx="7.9734325"
         sodipodi:ry="7.9734325"
         d="m 220.21861,243.24863 c 0,4.4036 -3.56983,7.97343 -7.97343,7.97343 -4.40361,0 -7.97343,-3.56983 -7.97343,-7.97343 0,-4.40361 3.56982,-7.97344 7.97343,-7.97344 4.4036,0 7.97343,3.56983 7.97343,7.97344 z" />
      <path
         d="m 220.21861,243.24863 c 0,4.4036 -3.56983,7.97343 -7.97343,7.97343 -4.40361,0 -7.97343,-3.56983 -7.97343,-7.97343 0,-4.40361 3.56982,-7.97344 7.97343,-7.97344 4.4036,0 7.97343,3.56983 7.97343,7.97344 z"
         sodipodi:ry="7.9734325"
         sodipodi:rx="7.9734325"
         sodipodi:cy="243.24863"
         sodipodi:cx="212.24518"
         id="path3203"
         style="fill:#f10000;fill-opacity:1;stroke:none;stroke-width:3.54299998;stroke-miterlimit:4;stroke-dasharray:none;stroke-dashoffset:0;stroke-opacity:1"
         sodipodi:type="arc"
         transform="translate(33.661884,172.57322)" />
      <path
         transform="translate(33.661884,200.3446)"
         sodipodi:type="arc"
         style="fill:#f10000;fill-opacity:1;stroke:none;stroke-width:3.54299998;stroke-miterlimit:4;stroke-dasharray:none;stroke-dashoffset:0;stroke-opacity:1"
         id="path3205"
         sodipodi:cx="212.24518"
         sodipodi:cy="243.24863"
         sodipodi:rx="7.9734325"
         sodipodi:ry="7.9734325"
         d="m 220.21861,243.24863 c 0,4.4036 -3.56983,7.97343 -7.97343,7.97343 -4.40361,0 -7.97343,-3.56983 -7.97343,-7.97343 0,-4.40361 3.56982,-7.97344 7.97343,-7.97344 4.4036,0 7.97343,3.56983 7.97343,7.97344 z" />
      <rect
         style="fill:none;fill-opacity:1;stroke:#000000;stroke-width:3.54299998;stroke-miterlimit:4;stroke-dasharray:3.54299998, 3.54299998;stroke-dashoffset:0;stroke-opacity:1"
         id="rect3207"
         width="51.637466"
         height="259.70609"
         x="490.42566"
         y="218.43867"
         ry="25.818733" />
      <path
         style="fill:none;fill-rule:evenodd;stroke:#000000;stroke-width:3.54299998;stroke-linecap:butt;stroke-linejoin:miter;stroke-miterlimit:4;stroke-dasharray:3.54299998, 3.54299998;stroke-dashoffset:0;stroke-opacity:1"
         d="M 516.2444,477.38539 L 516.2444,631.53841"
         id="path3209" />
      <path
         sodipodi:type="arc"
         style="fill:#1ccb00;fill-opacity:1;stroke:none;stroke-width:3.54299998;stroke-miterlimit:4;stroke-dasharray:none;stroke-dashoffset:0;stroke-opacity:1"
         id="path3211"
         sodipodi:cx="212.24518"
         sodipodi:cy="243.24863"
         sodipodi:rx="7.9734325"
         sodipodi:ry="7.9734325"
         d="m 220.21861,243.24863 c 0,4.4036 -3.56983,7.97343 -7.97343,7.97343 -4.40361,0 -7.97343,-3.56983 -7.97343,-7.97343 0,-4.40361 3.56982,-7.97344 7.97343,-7.97344 4.4036,0 7.97343,3.56983 7.97343,7.97344 z"
         transform="translate(303.99922,5.9446747)" />
      <path
         d="m 220.21861,243.24863 c 0,4.4036 -3.56983,7.97343 -7.97343,7.97343 -4.40361,0 -7.97343,-3.56983 -7.97343,-7.97343 0,-4.40361 3.56982,-7.97344 7.97343,-7.97344 4.4036,0 7.97343,3.56983 7.97343,7.97344 z"
         sodipodi:ry="7.9734325"
         sodipodi:rx="7.9734325"
         sodipodi:cy="243.24863"
         sodipodi:cx="212.24518"
         id="path3213"
         style="fill:#1ccb00;fill-opacity:1;stroke:none;stroke-width:3.54299998;stroke-miterlimit:4;stroke-dasharray:none;stroke-dashoffset:0;stroke-opacity:1"
         sodipodi:type="arc"
         transform="translate(303.99922,33.716098)" />
      <path
         transform="translate(303.99922,61.487521)"
         sodipodi:type="arc"
         style="fill:#1ccb00;fill-opacity:1;stroke:none;stroke-width:3.54299998;stroke-miterlimit:4;stroke-dasharray:none;stroke-dashoffset:0;stroke-opacity:1"
         id="path3215"
         sodipodi:cx="212.24518"
         sodipodi:cy="243.24863"
         sodipodi:rx="7.9734325"
         sodipodi:ry="7.9734325"
         d="m 220.21861,243.24863 c 0,4.4036 -3.56983,7.97343 -7.97343,7.97343 -4.40361,0 -7.97343,-3.56983 -7.97343,-7.97343 0,-4.40361 3.56982,-7.97344 7.97343,-7.97344 4.4036,0 7.97343,3.56983 7.97343,7.97344 z" />
      <path
         d="m 220.21861,243.24863 c 0,4.4036 -3.56983,7.97343 -7.97343,7.97343 -4.40361,0 -7.97343,-3.56983 -7.97343,-7.97343 0,-4.40361 3.56982,-7.97344 7.97343,-7.97344 4.4036,0 7.97343,3.56983 7.97343,7.97344 z"
         sodipodi:ry="7.9734325"
         sodipodi:rx="7.9734325"
         sodipodi:cy="243.24863"
         sodipodi:cx="212.24518"
         id="path3217"
         style="fill:#1ccb00;fill-opacity:1;stroke:none;stroke-width:3.54299998;stroke-miterlimit:4;stroke-dasharray:none;stroke-dashoffset:0;stroke-opacity:1"
         sodipodi:type="arc"
         transform="translate(303.99922,89.258945)" />
      <path
         transform="translate(303.99922,117.03037)"
         sodipodi:type="arc"
         style="fill:#1ccb00;fill-opacity:1;stroke:none;stroke-width:3.54299998;stroke-miterlimit:4;stroke-dasharray:none;stroke-dashoffset:0;stroke-opacity:1"
         id="path3219"
         sodipodi:cx="212.24518"
         sodipodi:cy="243.24863"
         sodipodi:rx="7.9734325"
         sodipodi:ry="7.9734325"
         d="m 220.21861,243.24863 c 0,4.4036 -3.56983,7.97343 -7.97343,7.97343 -4.40361,0 -7.97343,-3.56983 -7.97343,-7.97343 0,-4.40361 3.56982,-7.97344 7.97343,-7.97344 4.4036,0 7.97343,3.56983 7.97343,7.97344 z" />
      <path
         d="m 220.21861,243.24863 c 0,4.4036 -3.56983,7.97343 -7.97343,7.97343 -4.40361,0 -7.97343,-3.56983 -7.97343,-7.97343 0,-4.40361 3.56982,-7.97344 7.97343,-7.97344 4.4036,0 7.97343,3.56983 7.97343,7.97344 z"
         sodipodi:ry="7.9734325"
         sodipodi:rx="7.9734325"
         sodipodi:cy="243.24863"
         sodipodi:cx="212.24518"
         id="path3221"
         style="fill:#1ccb00;fill-opacity:1;stroke:none;stroke-width:3.54299998;stroke-miterlimit:4;stroke-dasharray:none;stroke-dashoffset:0;stroke-opacity:1"
         sodipodi:type="arc"
         transform="translate(303.99922,144.80179)" />
      <path
         transform="translate(303.99922,172.57322)"
         sodipodi:type="arc"
         style="fill:#1ccb00;fill-opacity:1;stroke:none;stroke-width:3.54299998;stroke-miterlimit:4;stroke-dasharray:none;stroke-dashoffset:0;stroke-opacity:1"
         id="path3223"
         sodipodi:cx="212.24518"
         sodipodi:cy="243.24863"
         sodipodi:rx="7.9734325"
         sodipodi:ry="7.9734325"
         d="m 220.21861,243.24863 c 0,4.4036 -3.56983,7.97343 -7.97343,7.97343 -4.40361,0 -7.97343,-3.56983 -7.97343,-7.97343 0,-4.40361 3.56982,-7.97344 7.97343,-7.97344 4.4036,0 7.97343,3.56983 7.97343,7.97344 z" />
      <path
         d="m 220.21861,243.24863 c 0,4.4036 -3.56983,7.97343 -7.97343,7.97343 -4.40361,0 -7.97343,-3.56983 -7.97343,-7.97343 0,-4.40361 3.56982,-7.97344 7.97343,-7.97344 4.4036,0 7.97343,3.56983 7.97343,7.97344 z"
         sodipodi:ry="7.9734325"
         sodipodi:rx="7.9734325"
         sodipodi:cy="243.24863"
         sodipodi:cx="212.24518"
         id="path3225"
         style="fill:#1ccb00;fill-opacity:1;stroke:none;stroke-width:3.54299998;stroke-miterlimit:4;stroke-dasharray:none;stroke-dashoffset:0;stroke-opacity:1"
         sodipodi:type="arc"
         transform="translate(303.99922,200.3446)" />
    </g>
  </g>
</svg>
